<svg width="33" height="38" viewBox="0 0 33 38" fill="none" xmlns="http://www.w3.org/2000/svg">
<path d="M4 0C1.79086 0 0 1.79086 0 4V28C0 30.2091 1.79086 32 4 32H9.22376C11.4539 32 13.5 33.2369 14.5365 35.2116L16 38L17.4636 35.2116C18.5 33.2369 20.5461 32 22.7762 32H28C30.2091 32 32 30.2091 32 28V4C32 1.79086 30.2091 0 28 0H4Z" fill="white"/>
<rect x="0.0688477" width="32" height="32" rx="4" fill="white"/>
<path fill-rule="evenodd" clip-rule="evenodd" d="M21.1806 16.8163C21.1391 16.8593 20.3112 16.8574 20.2697 16.9004C19.8111 16.9014 16.3463 17.1341 15.7297 17.3667C16.1758 17.3511 19.7521 16.9781 20.1986 16.9739C20.1274 17.0476 20.0562 17.1211 19.985 17.1948C18.5804 17.0918 14.5823 17.6477 14.147 17.7447C13.2817 17.9373 12.6005 18.9568 11.6915 19.2157C11.2705 19.9869 11.1444 19.9811 10.3104 20.4466C9.66735 20.8057 8.61019 20.7253 8.16115 21.4543C8.0148 21.692 8.1776 21.847 7.96624 22.1107C7.74342 22.1152 7.65989 22.1177 7.49901 21.9179C7.50348 21.5281 7.58288 21.18 7.91595 20.861C8.04671 20.7359 8.24428 20.6758 8.41781 20.563C9.29025 19.9961 10.2079 20.1859 10.7358 19.6126C10.7202 19.4653 11.1268 19.4581 11.0061 19.372C10.7462 19.3364 10.493 19.7148 10.2349 19.8012C10.0285 19.7283 9.82342 19.7355 9.61472 19.5218C9.55423 19.6437 9.37711 19.7796 9.1846 19.7825C8.98163 19.7626 8.87404 19.4342 8.69019 19.4469C8.25434 20.0253 7.37378 20.6094 7.08414 19.7452C6.73929 20.7668 5.52206 19.9139 5.62718 19.2263C5.46784 19.2193 5.38796 19.0641 5.33334 18.9779C5.36778 18.8308 5.75054 18.8604 5.58141 18.6478C5.62644 18.4258 5.49148 18.4344 5.3416 18.3803C5.20585 18.3314 5.04024 18.3178 4.97589 18.1691C5.16041 17.9048 5.44059 17.9485 5.56809 17.8515C5.49981 17.7168 5.6325 17.601 5.58041 17.5074C5.48335 17.3327 5.0555 17.5909 4.92407 17.2286C5.04491 16.8977 5.43699 16.9038 5.67753 16.8179C5.71823 16.6723 5.70751 16.5277 5.81503 16.3811C5.60226 16.2907 5.25441 16.5396 5.16108 16.2472C5.07882 15.9892 5.40795 15.9284 5.53545 15.897C5.69958 15.8565 5.95658 15.8787 6.07662 15.7794C6.17307 15.6995 6.27412 15.4845 6.37731 15.358C6.75754 14.8919 7.23722 14.8885 7.46431 15.4122C7.99988 14.9574 8.54544 15.1078 9.0962 15.5661C9.2616 15.4415 9.34087 15.2643 9.52386 15.1606C9.70931 15.1427 9.82009 15.0741 9.97543 15.0988C10.1753 15.1306 10.3176 15.3182 10.5054 15.3977C10.6667 15.466 10.9419 15.434 11.1765 15.4771C11.4043 15.5188 11.6464 15.5852 11.8679 15.6828C12.3549 15.8973 12.7925 16.3455 13.2566 16.4561C13.6654 16.5536 14.3451 16.3978 14.8106 16.2853C16.1737 15.9561 17.3833 15.4904 18.7053 15.3515C19.4805 15.27 20.8706 15.2041 21.5406 15.4209C20.8442 15.4302 19.2207 15.4189 18.5273 15.5355C16.7386 15.8363 14.9613 16.579 13.1688 16.6205C12.327 16.0793 11.4847 15.508 10.6531 15.5763C11.4004 16.2884 11.4849 17.1345 11.4163 17.917C11.6596 18.2207 11.6584 18.5284 11.7394 18.8349C12.3492 18.6481 12.8752 18.0073 13.4391 17.6297C15.7472 17.1989 18.0612 16.771 20.376 16.7538C20.932 16.8075 21.1745 16.8152 21.1806 16.8163Z" fill="#850000"/>
<path fill-rule="evenodd" clip-rule="evenodd" d="M13.4534 17.7351C13.4534 17.7351 12.5833 18.678 11.947 18.9235C12.2137 18.9185 13.4939 17.8558 13.4939 17.8558L14.2746 17.6108L13.4534 17.7351Z" fill="white"/>
<path fill-rule="evenodd" clip-rule="evenodd" d="M10.3944 19.5995C10.9368 19.2707 10.9583 18.7641 11.1155 18.3384C11.4824 17.3449 11.3322 16.334 10.5445 15.5781C10.1526 15.1856 9.70518 15.196 9.38444 15.4889C9.33141 15.5372 9.14696 15.5867 9.24268 15.6723C9.31109 15.7605 9.35879 15.6248 9.38623 15.5974C9.83781 15.1467 10.1958 15.4718 10.5339 16.0309C10.9137 16.6588 10.9835 17.1783 10.8906 17.8715C10.8002 18.545 10.725 19.1156 10.1048 19.6044C10.2197 19.6896 10.3186 19.6454 10.3944 19.5995Z" fill="white"/>
<path fill-rule="evenodd" clip-rule="evenodd" d="M10.7865 17.0586C10.7371 16.5585 10.416 16.0631 10.0555 15.5683C9.84883 15.5653 9.55013 15.5282 9.40771 15.7963C9.85509 15.9334 10.6138 16.6532 10.7865 17.0586Z" fill="white"/>
<path fill-rule="evenodd" clip-rule="evenodd" d="M10.5838 17.931C10.5997 18.1949 10.5027 18.4635 10.5964 18.691C10.7003 18.2067 10.816 17.7219 10.7895 17.2396C10.7599 17.275 10.7295 17.2649 10.6987 17.223C10.5472 16.8282 10.1764 16.3103 9.7395 16.1528C10.2138 16.7372 10.5484 17.3426 10.5838 17.931Z" fill="white"/>
<path fill-rule="evenodd" clip-rule="evenodd" d="M9.228 15.8717C8.8948 15.7008 8.33405 15.6777 8.03003 15.6743C8.30687 15.7031 8.6462 15.9021 8.87222 16.2397C9.08945 16.2413 9.30548 16.1709 9.5255 16.3373C9.59325 16.125 9.40573 15.9629 9.228 15.8717Z" fill="white"/>
<path fill-rule="evenodd" clip-rule="evenodd" d="M9.65456 17.5662C9.74289 17.1483 10.0687 16.63 9.6511 16.281C9.76075 16.7075 9.35101 17.1428 9.65456 17.5662Z" fill="white"/>
<path fill-rule="evenodd" clip-rule="evenodd" d="M7.59253 15.5006C8.07055 15.5748 8.54577 15.4824 9.02558 15.6759C8.59919 15.304 8.06155 15.0774 7.59253 15.5006Z" fill="white"/>
<path fill-rule="evenodd" clip-rule="evenodd" d="M9.86681 17.2731C9.95521 17.2432 10.0778 17.3933 10.033 17.4694C9.91031 17.5729 9.85735 17.5972 9.76489 17.673C9.92004 17.9006 10.2454 18.265 10.4457 18.3315C10.4885 17.7936 10.3647 17.1621 9.96573 16.6921C9.97346 16.8851 9.85282 17.0802 9.86681 17.2731Z" fill="white"/>
<path fill-rule="evenodd" clip-rule="evenodd" d="M7.90044 21.8945C7.94467 21.716 7.91609 21.5106 8.0693 21.3433C8.60321 20.7608 9.53094 20.6895 10.2733 20.3134C10.8638 20.0142 11.428 19.5901 11.5319 19.1032C11.5491 19.0232 11.5507 18.9184 11.5621 18.8283C11.5954 18.568 11.6014 18.3695 11.3655 18.1169C11.1299 18.3579 11.3508 18.5931 11.3088 18.8316C11.1019 19.428 10.7244 19.8735 10.0365 20.2477C9.74537 20.4061 9.38719 20.4832 9.06644 20.5895C8.32417 20.8354 7.39425 21.2656 7.73717 21.8829C7.80992 21.8494 7.87106 21.8737 7.90044 21.8945Z" fill="white"/>
<path fill-rule="evenodd" clip-rule="evenodd" d="M9.12965 16.4887C9.12879 16.5429 9.16403 16.5968 9.22278 16.6502C9.32517 16.6346 9.42802 16.6503 9.529 16.5544C9.39518 16.5 9.26188 16.4591 9.12965 16.4887Z" fill="white"/>
<path fill-rule="evenodd" clip-rule="evenodd" d="M9.29761 16.7937C9.35103 16.8834 9.38614 16.9734 9.42877 17.0632C9.44882 16.9542 9.52463 16.8443 9.45961 16.7368C9.40599 16.7775 9.35103 16.7392 9.29761 16.7937Z" fill="white"/>
<path fill-rule="evenodd" clip-rule="evenodd" d="M10.1922 18.3357C9.28107 17.5023 9.23338 16.4248 8.28687 15.8872C8.35821 16.0382 8.49902 16.1183 8.58242 16.2445C8.76375 16.5186 8.79372 16.8637 8.92328 17.1439C9.22158 17.7884 9.71219 18.2801 10.3976 18.7123C10.526 18.5117 10.2925 18.4272 10.1922 18.3357Z" fill="white"/>
<path fill-rule="evenodd" clip-rule="evenodd" d="M11.0356 18.9733C11.0847 19.0265 11.132 18.966 11.1803 18.971C11.167 18.8686 11.215 18.7652 11.1571 18.6636C11.0967 18.7672 11.0915 18.8698 11.0356 18.9733Z" fill="white" stroke="white" stroke-width="0.0635586" stroke-miterlimit="22.9256"/>
<path fill-rule="evenodd" clip-rule="evenodd" d="M8.96463 18.537C8.91561 17.8327 8.86891 16.983 8.49394 16.3726C8.35412 16.1446 8.10858 15.8264 7.85132 15.822C8.11058 16.0531 8.18652 16.2872 8.35165 16.5196C8.43012 17.003 8.52158 17.4086 8.61018 17.9093C8.72182 18.5399 8.38796 19.1458 9.14595 19.6382C9.24821 19.6227 9.35105 19.6376 9.45144 19.5065C9.00207 19.3814 8.99335 18.9514 8.96463 18.537Z" fill="white"/>
<path fill-rule="evenodd" clip-rule="evenodd" d="M7.35933 15.6313C7.45559 15.5466 7.31277 15.2147 7.11539 15.1103C6.76247 14.924 6.27533 15.5436 6.22197 15.8131C5.96537 16.1796 5.83981 16.5437 5.76953 16.9069C5.88904 16.8356 6.01047 16.8827 6.13031 16.8285C6.43866 16.2912 6.32409 15.6568 6.95638 15.3484C7.08102 15.4167 7.17008 15.7979 7.35933 15.6313Z" fill="white"/>
<path fill-rule="evenodd" clip-rule="evenodd" d="M6.65746 15.8782C6.63561 15.9871 6.51084 16.0978 6.55428 16.2058C6.9415 16.2737 7.31853 15.717 7.70696 15.8606C7.35384 15.6672 7.00785 15.9065 6.65746 15.8782Z" fill="white"/>
<path fill-rule="evenodd" clip-rule="evenodd" d="M7.00637 16.1803C7.0843 16.2794 6.78035 16.345 6.86454 16.3637C6.8766 16.3534 6.88839 16.3446 6.90092 16.363C6.78294 16.5428 6.59929 16.6295 6.6368 16.82C6.66924 16.7894 6.68809 16.759 6.68968 16.7286C6.84922 16.8878 7.00364 16.7398 7.16078 16.757C7.21667 16.5553 7.40531 16.4016 7.58724 16.2791C7.7936 16.3405 8.00017 16.4336 8.20927 16.6671C8.2154 16.0861 7.41024 15.6798 7.00637 16.1803Z" fill="white"/>
<path fill-rule="evenodd" clip-rule="evenodd" d="M9.09431 17.6298C9.03543 17.593 8.99392 17.409 8.9834 17.4867C8.99206 17.5398 8.98893 17.6852 9.09431 17.6298Z" fill="white"/>
<path fill-rule="evenodd" clip-rule="evenodd" d="M6.86796 15.4766C6.81101 15.55 6.77237 15.623 6.72681 15.6961C6.83585 15.7256 6.94396 15.6941 7.05194 15.6545C7.0213 15.5649 6.94477 15.5299 6.86796 15.4766Z" fill="white"/>
<path fill-rule="evenodd" clip-rule="evenodd" d="M9.92534 18.6116C9.65742 18.8236 9.38398 18.7168 9.11426 18.8242C9.13078 18.9508 9.10586 19.0778 9.21104 19.2028C9.59613 19.1367 9.98236 19.1397 10.3675 19.075C10.5169 18.7762 10.1271 18.8211 9.92534 18.6116Z" fill="white"/>
<path fill-rule="evenodd" clip-rule="evenodd" d="M7.65218 16.9116C7.45268 16.9129 7.25323 16.884 7.09076 16.9029C6.46187 16.9757 5.709 16.9629 5.06812 17.1901C5.19435 17.4518 5.44928 17.2048 5.6312 17.3074C6.52022 17.0558 7.51236 17.2183 8.3423 17.0449C8.25357 16.7577 7.92277 16.9101 7.65218 16.9116Z" fill="white"/>
<path fill-rule="evenodd" clip-rule="evenodd" d="M9.17334 18.0268C9.24042 18.0695 9.30704 18.0769 9.37218 18.0055C9.29451 17.957 9.28712 17.8153 9.1882 17.8274C9.21937 17.8933 9.177 17.9604 9.17334 18.0268Z" fill="white"/>
<path fill-rule="evenodd" clip-rule="evenodd" d="M9.36055 18.3857C9.31479 18.4831 9.20741 18.5814 9.2206 18.6778C9.41284 18.6299 9.60662 18.6694 9.79787 18.5595C9.71767 18.3483 9.49731 18.443 9.36055 18.3857Z" fill="white"/>
<path fill-rule="evenodd" clip-rule="evenodd" d="M8.32704 17.2083C7.50876 17.3451 6.68469 17.1477 5.86694 17.3216C6.05599 17.4275 6.21566 17.3145 6.39159 17.2947C7.07031 17.2184 7.74611 17.4386 8.40058 17.2794C8.37614 17.2556 8.35156 17.232 8.32704 17.2083Z" fill="white"/>
<path fill-rule="evenodd" clip-rule="evenodd" d="M9.12304 18.263C9.18279 18.2277 9.24381 18.2706 9.30336 18.2237C9.25307 18.1764 9.11098 18.1752 9.12304 18.263Z" fill="white"/>
<path fill-rule="evenodd" clip-rule="evenodd" d="M9.30322 19.2918C9.45104 19.3493 9.5331 19.2855 9.64855 19.3765C9.83799 19.2849 10.2115 19.4465 10.2793 19.2031C9.9543 19.2559 9.62796 19.2244 9.30322 19.2918Z" fill="white"/>
<path fill-rule="evenodd" clip-rule="evenodd" d="M9.11021 18.5709C9.15904 18.5098 9.23451 18.4481 9.17956 18.3887C9.09536 18.3953 9.08663 18.5106 9.11021 18.5709Z" fill="white"/>
<path fill-rule="evenodd" clip-rule="evenodd" d="M9.75879 19.4833C9.88595 19.4908 10.109 19.5111 10.1743 19.4221C10.0477 19.4544 9.82467 19.4274 9.75879 19.4833Z" fill="white"/>
<path fill-rule="evenodd" clip-rule="evenodd" d="M8.44649 17.8577C7.83778 17.9048 7.22753 17.8617 6.61948 17.9426C6.11242 17.9319 5.60496 17.8981 5.10229 18.1488C5.28741 18.2813 5.51037 18.1766 5.69982 18.1569C6.63487 18.06 7.57658 18.2502 8.50471 18.0921C8.51263 18.0136 8.49858 17.9352 8.44649 17.8577Z" fill="white"/>
<path fill-rule="evenodd" clip-rule="evenodd" d="M7.1145 18.3145C7.45103 18.3462 7.88762 18.3692 8.21942 18.3504C8.31834 18.3448 8.49254 18.3793 8.52604 18.291C8.05622 18.3352 7.58413 18.2499 7.1145 18.3145Z" fill="white"/>
<path fill-rule="evenodd" clip-rule="evenodd" d="M5.28589 16.1185C5.41712 16.2514 5.69576 16.2074 5.88447 16.1991C5.79808 16.116 5.95289 16.0289 5.91652 15.9451C5.70635 16.0053 5.49499 15.995 5.28589 16.1185Z" fill="white"/>
<path fill-rule="evenodd" clip-rule="evenodd" d="M6.70131 17.4162C6.57022 17.7689 6.72922 17.8521 7.03191 17.7004C7.12964 17.4893 6.90642 17.2836 6.70131 17.4162Z" fill="white"/>
<path fill-rule="evenodd" clip-rule="evenodd" d="M7.57429 19.8276C7.33988 19.7482 7.31429 19.424 7.16894 19.3999C7.07755 19.6306 7.25128 19.8572 7.46997 20.0827C7.92241 20.1619 8.97017 19.2935 8.50041 18.907C8.42254 19.2942 7.98503 19.8722 7.57429 19.8276Z" fill="white"/>
<path fill-rule="evenodd" clip-rule="evenodd" d="M6.89036 18.9881C6.43839 18.9853 5.98282 18.8761 5.53271 18.9926C5.69359 19.1918 6.01186 19.1303 6.27732 19.1431C6.95677 19.1756 7.65016 19.2089 8.23256 19.1467C8.25614 19.0679 8.31263 18.9884 8.31915 18.9099C7.84147 18.9885 7.36725 18.9909 6.89036 18.9881Z" fill="white"/>
<path fill-rule="evenodd" clip-rule="evenodd" d="M6.39941 17.7652C6.55542 17.7754 6.48934 17.5872 6.48534 17.4922C6.43971 17.5835 6.41627 17.6744 6.39941 17.7652Z" fill="white"/>
<path fill-rule="evenodd" clip-rule="evenodd" d="M6.69678 18.231C6.71669 18.4298 6.68539 18.6294 6.7973 18.8266C6.89988 18.828 7.0032 18.8724 7.10452 18.8035C7.04004 18.6355 7.03064 18.4668 6.98761 18.2986C6.839 18.3471 6.77105 18.2431 6.69678 18.231Z" fill="white"/>
<path fill-rule="evenodd" clip-rule="evenodd" d="M5.67048 17.4877C5.70625 17.62 5.6513 17.7536 5.67708 17.8859C5.90123 17.8627 5.97277 17.297 5.67048 17.4877Z" fill="white"/>
<path fill-rule="evenodd" clip-rule="evenodd" d="M6.20898 18.2936C6.30064 18.3652 6.46731 18.3624 6.49855 18.2887C6.40083 18.2177 6.30424 18.2192 6.20898 18.2936Z" fill="white"/>
<path fill-rule="evenodd" clip-rule="evenodd" d="M5.90703 18.6423C5.93608 18.5694 5.99916 18.496 5.97584 18.424C5.84615 18.4085 5.90157 18.5571 5.90703 18.6423Z" fill="white"/>
<path fill-rule="evenodd" clip-rule="evenodd" d="M6.7883 19.3881C6.73115 19.9522 6.09725 19.9095 6.00926 19.3468C5.93691 19.348 5.86391 19.3101 5.7921 19.3504C5.73548 19.6681 6.22568 20.1457 6.54716 20.1162C6.84026 20.0027 7.15754 19.5198 6.7883 19.3881Z" fill="white"/>
<path fill-rule="evenodd" clip-rule="evenodd" d="M5.70407 18.4104C5.61647 18.5204 5.72958 18.6273 5.74557 18.7355C5.76882 18.6337 5.83183 18.4512 5.70407 18.4104Z" fill="white"/>
<path fill-rule="evenodd" clip-rule="evenodd" d="M7.46357 16.444C7.39996 16.581 7.3504 16.674 7.32422 16.7721C7.57722 16.75 7.83188 16.8222 8.08368 16.7233C7.87491 16.5082 7.66808 16.4094 7.46357 16.444Z" fill="white"/>
<path fill-rule="evenodd" clip-rule="evenodd" d="M8.4031 17.4243C7.9873 17.4546 7.57044 17.4316 7.15464 17.4632C7.13385 17.542 7.10327 17.621 7.10427 17.6994C7.55111 17.7135 7.99802 17.7401 8.4424 17.6046C8.42562 17.5446 8.41989 17.4843 8.4031 17.4243Z" fill="white"/>
<path fill-rule="evenodd" clip-rule="evenodd" d="M6.46603 16.334C6.40008 16.4981 6.33406 16.6621 6.31128 16.8254C6.38296 16.7804 6.45584 16.8095 6.52784 16.7855C6.53204 16.5954 6.68772 16.5007 6.71936 16.3298C6.63543 16.3624 6.54956 16.2767 6.46603 16.334Z" fill="white"/>
<path fill-rule="evenodd" clip-rule="evenodd" d="M7.15306 18.4587C7.10163 18.5864 7.12055 18.7127 7.17757 18.8384C7.59444 18.8681 8.00977 18.8086 8.42531 18.7634C8.43104 18.6848 8.49432 18.6053 8.54801 18.526C8.08211 18.444 7.61842 18.4972 7.15306 18.4587Z" fill="white"/>
<path fill-rule="evenodd" clip-rule="evenodd" d="M6.01405 17.4639C6.01232 17.5787 5.92778 17.6947 5.96549 17.8087C6.05528 17.7659 6.14648 17.8079 6.23601 17.7499C6.23434 17.6354 6.35404 17.5186 6.3208 17.4045C6.21955 17.4855 6.1153 17.383 6.01405 17.4639Z" fill="white"/>
<path fill-rule="evenodd" clip-rule="evenodd" d="M7.40503 19.4503C7.41176 19.5818 7.56737 19.6609 7.64484 19.7178C7.75162 19.6603 8.02434 19.5952 7.96565 19.4229C7.7794 19.4681 7.59101 19.3953 7.40503 19.4503Z" fill="white"/>
<path fill-rule="evenodd" clip-rule="evenodd" d="M6.15809 18.4934C6.17195 18.5958 6.12865 18.699 6.14517 18.8014C6.28333 18.7603 6.42409 18.8813 6.56178 18.8125C6.66236 18.5116 6.42715 18.361 6.15809 18.4934Z" fill="white"/>
<path fill-rule="evenodd" clip-rule="evenodd" d="M6.19164 19.4162C6.18224 19.5115 6.31407 19.6984 6.43144 19.6837C6.69763 19.4314 6.43724 19.221 6.19164 19.4162Z" fill="white"/>
<path fill-rule="evenodd" clip-rule="evenodd" d="M18.8814 16.8179C20.1248 16.8358 21.2516 16.7057 22.5211 16.9867C23.6607 17.239 24.4638 17.5486 25.6386 17.4971C25.7559 17.492 26.2476 17.478 26.2567 17.298C26.2689 17.0577 25.8976 16.5532 25.708 16.3962C24.6198 15.4938 21.4407 15.4629 20.034 15.3621C19.9205 15.3539 19.8519 15.3532 19.7416 15.3206C19.8516 15.2879 19.9207 15.2869 20.034 15.2787C21.498 15.1731 24.6731 15.1938 25.8784 16.0434C26.1885 16.2619 26.5731 16.7684 26.6585 17.1329C26.8103 17.7815 26.1437 17.9125 25.6643 17.9462C24.489 18.0291 23.5932 17.6097 22.4446 17.3781C21.2534 17.1378 20.1933 17.1927 18.9548 17.1994C18.6104 17.2176 16.2908 17.4048 18.5734 17.004C18.7375 16.9753 18.7148 16.8179 18.8814 16.8179Z" fill="#850000"/>
<path d="M5.03955 12.0208C5.04595 13.546 6.1947 14.3054 7.33066 14.3054C8.15393 14.3054 9.00265 13.948 9.32179 13.0162C9.47487 12.5823 9.47487 12.1547 9.44936 11.708H7.33698V12.6972H8.28789C8.08372 13.1248 7.79016 13.246 7.33066 13.246C6.65413 13.246 6.22021 12.7611 6.22021 12.0208C6.22021 11.3379 6.6095 10.7762 7.33066 10.7762C7.78376 10.7762 8.07725 10.9295 8.26237 11.3123H9.38555C9.16859 10.2019 8.23047 9.736 7.33066 9.72968C6.1947 9.72968 5.04595 10.4954 5.03955 12.0208ZM12.0851 13.2907C11.7532 13.2907 11.4022 13.112 11.4022 12.7482V9.78703C11.0448 9.78703 10.6683 9.78703 10.3109 9.78703V12.7674C10.3109 13.7502 11.1725 14.3182 12.0851 14.3182C13.0041 14.3182 13.8528 13.7502 13.8528 12.7674V9.78703C13.4955 9.78703 13.1253 9.78703 12.7615 9.78703V12.7482C12.7615 13.112 12.4169 13.2907 12.0851 13.2907ZM15.7546 12.8887C15.3653 12.8887 15.0334 12.8887 14.6505 12.8887C14.625 14.8542 18.2626 14.8223 18.2626 12.9461C18.2626 11.8293 17.3947 11.6952 16.5077 11.5995C16.1056 11.5548 15.7738 11.4846 15.7993 11.1464C15.8375 10.6167 17.0374 10.5657 17.0374 11.1592C17.4267 11.1592 17.7202 11.1592 18.1222 11.1592C18.1477 9.23187 14.6761 9.23187 14.7144 11.1592C14.7271 12.1292 15.3653 12.461 16.3353 12.5312C16.7821 12.5567 17.1522 12.627 17.1522 12.9397C17.1522 13.463 15.7546 13.4566 15.7546 12.8887ZM19.756 10.8081V14.2543C20.1325 14.2543 20.5091 14.2543 20.8856 14.2543V10.8081H21.9769C21.9769 10.4636 21.9769 10.1254 21.9769 9.78703H18.6583C18.6583 10.1254 18.6583 10.4636 18.6583 10.8081H19.756ZM26.993 12.0271C26.993 8.93823 22.4108 8.93823 22.4108 12.0271C22.4108 15.1222 26.993 15.1222 26.993 12.0271ZM23.5851 12.0271C23.5851 10.4189 25.8251 10.4189 25.8251 12.0271C25.8251 13.6481 23.5851 13.6481 23.5851 12.0271Z" fill="#850000"/>
<path fill-rule="evenodd" clip-rule="evenodd" d="M10.9128 19.2107C10.9807 19.2645 11.1766 19.2585 11.1289 19.1348C11.0571 19.1705 10.9834 19.0987 10.9128 19.2107Z" fill="white"/>
<path d="M19.9314 20.0485L20.1839 20.105C20.1706 20.152 20.1578 20.1894 20.1459 20.2177C20.1337 20.2456 20.1163 20.279 20.0943 20.3173L20.2156 20.4009C20.2306 20.4104 20.2496 20.4218 20.273 20.4352L20.0989 20.635C20.0671 20.6182 20.034 20.5986 20 20.5763C19.9659 20.554 19.9352 20.535 19.9083 20.5193C19.8521 20.5563 19.7959 20.5831 19.7396 20.6002C19.662 20.6234 19.5735 20.635 19.4744 20.635C19.3191 20.635 19.2037 20.6027 19.1279 20.5378C19.0522 20.4731 19.0142 20.3947 19.0142 20.3024C19.0142 20.2359 19.0365 20.1731 19.081 20.1139C19.1255 20.0551 19.1983 20.0048 19.2996 19.9641C19.2572 19.9125 19.2282 19.868 19.2124 19.8299C19.1964 19.7922 19.1885 19.7533 19.1885 19.7142C19.1885 19.6315 19.22 19.5633 19.2829 19.5098C19.3462 19.4563 19.4418 19.4294 19.5703 19.4294C19.7011 19.4294 19.7972 19.455 19.8586 19.5057C19.9202 19.5568 19.951 19.6176 19.951 19.6887C19.951 19.7286 19.9414 19.7666 19.9227 19.8034C19.9037 19.84 19.8811 19.8695 19.8546 19.8924C19.828 19.9152 19.7804 19.9492 19.7117 19.9943C19.7685 20.0513 19.8276 20.1042 19.8893 20.1531C19.9056 20.1199 19.9197 20.0852 19.9314 20.0485ZM19.5594 19.8438C19.6012 19.8207 19.6333 19.796 19.656 19.7691C19.6788 19.7423 19.6903 19.717 19.6903 19.6931C19.6903 19.6681 19.6808 19.647 19.6618 19.6296C19.6427 19.6124 19.6164 19.6038 19.583 19.6038C19.5501 19.6038 19.5236 19.6132 19.5029 19.6325C19.4823 19.6516 19.472 19.6741 19.472 19.7002C19.472 19.7333 19.501 19.781 19.5594 19.8438ZM19.4443 20.1276C19.3995 20.1587 19.3699 20.1856 19.3555 20.2079C19.3408 20.2304 19.3335 20.2541 19.3335 20.279C19.3335 20.3178 19.3501 20.3523 19.3835 20.3827C19.4168 20.4129 19.4603 20.428 19.5138 20.428C19.5716 20.428 19.6365 20.4055 19.7085 20.3602C19.6397 20.3072 19.5515 20.2296 19.4443 20.1276Z" fill="#850000"/>
<path d="M12.678 19.449H13.2774C13.4081 19.449 13.5058 19.48 13.571 19.5421C13.6359 19.6043 13.6685 19.6928 13.6685 19.8077C13.6685 19.9255 13.6329 20.0178 13.562 20.0841C13.4911 20.1506 13.3828 20.1838 13.2373 20.1838H13.0396V20.6154H12.678V19.449ZM13.0396 19.9475H13.1284C13.1985 19.9475 13.2476 19.9353 13.2758 19.9111C13.3041 19.8869 13.3182 19.856 13.3182 19.8183C13.3182 19.7816 13.3059 19.7507 13.2813 19.7251C13.2569 19.6996 13.2107 19.6868 13.1428 19.6868H13.0396V19.9475ZM14.4352 20.4231H14.0268L13.9682 20.6154H13.6003L14.0394 19.449H14.4338L14.871 20.6154H14.4936L14.4352 20.4231ZM14.3589 20.1707L14.2315 19.7515L14.1036 20.1707H14.3589ZM14.9228 20.2296L15.2649 20.2082C15.2722 20.2636 15.2875 20.3059 15.3103 20.3347C15.3475 20.3816 15.4004 20.4053 15.4694 20.4053C15.5207 20.4053 15.5603 20.3933 15.588 20.3692C15.616 20.345 15.6298 20.317 15.6298 20.2852C15.6298 20.2551 15.6168 20.228 15.5904 20.2041C15.5641 20.1802 15.5028 20.1579 15.4064 20.1365C15.2484 20.1012 15.1359 20.0539 15.0687 19.9951C15.0007 19.9364 14.9668 19.8614 14.9668 19.7702C14.9668 19.7104 14.9842 19.6539 15.019 19.6008C15.0537 19.5473 15.1058 19.5055 15.1756 19.4751C15.2454 19.4447 15.3409 19.4294 15.4624 19.4294C15.6114 19.4294 15.7249 19.4571 15.8031 19.5129C15.8813 19.5682 15.9276 19.6565 15.9426 19.7775L15.6038 19.7976C15.5948 19.7447 15.5758 19.7062 15.5471 19.6822C15.518 19.6581 15.4781 19.6461 15.4273 19.6461C15.3855 19.6461 15.3537 19.6551 15.3325 19.6727C15.3114 19.6904 15.3007 19.7121 15.3007 19.7376C15.3007 19.756 15.3095 19.7726 15.3266 19.7876C15.3431 19.8031 15.3833 19.8172 15.4468 19.8305C15.6043 19.8644 15.717 19.8989 15.7849 19.9337C15.853 19.9684 15.9027 20.0113 15.9336 20.0629C15.9646 20.1142 15.9801 20.1718 15.9801 20.2355C15.9801 20.3103 15.9595 20.3792 15.9182 20.4424C15.8766 20.5055 15.8191 20.5535 15.7447 20.5861C15.6706 20.6187 15.5772 20.635 15.4642 20.635C15.266 20.635 15.1286 20.5967 15.0523 20.5204C14.976 20.4441 14.9328 20.3471 14.9228 20.2296ZM16.0798 19.449H17.1761V19.7374H16.8079V20.6154H16.4479V19.7374H16.0798V19.449ZM17.9448 20.4231H17.5364L17.4778 20.6154H17.1099L17.549 19.449H17.9434L18.3806 20.6154H18.0032L17.9448 20.4231ZM17.8685 20.1707L17.7411 19.7515L17.6132 20.1707H17.8685Z" fill="#850000"/>
<path d="M21.1428 19.4492H21.7423C21.873 19.4492 21.9707 19.4801 22.0358 19.5423C22.1007 19.6045 22.1333 19.693 22.1333 19.8079C22.1333 19.9257 22.0977 20.018 22.0268 20.0842C21.956 20.1508 21.8477 20.1838 21.7022 20.1838H21.5045V20.6156H21.1428V19.4492ZM21.5045 19.9476H21.5933C21.6633 19.9476 21.7124 19.9354 21.7407 19.9112C21.7689 19.8871 21.7831 19.8562 21.7831 19.8185C21.7831 19.7818 21.7709 19.7508 21.7462 19.7253C21.7217 19.6997 21.6755 19.687 21.6077 19.687H21.5045V19.9476ZM22.3356 19.4492H22.6972V20.6156H22.3356V19.4492ZM22.9273 19.4492H23.9454V19.6824L23.2916 20.3648H23.9699V20.6156H22.8637V20.3733L23.5107 19.6984H22.9273V19.4492ZM24.1037 19.4492H25.1219V19.6824L24.4681 20.3648H25.1463V20.6156H24.0402V20.3733L24.6872 19.6984H24.1037V19.4492ZM26.0255 20.4233H25.6172L25.5585 20.6156H25.1906L25.6296 19.4492H26.0241L26.4612 20.6156H26.0839L26.0255 20.4233ZM25.9492 20.1708L25.8219 19.7516L25.694 20.1708H25.9492Z" fill="#850000"/>
</svg>
