<svg width="33" height="38" viewBox="0 0 33 38" fill="none" xmlns="http://www.w3.org/2000/svg">
<path d="M4 0C1.79086 0 0 1.79086 0 4V28C0 30.2091 1.79086 32 4 32H9.22376C11.4539 32 13.5 33.2369 14.5365 35.2116L16 38L17.4636 35.2116C18.5 33.2369 20.5461 32 22.7762 32H28C30.2091 32 32 30.2091 32 28V4C32 1.79086 30.2091 0 28 0H4Z" fill="white"/>
<rect x="0.241455" width="32" height="32" rx="4" fill="white"/>
<path d="M12.5702 12.6573C12.8289 13.7196 13.7787 15.133 14.5273 15.9526C14.7793 16.2085 15.6287 17.1661 15.9126 17.1621C16.2196 17.1579 17.0768 16.1892 17.3441 15.9149C18.0849 15.0621 19.2277 13.4149 19.3826 12.2299C19.3314 12.2472 19.0567 12.4468 18.9718 12.5025L18.2814 12.8954C18.1388 12.9658 18.1445 12.9334 18.1037 13.0843C17.9464 13.6658 17.3567 13.8264 16.8594 14.0111C16.699 14.0707 16.4892 14.1509 16.3134 14.1869C16.0469 14.2413 15.9329 14.2074 15.8014 14.023L17.1047 13.4647C17.2708 13.3936 17.2171 13.1687 17.0891 13.2083L15.6539 13.6533L15.5321 13.3872L16.8485 12.7323C16.9997 12.5127 16.7709 12.4712 16.5919 12.538L15.4015 12.9823L15.3663 12.8559C15.3638 12.8021 15.3688 12.744 15.3873 12.6933C15.4086 12.6349 15.4926 12.5517 15.5449 12.5113C15.6866 12.402 15.8406 12.3463 15.992 12.2774C16.2378 12.1658 16.6962 11.968 16.9861 11.9213C17.4901 11.8399 17.6529 12.0869 17.7741 12.0559C18.0804 11.9774 19.4032 11.1939 19.7197 10.9509C19.7778 10.9063 19.8283 10.8572 19.8924 10.8045C19.9455 10.7608 20.0208 10.6899 20.0698 10.6412C20.1865 10.525 20.2941 10.4121 20.3932 10.2816C20.5641 10.0566 20.8517 9.64547 20.6046 9.33274C20.4356 9.11882 20.0624 9.11815 19.8009 9.20049C19.712 9.22852 19.6321 9.28276 19.5685 9.29917C19.7318 9.29275 19.9837 9.17448 20.1544 9.31538C20.5249 9.62129 19.5031 10.3906 19.3912 10.423C19.225 9.95517 19.1807 9.73018 18.8737 9.29154C18.6589 8.98468 18.3631 8.67087 18.0631 8.44155C16.7921 7.46971 14.9872 7.48417 13.7039 8.49133C12.8674 9.14794 12.3316 10.2054 12.3309 11.2712C12.1872 11.3702 11.6374 11.4651 11.4668 11.3506C11.1669 11.1495 11.5433 10.7789 11.6592 10.664C11.5275 10.7021 11.3291 10.9086 11.2466 11.0362C11.1455 11.1926 11.0439 11.4724 11.1716 11.688C11.3577 12.0218 11.8809 12.0005 12.4129 11.8672C13.0157 11.7161 14.1642 11.2156 14.6393 10.8285C14.6495 9.28255 17.83 8.89518 17.1843 10.5317C16.933 11.1687 16.0823 11.9794 15.3087 11.7135C15.2286 11.6859 15.1933 11.6724 15.1598 11.6771C15.1103 11.684 15.0642 11.7308 14.8831 11.8312C14.1462 12.2395 13.3993 12.5156 12.5702 12.6573Z" fill="url(#paint0_linear_135_4695)"/>
<path fill-rule="evenodd" clip-rule="evenodd" d="M7.30347 22.1782C7.93623 22.1782 8.44923 21.6567 8.44923 21.0238V19.926H7.30347V22.1782Z" fill="black"/>
<path fill-rule="evenodd" clip-rule="evenodd" d="M7.30347 19.5138H8.44923V18.3076H7.83322C7.54062 18.3076 7.30347 18.5448 7.30347 18.8374V19.5138Z" fill="black"/>
<path fill-rule="evenodd" clip-rule="evenodd" d="M10.9796 19.8067H10.2758V19.1268H11.0906C11.5648 19.1268 11.8019 18.9944 11.8019 18.7293C11.8019 18.4599 11.5648 18.3252 11.0906 18.3252H9.9721C9.69064 18.3252 9.50543 18.3733 9.41654 18.4695C9.32765 18.5657 9.2832 18.7186 9.2832 18.928V21.5511C9.2832 21.9573 9.44855 22.1603 9.77952 22.1603C10.1103 22.1603 10.2758 21.9573 10.2758 21.5511V20.6019H10.9796C11.4487 20.6019 11.6833 20.4694 11.6833 20.2043C11.6833 19.9393 11.4487 19.8067 10.9796 19.8067Z" fill="black" stroke="#2B2B2A" stroke-width="0.133456" stroke-miterlimit="22.9256"/>
<path fill-rule="evenodd" clip-rule="evenodd" d="M12.0405 20.2236C12.0405 20.5186 12.0912 20.7847 12.1924 21.022C12.2935 21.2593 12.4357 21.4625 12.6184 21.6312C12.801 21.8002 13.0208 21.9306 13.2777 22.0225C13.5344 22.1145 13.8209 22.1604 14.137 22.1604C14.453 22.1604 14.7407 22.1145 15 22.0225C15.2593 21.9306 15.4803 21.8002 15.663 21.6312C15.8457 21.4625 15.9864 21.2593 16.0852 21.022C16.184 20.7847 16.2334 20.5186 16.2334 20.2236C16.2334 19.9286 16.1827 19.6614 16.0815 19.4219C15.9803 19.1825 15.8371 18.9773 15.652 18.8062C15.4667 18.6353 15.2456 18.5039 14.9889 18.4119C14.7321 18.3199 14.4481 18.2739 14.137 18.2739C13.8259 18.2739 13.5418 18.3199 13.2851 18.4119C13.0282 18.5039 12.8073 18.6353 12.6221 18.8062C12.4369 18.9773 12.2935 19.1825 12.1924 19.4219C12.0912 19.6614 12.0405 19.9286 12.0405 20.2236ZM14.137 21.3651C13.8307 21.3651 13.5814 21.2647 13.3888 21.0637C13.1962 20.8628 13.0999 20.587 13.0999 20.2364C13.0999 19.8731 13.1962 19.5877 13.3888 19.3802C13.5814 19.1729 13.8307 19.0692 14.137 19.0692C14.4481 19.0692 14.7 19.1729 14.8926 19.3802C15.0852 19.5877 15.1815 19.8731 15.1815 20.2364C15.1815 20.587 15.0839 20.8628 14.8889 21.0637C14.6938 21.2647 14.4432 21.3651 14.137 21.3651Z" fill="black" stroke="#2B2B2A" stroke-width="0.133456" stroke-miterlimit="22.9256"/>
<path fill-rule="evenodd" clip-rule="evenodd" d="M16.7558 21.022C16.857 21.2593 16.9991 21.4625 17.1818 21.6312C17.3645 21.8002 17.5843 21.9306 17.8411 22.0225C18.0978 22.1145 18.3844 22.1604 18.7005 22.1604C19.0164 22.1604 19.3042 22.1145 19.5634 22.0225C19.8227 21.9306 20.0437 21.8002 20.2264 21.6312C20.4091 21.4625 20.5498 21.2593 20.6487 21.022C20.7474 20.7847 20.7969 20.5186 20.7969 20.2236C20.7969 19.9286 20.7461 19.6614 20.645 19.4219C20.5437 19.1825 20.4006 18.9773 20.2154 18.8062C20.0301 18.6353 19.809 18.5039 19.5523 18.4119C19.2955 18.3199 19.0115 18.2739 18.7005 18.2739C18.3893 18.2739 18.1053 18.3199 17.8485 18.4119C17.5917 18.5039 17.3707 18.6353 17.1855 18.8062C17.0003 18.9773 16.857 19.1825 16.7558 19.4219C16.6546 19.6614 16.604 19.9286 16.604 20.2236C16.604 20.5186 16.6546 20.7847 16.7558 21.022ZM18.7005 21.3651C18.3941 21.3651 18.1448 21.2647 17.9522 21.0637C17.7596 20.8628 17.6633 20.587 17.6633 20.2364C17.6633 19.8731 17.7596 19.5877 17.9522 19.3802C18.1448 19.1729 18.3941 19.0692 18.7005 19.0692C19.0115 19.0692 19.2634 19.1729 19.456 19.3802C19.6486 19.5877 19.7449 19.8731 19.7449 20.2364C19.7449 20.587 19.6474 20.8628 19.4523 21.0637C19.2572 21.2647 19.0066 21.3651 18.7005 21.3651Z" fill="black" stroke="#2B2B2A" stroke-width="0.133456" stroke-miterlimit="22.9256"/>
<path fill-rule="evenodd" clip-rule="evenodd" d="M21.2324 18.928L21.2325 21.5703C21.2325 21.7755 21.278 21.9177 21.3695 21.9967C21.4609 22.076 21.6399 22.1154 21.9066 22.1154H22.8178C23.1485 22.1154 23.4474 22.0696 23.7141 21.9776C23.9808 21.8856 24.2055 21.7563 24.3882 21.5895C24.5708 21.4227 24.7116 21.2198 24.8104 20.9803C24.9092 20.7409 24.9586 20.4737 24.9586 20.1786C24.9586 19.8409 24.8746 19.5309 24.7067 19.2487C24.5388 18.9665 24.3116 18.7463 24.0252 18.5881C23.8573 18.4941 23.6646 18.4268 23.4474 18.3861C23.23 18.3455 22.9881 18.3252 22.7215 18.3252H21.9214C21.6399 18.3252 21.4547 18.3733 21.3658 18.4695C21.2769 18.5657 21.2324 18.7186 21.2324 18.928ZM22.2251 21.3137V19.1268H22.6622C23.4671 19.1268 23.8696 19.4754 23.8696 20.1722C23.8696 20.9332 23.4745 21.3137 22.6844 21.3137H22.2251Z" fill="black" stroke="#2B2B2A" stroke-width="0.133456" stroke-miterlimit="22.9256"/>
<path d="M8.08186 23.039L7.75548 23.5061L8.10921 23.995H7.92616L7.62437 23.5839H7.45503V23.995H7.30347V23.039H7.45503V23.4501H7.62437L7.91387 23.039H8.08186ZM9.16231 23.995H9.00114L8.91921 23.7642H8.43167L8.34973 23.995H8.1954L8.54501 23.039H8.81269L9.16231 23.995ZM8.67611 23.0827L8.48084 23.629H8.87003L8.67611 23.0827ZM9.83849 23.0964H9.84531C9.98007 23.0964 10.0904 23.1357 10.1765 23.2145C10.2625 23.2933 10.3056 23.3941 10.3056 23.517C10.3056 23.6399 10.2625 23.7407 10.1765 23.8195C10.0904 23.8983 9.98007 23.9376 9.84531 23.9376H9.83849V24.0496H9.68827V23.9376H9.68145C9.5467 23.9376 9.43626 23.8983 9.35021 23.8195C9.26423 23.7407 9.2212 23.6399 9.2212 23.517C9.2212 23.3941 9.26423 23.2933 9.35021 23.2145C9.43626 23.1357 9.5467 23.0964 9.68145 23.0964H9.68827V22.9844H9.83849V23.0964ZM9.68145 23.8024H9.68827V23.2316H9.68145C9.5904 23.2316 9.51617 23.258 9.45882 23.3108C9.40148 23.3636 9.37277 23.4323 9.37277 23.517C9.37277 23.6008 9.40148 23.6693 9.45882 23.7226C9.51617 23.7758 9.5904 23.8024 9.68145 23.8024ZM9.83849 23.8024H9.84531C9.93636 23.8024 10.0108 23.7758 10.0686 23.7226C10.1264 23.6693 10.1553 23.6008 10.1553 23.517C10.1553 23.4323 10.1266 23.3636 10.0693 23.3108C10.0119 23.258 9.93724 23.2316 9.84531 23.2316H9.83849V23.8024ZM11.106 23.995H10.4942V23.039H11.106V23.1742H10.6458V23.4501H11.0923V23.5839H10.6458V23.8598H11.106V23.995ZM11.8642 23.995H11.7126V23.039H12.5279V23.995H12.3776V23.1742H11.8642V23.995ZM12.8954 23.995H12.7439V23.039H13.1262C13.2236 23.039 13.3029 23.0677 13.3639 23.125C13.4249 23.1824 13.4554 23.2548 13.4554 23.3422C13.4554 23.4287 13.4249 23.5002 13.3639 23.5566C13.3029 23.613 13.2236 23.6413 13.1262 23.6413H12.8954V23.995ZM12.8954 23.1742V23.5061H13.1262C13.1772 23.5061 13.2188 23.4904 13.2512 23.459C13.2835 23.4275 13.2997 23.3882 13.2997 23.3408C13.2997 23.2926 13.2835 23.2527 13.2512 23.2213C13.2188 23.1899 13.1772 23.1742 13.1262 23.1742H12.8954ZM14.4047 23.995H14.2436L14.1616 23.7642H13.674L13.5921 23.995H13.4378L13.7874 23.039H14.0551L14.4047 23.995ZM13.9185 23.0827L13.7232 23.629H14.1124L13.9185 23.0827ZM15.0303 23.5129C15.105 23.5201 15.1642 23.5448 15.2078 23.5867C15.2516 23.6286 15.2734 23.6813 15.2734 23.7451C15.2734 23.817 15.2475 23.8766 15.1956 23.924C15.1437 23.9713 15.0759 23.995 14.9921 23.995H14.5524V23.039H14.9511C15.034 23.039 15.1016 23.0631 15.1539 23.1114C15.2063 23.1597 15.2324 23.2193 15.2324 23.2903C15.2324 23.3476 15.2145 23.3959 15.1785 23.435C15.1425 23.4742 15.0932 23.5002 15.0303 23.5129ZM14.9388 23.1701H14.6998V23.4528H14.9388C14.9843 23.4528 15.0212 23.4394 15.0495 23.4125C15.0777 23.3857 15.0918 23.3518 15.0918 23.3108C15.0918 23.2698 15.0777 23.2361 15.0495 23.2097C15.0212 23.1833 14.9843 23.1701 14.9388 23.1701ZM14.6998 23.8639H14.9689C15.0144 23.8639 15.0513 23.8504 15.0795 23.8236C15.1077 23.7967 15.1219 23.7628 15.1219 23.7218C15.1219 23.6809 15.1077 23.6472 15.0795 23.6208C15.0513 23.5944 15.0144 23.5812 14.9689 23.5812H14.6998V23.8639ZM15.6219 23.9649L16.0097 23.039H16.3006V23.995H16.1504V23.0691L15.7625 23.995H15.4703V23.039H15.6219V23.9649ZM16.4606 24.0059H16.4497V23.8707H16.4674C16.5111 23.8707 16.5446 23.8621 16.5678 23.8448C16.591 23.8275 16.6087 23.7931 16.621 23.7417C16.6333 23.6902 16.6395 23.6153 16.6395 23.517V23.039H17.3551V23.995H17.2035V23.1742H16.7829V23.517C16.7829 23.6444 16.7704 23.7446 16.7453 23.8174C16.7203 23.8903 16.6853 23.9399 16.6401 23.9663C16.5951 23.9927 16.5352 24.0059 16.4606 24.0059ZM17.9534 23.995H17.571V23.039H17.7227V23.3927H17.9534C18.0509 23.3927 18.1301 23.4209 18.1911 23.4774C18.2521 23.5339 18.2826 23.6053 18.2826 23.6918C18.2826 23.7792 18.2521 23.8516 18.1911 23.9089C18.1301 23.9663 18.0509 23.995 17.9534 23.995ZM17.7227 23.5279V23.8598H17.9534C18.0045 23.8598 18.0461 23.8441 18.0784 23.8127C18.1107 23.7813 18.1269 23.7414 18.1269 23.6932C18.1269 23.6458 18.1107 23.6065 18.0784 23.5751C18.0461 23.5436 18.0045 23.5279 17.9534 23.5279H17.7227ZM18.6091 23.995H18.4576V23.039H18.6091V23.4501H19.1227V23.039H19.2729V23.995H19.1227V23.5839H18.6091V23.995ZM19.6056 23.8666C19.5096 23.7719 19.4616 23.6554 19.4616 23.517C19.4616 23.3786 19.5096 23.2621 19.6056 23.1674C19.7017 23.0727 19.8202 23.0254 19.9614 23.0254C20.1016 23.0254 20.2197 23.0727 20.3157 23.1674C20.4118 23.2621 20.4599 23.3786 20.4599 23.517C20.4599 23.6554 20.4118 23.7719 20.3157 23.8666C20.2197 23.9613 20.1016 24.0086 19.9614 24.0086C19.8202 24.0086 19.7017 23.9613 19.6056 23.8666ZM19.7162 23.2664C19.6502 23.3343 19.6172 23.4177 19.6172 23.517C19.6172 23.6163 19.6502 23.6997 19.7162 23.7676C19.7823 23.8354 19.864 23.8694 19.9614 23.8694C20.0588 23.8694 20.1402 23.8354 20.2058 23.7676C20.2714 23.6997 20.3042 23.6163 20.3042 23.517C20.3042 23.4177 20.2714 23.3343 20.2058 23.2664C20.1402 23.1986 20.0588 23.1647 19.9614 23.1647C19.864 23.1647 19.7823 23.1986 19.7162 23.2664ZM21.233 22.925C21.1875 22.9636 21.131 22.983 21.0637 22.983C20.9962 22.983 20.9398 22.9636 20.8943 22.925C20.8488 22.8863 20.8242 22.8332 20.8206 22.7659H20.9475C20.9503 22.8032 20.9619 22.8319 20.9824 22.8519C21.0029 22.872 21.0299 22.882 21.0637 22.882C21.0973 22.882 21.1244 22.872 21.1449 22.8519C21.1654 22.8319 21.177 22.8032 21.1797 22.7659H21.3067C21.3031 22.8332 21.2785 22.8863 21.233 22.925ZM20.8 23.9649L21.1879 23.039H21.4788V23.995H21.3286V23.0691L20.9407 23.995H20.6485V23.039H20.8V23.9649ZM22.7163 23.995H22.1045V23.039H22.7163V23.1742H22.2561V23.4501H22.7026V23.5839H22.2561V23.8598H22.7163V23.995ZM23.7476 23.039V23.8598H23.8623V24.2135H23.7121V23.995H22.9965V24.2135H22.8462V23.8598H22.9446C22.9828 23.807 23.0092 23.7467 23.0237 23.6788C23.0383 23.611 23.0456 23.5116 23.0456 23.3805V23.039H23.7476ZM23.1043 23.8598H23.596V23.1742H23.189V23.3805C23.189 23.5079 23.1829 23.6073 23.1706 23.6788C23.1583 23.7503 23.1362 23.8106 23.1043 23.8598ZM24.3869 23.995H24.0182V23.039H24.1698V23.3927H24.3869C24.4843 23.3927 24.5635 23.4209 24.6246 23.4774C24.6855 23.5339 24.716 23.6053 24.716 23.6918C24.716 23.7792 24.6855 23.8516 24.6246 23.9089C24.5635 23.9663 24.4843 23.995 24.3869 23.995ZM24.9468 23.995H24.7966V23.039H24.9468V23.995ZM24.1698 23.5279V23.8598H24.3869C24.4379 23.8598 24.4795 23.8441 24.5119 23.8127C24.5442 23.7813 24.5603 23.7414 24.5603 23.6932C24.5603 23.6458 24.5442 23.6065 24.5119 23.5751C24.4795 23.5436 24.4379 23.5279 24.3869 23.5279H24.1698Z" fill="black"/>
<defs>
<linearGradient id="paint0_linear_135_4695" x1="12.2982" y1="15.5507" x2="19.5145" y2="9.33591" gradientUnits="userSpaceOnUse">
<stop stop-color="#F07F1B"/>
<stop offset="1" stop-color="#FFBF00"/>
</linearGradient>
</defs>
</svg>
