<svg width="33" height="38" viewBox="0 0 33 38" fill="none" xmlns="http://www.w3.org/2000/svg">
<path d="M4 0C1.79086 0 0 1.79086 0 4V28C0 30.2091 1.79086 32 4 32H9.22376C11.4539 32 13.5 33.2369 14.5365 35.2116L16 38L17.4636 35.2116C18.5 33.2369 20.5461 32 22.7762 32H28C30.2091 32 32 30.2091 32 28V4C32 1.79086 30.2091 0 28 0H4Z" fill="white"/>
<rect x="0.482666" width="32" height="32" rx="4" fill="white"/>
<path d="M7.96048 22.5502V20.8407H8.07704C8.24216 20.8407 8.30758 20.9413 8.33441 21.3739L8.36377 21.8057C8.39313 22.2383 8.41743 22.4052 8.46435 22.5502H8.92051L8.928 22.5016C8.84922 22.4228 8.81482 22.2626 8.77539 21.8082L8.73603 21.3564C8.6966 20.9044 8.59688 20.8088 8.35621 20.7627V20.7233C8.58429 20.6848 8.6648 20.5766 8.70416 20.1926L8.74359 19.8094C8.78294 19.4254 8.82237 19.2385 8.89367 19.1597L8.88612 19.1111H8.44428C8.40068 19.2486 8.3688 19.418 8.33944 19.8094L8.31009 20.1976C8.28325 20.5884 8.23468 20.6646 8.07704 20.6646H7.96048V19.1111H7.54468V22.5502H7.96048ZM9.69024 22.551V21.2825H9.90148C10.3475 21.2825 10.5613 21.0545 10.5613 20.5925V19.8112C10.5613 19.3416 10.35 19.1111 9.90148 19.1111H9.27436V22.551H9.69024ZM9.69024 19.2805H9.86213C10.0633 19.2805 10.1488 19.3961 10.1488 19.6762V20.725C10.1488 21 10.0633 21.1132 9.86213 21.1132H9.69024V19.2805ZM12.0052 22.551V22.3699H11.3688V20.8005H11.9138V20.6294H11.3688V19.2913H11.9758V19.1102H10.953V22.551H12.0052ZM13.0876 22.5502C13.5034 22.5502 13.6954 22.354 13.6954 21.9172V21.3555C13.6954 20.9724 13.5605 20.8113 13.2218 20.772V20.7284C13.5135 20.6915 13.6501 20.5322 13.6501 20.2094V19.7139C13.6501 19.2905 13.475 19.1111 13.0616 19.1111H12.3833V22.5502H13.0876ZM12.7992 19.2855H12.9635C13.1748 19.2855 13.2477 19.387 13.2477 19.6501V20.3125C13.2477 20.5691 13.1697 20.6697 12.9585 20.6697H12.7992V19.2855ZM12.7992 20.8357H12.9761C13.1832 20.8357 13.2729 20.9363 13.2729 21.2356V21.9885C13.2729 22.2652 13.1874 22.3758 12.9803 22.3758H12.7992V20.8357ZM15.1527 22.551V22.3699H14.5164V20.8005H15.0613V20.6294H14.5164V19.2913H15.1233V19.1102H14.1005V22.551H15.1527ZM16.2855 22.551V19.2913H16.7424V19.1102H15.4127V19.2913H15.8696V22.551H16.2855ZM17.6773 22.5904C18.1477 22.5904 18.3824 22.318 18.3824 21.7755V19.8858C18.3824 19.3433 18.1477 19.0708 17.6773 19.0708C17.2087 19.0708 16.9739 19.3433 16.9739 19.8858V21.7755C16.9739 22.318 17.2087 22.5904 17.6773 22.5904ZM17.679 22.4312C17.4845 22.4312 17.3914 22.2811 17.3914 21.9524V19.7164C17.3914 19.3802 17.4845 19.2301 17.679 19.2301C17.8743 19.2301 17.9649 19.3802 17.9649 19.7164V21.9524C17.9649 22.2811 17.8743 22.4312 17.679 22.4312ZM20.0694 22.551V19.1102H19.6535V20.7762C19.5839 20.8013 19.5177 20.8155 19.4389 20.8155C19.2612 20.8155 19.1891 20.7468 19.1891 20.5506V19.1102H18.7732V20.4794C18.7732 20.8499 18.9501 20.9967 19.2981 20.9967C19.4364 20.9967 19.5647 20.9724 19.6535 20.943V22.551H20.0694ZM20.9465 22.551V20.7946H21.4512V22.551H21.8671V19.1102H21.4512V20.6152H20.9465V19.1102H20.5306V22.551H20.9465ZM22.4112 22.551L22.5101 21.8258H23.0601L23.1507 22.551H23.5783L23.1088 19.1111H22.6694L22.205 22.551H22.4112ZM22.6745 20.5053C22.7164 20.1851 22.7433 19.9294 22.7676 19.6024H22.8195C22.8413 19.9294 22.8657 20.1851 22.9026 20.5053L23.0401 21.6615H22.5294L22.6745 20.5053ZM24.26 22.551C24.3061 22.4035 24.3313 22.2291 24.3606 21.8242L24.39 21.4167C24.4167 21.0142 24.4881 20.9506 24.6666 20.9506H24.784V22.551H25.1999V19.1102H24.5635C24.1242 19.1102 23.9078 19.3324 23.9078 19.8053V20.2563C23.9078 20.6378 24.0655 20.808 24.3715 20.8474V20.8843C24.1174 20.9337 24.0169 21.0142 23.9825 21.4218L23.9456 21.8317C23.9112 22.2392 23.8693 22.4186 23.7955 22.5016L23.8056 22.551H24.26ZM24.6322 20.7762C24.4227 20.7762 24.3304 20.6705 24.3304 20.3846V19.682C24.3304 19.3894 24.4226 19.2813 24.6331 19.2813H24.784V20.7762H24.6322Z" fill="black"/>
<path d="M20.6657 8.66841H20.855V8.66914H20.8658V8.87088H20.8665C20.8665 9.77134 20.6112 10.6121 20.1691 11.325L20.7768 11.3203L20.7604 11.5251L20.4733 15.117L18.4337 15.142L18.2447 13.0644C17.7156 13.3224 17.1306 13.4832 16.5126 13.5236L19.3607 16.3748L19.4966 16.5171C19.2255 16.8146 18.5278 17.3767 17.84 17.6591C17.2932 17.8835 16.6957 18.0072 16.0705 18.0072C14.7829 18.0072 13.6172 17.4853 12.7734 16.6416C11.9296 15.7977 11.4077 14.6321 11.4077 13.3444C11.4077 12.0569 11.9296 10.8912 12.7734 10.0473C13.5757 9.24509 14.669 8.73389 15.8813 8.68546V8.68165H16.0662H16.0705C17.1123 8.68165 17.8254 8.67849 18.5155 8.67547C19.3243 8.67187 20.1085 8.66841 20.6657 8.66841ZM15.898 8.11426C15.897 6.4453 17.691 6.38889 17.671 8.11433C17.7732 8.11505 17.8599 8.11425 17.9285 8.10993C17.9984 8.10555 18.0442 8.08195 18.0694 8.0495L18.0689 8.04914C18.08 8.03461 18.0881 8.01791 18.0931 8.00007C18.0987 7.98021 18.1007 7.9587 18.0994 7.93704C18.0961 7.88402 18.0727 7.83279 18.0317 7.80127L17.8816 7.68673L18.1107 7.3867L18.2608 7.50124C18.3921 7.60211 18.4665 7.75782 18.4763 7.91481C18.4803 7.97755 18.4739 8.04115 18.4567 8.10209C18.439 8.16505 18.4099 8.22499 18.3689 8.2783H18.3682C18.2801 8.39292 18.142 8.47494 17.9506 8.48689C17.8351 8.49408 17.6674 8.49178 17.4617 8.48897C17.0077 8.48264 16.5255 8.48214 16.0715 8.48897C15.883 8.49185 15.733 8.49408 15.6178 8.48689C15.4263 8.47465 15.2882 8.39277 15.2003 8.2783C15.1593 8.22499 15.1302 8.16505 15.1125 8.10209C15.0954 8.04122 15.089 7.97762 15.0928 7.91488C15.1026 7.75839 15.177 7.6029 15.3084 7.50196L15.4577 7.38741L15.6869 7.68601L15.5376 7.80055C15.4966 7.83199 15.4732 7.88359 15.4698 7.93704C15.4685 7.9587 15.4705 7.98021 15.4761 8.00007C15.4811 8.01791 15.4892 8.03461 15.5003 8.04914C15.5254 8.08181 15.5711 8.10562 15.6407 8.10993H15.6415C15.7134 8.11447 15.7985 8.11512 15.898 8.11426ZM17.2935 8.10979C17.3164 6.91103 16.2687 6.95924 16.2754 8.10929C16.6101 8.10598 16.9591 8.10612 17.2935 8.10979ZM18.5415 12.1661H20.3299L20.3672 11.7004L18.5004 11.7149L18.5415 12.1661ZM20.2997 12.5445H18.5759L18.7776 14.7608L20.1238 14.7443L20.2997 12.5445ZM19.7135 11.3286C20.1701 10.6776 20.4503 9.89394 20.4845 9.04687C19.6901 9.04716 19.1123 9.04975 18.517 9.05234C17.7372 9.05579 16.9344 9.05939 16.2597 9.05996V13.1549C16.9629 13.1459 17.6252 12.9674 18.2077 12.6586L18.0878 11.3412L19.7135 11.3286ZM17.3845 9.72651C17.1872 9.72651 17.0273 9.88645 17.0273 10.0837C17.0273 10.2811 17.1872 10.441 17.3845 10.441C17.5818 10.441 17.7418 10.2811 17.7418 10.0837C17.7418 9.88645 17.5818 9.72651 17.3845 9.72651ZM15.8813 13.8012L13.1777 16.5049C13.8965 17.1632 14.8408 17.5794 15.8813 17.6247V13.8012ZM12.9102 16.2373L15.6138 13.5337H11.7903C11.8355 14.5742 12.2518 15.5184 12.9102 16.2373ZM11.7903 13.1552H15.6114L12.9105 10.4513C12.2519 11.1703 11.8355 12.1146 11.7903 13.1552ZM16.2597 13.8043V17.6248C16.7673 17.6028 17.2513 17.493 17.6966 17.3103C18.1651 17.1179 18.5922 16.8447 18.9605 16.508L16.2597 13.8043ZM13.1772 10.1845L15.8813 12.8915V9.06421C14.8406 9.10947 13.8962 9.52592 13.1772 10.1845Z" fill="black"/>
<path fill-rule="evenodd" clip-rule="evenodd" d="M11.3975 25.1131C11.5493 25.1131 11.666 25.0585 11.7463 24.9499C11.8258 24.8397 11.8659 24.6888 11.8659 24.4977C11.8659 24.46 11.8668 24.3126 11.8676 24.0553C11.8689 23.7992 11.8697 23.6284 11.8697 23.5448C11.8697 23.515 11.8577 23.4995 11.8329 23.4995H11.7206C11.6958 23.4995 11.6838 23.5124 11.6838 23.5378V23.6302C11.6838 23.7135 11.6753 23.8024 11.6589 23.896C11.642 23.9901 11.6177 24.0801 11.5879 24.165C11.5569 24.2509 11.5175 24.322 11.4695 24.3775C11.4215 24.4342 11.3692 24.4626 11.3133 24.4626C11.237 24.4626 11.1874 24.4009 11.1874 24.2953C11.1874 24.2509 11.1949 24.1684 11.2096 24.0486C11.2242 23.9284 11.2312 23.8299 11.2312 23.7527C11.2312 23.6492 11.2037 23.5662 11.1499 23.5056C11.095 23.4448 11.0189 23.415 10.9204 23.415C10.8152 23.415 10.7303 23.4483 10.6651 23.515C10.5991 23.5814 10.5667 23.6647 10.5667 23.7641C10.5667 23.8521 10.5906 23.9284 10.6377 23.9927C10.6847 24.057 10.7251 24.0889 10.7575 24.0889C10.7654 24.0889 10.7806 24.0708 10.804 24.0339C10.8271 23.9971 10.8383 23.9732 10.8383 23.9621C10.8383 23.9559 10.8356 23.9509 10.8295 23.9465C10.7687 23.8986 10.738 23.8369 10.738 23.7623C10.738 23.7109 10.7534 23.667 10.7833 23.6302C10.8134 23.5943 10.8543 23.5764 10.9067 23.5764C10.9991 23.5764 11.0453 23.6364 11.0453 23.7554C11.0453 23.824 11.0385 23.919 11.0239 24.0416C11.0093 24.1643 11.0014 24.2567 11.0014 24.3202C11.0014 24.412 11.0263 24.4848 11.0768 24.5403C11.1265 24.5962 11.1958 24.6234 11.285 24.6234C11.3903 24.6234 11.4785 24.5842 11.5481 24.5052C11.6174 24.4263 11.6671 24.3356 11.6963 24.2328H11.7016V24.4977C11.7025 24.6357 11.6776 24.7459 11.6262 24.8278C11.5747 24.9096 11.5002 24.9499 11.4031 24.9499C11.3423 24.9508 11.2815 24.9318 11.2224 24.8941C11.2034 24.8821 11.1914 24.876 11.1856 24.876C11.1736 24.876 11.1564 24.8915 11.1333 24.9225C11.1102 24.9535 11.099 24.9766 11.099 24.9917C11.099 25.0046 11.111 25.021 11.135 25.0389C11.1589 25.0567 11.1949 25.0731 11.2438 25.0891C11.2929 25.1052 11.3435 25.1131 11.3975 25.1131ZM21.194 25.0991C21.2197 25.0991 21.2326 25.0853 21.2326 25.0569V24.562C21.2326 24.474 21.2428 24.3892 21.2624 24.3076C21.2823 24.2263 21.3148 24.1571 21.3604 24.0986C21.4057 24.0404 21.458 24.0114 21.5174 24.0114C21.5712 24.0114 21.6133 24.0311 21.6434 24.0705C21.6735 24.11 21.6887 24.162 21.6887 24.2263C21.6887 24.3091 21.6682 24.3766 21.6262 24.429C21.5841 24.4813 21.5303 24.5079 21.4641 24.5079C21.4376 24.5079 21.4092 24.5021 21.3791 24.49C21.3493 24.479 21.3338 24.4728 21.3329 24.4728C21.3244 24.4728 21.313 24.4883 21.2986 24.5199C21.284 24.5514 21.2762 24.5737 21.2762 24.5865C21.2762 24.6026 21.3156 24.6222 21.3954 24.6444C21.4615 24.6605 21.5302 24.6693 21.6013 24.6693C21.8978 24.6693 22.0974 24.5549 22.1728 24.3451C22.1761 24.3339 22.1779 24.3261 22.1779 24.322C22.1779 24.3149 22.1632 24.3038 22.1343 24.2883C22.1041 24.2728 22.0855 24.2652 22.0761 24.2652C22.0682 24.2661 22.0633 24.2714 22.0597 24.2816C22.0331 24.3485 21.991 24.405 21.9355 24.4523C21.8791 24.4994 21.8098 24.5275 21.7288 24.5377L21.7255 24.531C21.7697 24.5064 21.8065 24.4661 21.8363 24.4094C21.8653 24.3535 21.8799 24.2892 21.8799 24.2181C21.8799 24.1161 21.8507 24.0293 21.7928 23.9568C21.734 23.8843 21.6545 23.8483 21.5542 23.8483C21.4176 23.8483 21.3089 23.9287 21.2273 24.0904L21.2197 24.0886C21.2215 24.0758 21.2229 24.0541 21.2247 24.0252C21.2282 23.967 21.2326 23.9208 21.2326 23.9097C21.2326 23.8834 21.2206 23.8696 21.1958 23.8696H21.0923C21.0639 23.8696 21.0502 23.8869 21.0502 23.9199V24.2879C21.0261 24.3446 20.9967 24.3946 20.961 24.4386C20.9224 24.4848 20.8803 24.5079 20.835 24.5079C20.7666 24.5079 20.7297 24.4436 20.7297 24.3518C20.7297 24.2971 20.733 24.2102 20.7399 24.0909C20.7472 23.9719 20.7508 23.9124 20.7508 23.9097C20.7508 23.8834 20.7388 23.8696 20.7139 23.8696H20.6034C20.5803 23.8696 20.5684 23.8825 20.5684 23.9083V23.9398L20.5616 23.943C20.4914 23.8799 20.4081 23.8483 20.3122 23.8483C20.2031 23.8483 20.1143 23.8883 20.0433 23.9688C19.9719 24.0501 19.9368 24.1512 19.9368 24.2728C19.9368 24.3913 19.9678 24.4875 20.0304 24.5599C20.0917 24.6324 20.1716 24.6693 20.2701 24.6693C20.3447 24.6693 20.4081 24.6497 20.4604 24.6111C20.5113 24.5728 20.549 24.5252 20.5722 24.4693L20.5788 24.471V24.4977C20.5788 24.5497 20.5987 24.5915 20.6371 24.6222C20.6756 24.6538 20.7262 24.6693 20.7888 24.6693C20.8923 24.6693 20.9867 24.619 21.0467 24.5474L21.0502 24.5431V25.0535C21.0502 25.0836 21.0639 25.0991 21.0905 25.0991H21.194ZM20.307 24.5079C20.2546 24.5079 20.211 24.4875 20.1777 24.4453C20.1432 24.4041 20.1263 24.3495 20.1263 24.2816C20.1263 24.2017 20.1494 24.1374 20.1947 24.0869C20.2403 24.0363 20.2985 24.0114 20.3686 24.0114C20.4432 24.0114 20.5093 24.0413 20.5668 24.1006C20.5668 24.1804 20.5461 24.2737 20.5057 24.3597C20.4657 24.4453 20.3935 24.5079 20.307 24.5079ZM19.4152 24.6693C19.5438 24.6693 19.6456 24.6266 19.7201 24.5415C19.7947 24.4559 19.8324 24.3497 19.8324 24.222C19.8324 24.1456 19.8187 24.0763 19.7912 24.0138C19.7637 23.9512 19.7304 23.9015 19.6903 23.8647C19.65 23.8278 19.6056 23.7951 19.5573 23.7649C19.5094 23.7351 19.4658 23.712 19.4254 23.6957C19.3448 23.6626 19.2813 23.6308 19.2813 23.6028C19.2822 23.5779 19.2977 23.5658 19.3293 23.5658C19.355 23.5658 19.4118 23.5682 19.5 23.5743C19.5875 23.5799 19.6526 23.5834 19.6962 23.5834C19.7167 23.5825 19.7269 23.5524 19.7269 23.4937C19.7278 23.4416 19.7175 23.415 19.698 23.415H19.2728C19.1521 23.415 19.0749 23.4776 19.0749 23.5866C19.0749 23.6913 19.1793 23.7472 19.2986 23.7995C19.3789 23.8354 19.4658 23.8825 19.5325 23.941C19.5994 24.0001 19.6447 24.0977 19.6447 24.2184C19.6447 24.3067 19.626 24.3787 19.5883 24.4345C19.5497 24.4903 19.4947 24.5184 19.422 24.5184C19.3629 24.5184 19.3123 24.4962 19.2722 24.4509C19.2319 24.4061 19.2114 24.3479 19.2114 24.2769C19.2114 24.2091 19.2275 24.1532 19.2612 24.1096C19.2936 24.0658 19.3371 24.0445 19.3921 24.0445C19.4187 24.0445 19.4462 24.0521 19.4485 24.0521C19.4582 24.0521 19.4658 24.0342 19.4734 23.9974C19.4805 23.9614 19.4836 23.9314 19.4836 23.9083C19.4836 23.8887 19.429 23.8749 19.3535 23.8749C19.2533 23.8749 19.1729 23.9135 19.112 23.9898C19.0512 24.0658 19.0202 24.1576 19.0202 24.264C19.0202 24.3822 19.057 24.4792 19.1299 24.5552C19.2027 24.631 19.298 24.6693 19.4152 24.6693ZM17.932 23.6872C17.9776 23.6372 17.9999 23.5814 17.9999 23.5223C17.9999 23.513 17.9843 23.5042 17.9545 23.4957C17.9235 23.4881 17.9022 23.4837 17.8911 23.4837C17.8817 23.4846 17.8765 23.4907 17.8738 23.5018C17.856 23.5933 17.8174 23.6395 17.7566 23.6395C17.7318 23.6395 17.711 23.632 17.6949 23.6164C17.6613 23.5866 17.6519 23.5556 17.6426 23.5018C17.6399 23.4899 17.6338 23.4837 17.6262 23.4837C17.6134 23.4837 17.592 23.4881 17.5601 23.4957C17.5285 23.5042 17.5125 23.513 17.5125 23.5223C17.5125 23.5858 17.5339 23.6422 17.5774 23.6908C17.6212 23.7392 17.6794 23.7641 17.7531 23.7641C17.8268 23.7641 17.8867 23.7384 17.932 23.6872ZM17.6443 24.6693C17.7206 24.6693 17.7847 24.6453 17.8379 24.5967C17.8914 24.548 17.9309 24.4909 17.9566 24.424L17.9633 24.4257C17.9633 24.4275 17.9615 24.4687 17.9615 24.4763C17.9615 24.5336 17.982 24.5804 18.0221 24.6155C18.0621 24.6511 18.1159 24.6693 18.1835 24.6693C18.277 24.6693 18.3565 24.636 18.4227 24.5693C18.4884 24.5038 18.5349 24.4275 18.5612 24.3418C18.5638 24.3339 18.5648 24.3281 18.5648 24.322C18.5648 24.3152 18.5501 24.3041 18.522 24.2886C18.4928 24.2731 18.4741 24.2655 18.4645 24.2655C18.4586 24.2664 18.4542 24.2705 18.4507 24.2784C18.4285 24.3339 18.3978 24.3863 18.3583 24.4351C18.318 24.4839 18.2752 24.5079 18.2282 24.5079C18.1554 24.5079 18.1195 24.4421 18.1195 24.3485C18.1195 24.286 18.1218 24.2003 18.127 24.0916C18.1326 23.9825 18.1352 23.9226 18.1352 23.9114C18.1352 23.8831 18.1215 23.8693 18.0948 23.8693H17.9843C17.9586 23.8693 17.9458 23.8831 17.9458 23.9114V23.9723C17.9458 24.0614 17.9347 24.1471 17.9115 24.2296C17.8885 24.3126 17.8575 24.3795 17.8191 24.431C17.7797 24.4821 17.7376 24.5079 17.6931 24.5079C17.6084 24.5079 17.5756 24.4532 17.5756 24.3339C17.5756 24.2945 17.5765 24.2225 17.5791 24.1178C17.5818 24.0144 17.5826 23.9448 17.5826 23.9097C17.5826 23.8831 17.5698 23.8693 17.5441 23.8693H17.4336C17.4078 23.8693 17.3949 23.8831 17.3949 23.9114V24.2895C17.371 24.344 17.3417 24.3936 17.3063 24.4377C17.2678 24.4848 17.225 24.5079 17.1771 24.5079C17.1026 24.5079 17.0795 24.4447 17.0795 24.3307V23.9401C17.0795 23.9255 17.0596 23.91 17.0204 23.8939C16.98 23.8775 16.9503 23.87 16.9307 23.87C16.9195 23.87 16.9067 23.8758 16.8921 23.8869C16.7526 24.0045 16.5781 24.079 16.367 24.1114C16.3559 24.1123 16.3497 24.1217 16.3497 24.1398C16.3497 24.1679 16.3541 24.1945 16.362 24.2211C16.3696 24.2476 16.3781 24.2605 16.3886 24.2605C16.3909 24.2605 16.4272 24.2571 16.4538 24.2571C16.5301 24.2571 16.5883 24.2983 16.5883 24.3804C16.5883 24.4193 16.5745 24.4518 16.5473 24.4793C16.5199 24.5065 16.4836 24.5202 16.4392 24.5202C16.3403 24.5202 16.2813 24.4441 16.2813 24.3275V23.9088C16.2813 23.8831 16.2693 23.8702 16.2444 23.8702H16.1339C16.1108 23.8702 16.0989 23.8831 16.0989 23.9088V24.2915C16.0751 24.345 16.0462 24.3937 16.0115 24.4374C15.9728 24.4848 15.9302 24.5079 15.8822 24.5079C15.8068 24.5079 15.7837 24.4444 15.7837 24.3301V23.9085C15.7837 23.8828 15.7717 23.87 15.7468 23.87H15.6381C15.6132 23.87 15.6013 23.8837 15.6013 23.9117V24.1781H15.2954C15.2679 24.1781 15.2475 24.1868 15.2346 24.203V23.9117C15.2346 23.8837 15.2226 23.87 15.1978 23.87H15.0873C15.0642 23.87 15.0522 23.8843 15.0522 23.9135V24.2866C15.0317 24.3392 15.0019 24.3887 14.9639 24.4351C14.9235 24.4839 14.88 24.5079 14.8344 24.5079C14.7668 24.5079 14.7335 24.4541 14.7335 24.3743C14.7335 24.3305 14.7349 24.2722 14.7393 24.2C14.744 24.1287 14.7458 24.0869 14.7458 24.0755C14.7458 24.0053 14.7241 23.9501 14.6823 23.9091C14.6394 23.8688 14.582 23.8483 14.511 23.8483C14.4294 23.8483 14.3627 23.8723 14.3096 23.9193C14.2563 23.9661 14.2169 24.0243 14.1911 24.0936L14.1862 24.0919L14.188 24.0515C14.188 23.9942 14.1698 23.9457 14.1329 23.9065C14.0961 23.8679 14.0482 23.8483 13.9874 23.8483C13.8523 23.8483 13.7485 23.9287 13.6757 24.0883L13.668 24.0869C13.6765 23.9719 13.6809 23.9141 13.6809 23.9114C13.6809 23.8834 13.669 23.8696 13.6441 23.8696H13.5371C13.5113 23.8696 13.4985 23.8843 13.4985 23.9132V24.6079C13.4985 24.6362 13.5113 24.65 13.5371 24.65H13.6459C13.669 24.65 13.6809 24.6362 13.6809 24.6096V24.5272C13.6809 24.4631 13.6903 24.3918 13.7081 24.3155C13.7263 24.2392 13.7555 24.1691 13.7973 24.1056C13.8394 24.043 13.8856 24.0114 13.9371 24.0114C14.0043 24.0114 14.0379 24.0603 14.0379 24.1588C14.0379 24.2272 14.0371 24.3105 14.0344 24.4082C14.0318 24.5067 14.03 24.5728 14.03 24.6079C14.03 24.6362 14.042 24.65 14.0669 24.65H14.1721C14.1988 24.65 14.2125 24.6327 14.2125 24.5994C14.2125 24.4322 14.2356 24.2915 14.2826 24.1793C14.3297 24.067 14.3862 24.0114 14.4528 24.0114C14.5204 24.0106 14.5546 24.0568 14.5546 24.1494C14.5546 24.1793 14.5531 24.2249 14.5496 24.2866C14.5458 24.3495 14.544 24.3974 14.544 24.4307C14.544 24.5011 14.5689 24.5582 14.6174 24.6026C14.6659 24.647 14.7247 24.6693 14.7926 24.6693C14.8823 24.6693 14.9603 24.6368 15.0256 24.5719C15.0348 24.5627 15.0437 24.5532 15.0522 24.5435V24.6079C15.0522 24.6362 15.0633 24.65 15.0855 24.65H15.1978C15.2226 24.65 15.2346 24.6362 15.2346 24.6079V24.3933C15.2346 24.3573 15.2516 24.3395 15.2866 24.3395H15.6013V24.3918C15.6004 24.5772 15.6808 24.6693 15.8427 24.6693C15.9343 24.6693 16.0123 24.636 16.0775 24.5684C16.0969 24.5487 16.1145 24.528 16.1305 24.5064C16.145 24.5354 16.1645 24.5613 16.1889 24.5842C16.248 24.6412 16.3266 24.6693 16.4237 24.6693C16.5302 24.6693 16.614 24.6421 16.6757 24.5865C16.7362 24.5321 16.7672 24.4638 16.7672 24.3807C16.7672 24.3354 16.7561 24.2942 16.733 24.2591C16.7099 24.224 16.6781 24.2017 16.6397 24.1921V24.1871C16.7243 24.1655 16.8108 24.1237 16.8988 24.0611V24.3927C16.8979 24.5772 16.9783 24.6693 17.1403 24.6693C17.2301 24.6693 17.3081 24.636 17.3733 24.5687C17.389 24.5526 17.4036 24.536 17.4172 24.5188C17.4524 24.6158 17.529 24.6693 17.6443 24.6693ZM12.9442 23.8483C12.838 23.8483 12.7489 23.8784 12.6769 23.9392C12.6051 24.0001 12.5603 24.0796 12.5425 24.1781H12.3755C12.3481 24.1781 12.3275 24.1868 12.3147 24.203V23.9117C12.3147 23.8834 12.3027 23.87 12.2779 23.87H12.1673C12.1443 23.87 12.1323 23.8843 12.1323 23.9135V24.6079C12.1323 24.6362 12.1434 24.65 12.1656 24.65H12.2779C12.3027 24.65 12.3147 24.6362 12.3147 24.6079V24.3933C12.3147 24.3573 12.3317 24.3395 12.3668 24.3395H12.5407C12.5553 24.4398 12.5963 24.5205 12.6641 24.5795C12.7319 24.6395 12.8176 24.6693 12.9229 24.6693C13.0555 24.6693 13.1585 24.6275 13.2322 24.545C13.3059 24.4617 13.3427 24.3635 13.3427 24.2497C13.3427 24.1345 13.3059 24.0383 13.2322 23.9624C13.1582 23.886 13.0623 23.8483 12.9442 23.8483ZM12.9339 24.5202C12.8696 24.5202 12.8164 24.4962 12.7764 24.448C12.7351 24.3997 12.7146 24.3377 12.7146 24.2617C12.7146 24.1909 12.736 24.1293 12.7781 24.0769C12.8199 24.0249 12.8749 23.9992 12.9424 23.9992C13.0085 23.9992 13.0599 24.0223 13.0968 24.0684C13.1336 24.1147 13.1515 24.174 13.1515 24.2465C13.1515 24.324 13.1319 24.3895 13.0933 24.4418C13.0538 24.4944 13.0006 24.5202 12.9339 24.5202Z" fill="black"/>
</svg>
