<svg width="33" height="38" viewBox="0 0 33 38" fill="none" xmlns="http://www.w3.org/2000/svg">
<path d="M5 0C2.79086 0 1 1.79086 1 4V28C1 30.2091 2.79086 32 5 32H10.2238C12.4539 32 14.5 33.2369 15.5365 35.2116L17 38L18.4636 35.2116C19.5 33.2369 21.5461 32 23.7762 32H29C31.2091 32 33 30.2091 33 28V4C33 1.79086 31.2091 0 29 0H5Z" fill="white"/>
<rect x="0.827637" width="32" height="32" rx="4" fill="white"/>
<path d="M16.3631 11.4763C16.283 11.4474 16.2213 11.4042 16.1784 11.3459C16.1354 11.2876 16.1174 11.2179 16.1246 11.1369C16.1297 11.0778 16.1449 11.0297 16.1703 10.9926C16.1954 10.9554 16.2292 10.9174 16.2714 10.8787C16.3046 10.8466 16.3293 10.8197 16.3456 10.7975C16.3619 10.7757 16.3714 10.7495 16.3741 10.7191C16.3778 10.6768 16.3671 10.6394 16.3422 10.6065C16.3172 10.5736 16.2803 10.547 16.2314 10.5268L16.3185 10.3723C16.3988 10.3993 16.4601 10.4424 16.502 10.5014C16.5442 10.5604 16.5616 10.6306 16.5545 10.7116C16.5496 10.769 16.5346 10.8163 16.5106 10.8534C16.486 10.8906 16.4528 10.9295 16.4103 10.97C16.3773 11.0005 16.3526 11.027 16.3362 11.0499C16.3198 11.0725 16.3102 11.0993 16.3076 11.1296C16.3039 11.1719 16.3145 11.2093 16.3395 11.2422C16.3644 11.2751 16.4015 11.3018 16.4503 11.3221L16.3631 11.4764V11.4763Z" fill="black"/>
<path d="M16.9251 11.4763C16.845 11.4474 16.7837 11.4042 16.7416 11.3459C16.6995 11.2876 16.682 11.2179 16.689 11.1369C16.6941 11.0795 16.7088 11.0323 16.7331 10.995C16.7575 10.958 16.7909 10.9191 16.8332 10.8785C16.8663 10.8482 16.8911 10.8215 16.9074 10.7988C16.9237 10.776 16.9334 10.7495 16.9359 10.7191C16.9396 10.6768 16.929 10.6394 16.904 10.6065C16.879 10.5736 16.8422 10.547 16.7932 10.5268L16.8803 10.3723C16.9606 10.3993 17.0223 10.4424 17.0651 10.5014C17.1081 10.5604 17.126 10.6306 17.1189 10.7116C17.1137 10.7706 17.0984 10.8188 17.0732 10.856C17.0479 10.8932 17.0142 10.931 16.9721 10.9699C16.9389 11.002 16.9141 11.0289 16.8978 11.0509C16.8815 11.0729 16.872 11.0991 16.8692 11.1294C16.8656 11.1717 16.8762 11.2092 16.9013 11.2421C16.9263 11.275 16.9632 11.3016 17.0119 11.3219L16.925 11.4764L16.9251 11.4763Z" fill="black"/>
<path d="M17.4899 11.4763C17.4097 11.4474 17.3485 11.4042 17.3063 11.3459C17.2642 11.2876 17.2467 11.2179 17.2537 11.1369C17.2588 11.0795 17.2735 11.0323 17.2978 10.995C17.3222 10.958 17.3557 10.9191 17.3979 10.8785C17.431 10.8482 17.4558 10.8215 17.4721 10.7988C17.4885 10.776 17.498 10.7495 17.5006 10.7191C17.5044 10.6768 17.4937 10.6394 17.4687 10.6065C17.4437 10.5736 17.4069 10.547 17.358 10.5268L17.445 10.3723C17.5253 10.3993 17.587 10.4424 17.6298 10.5014C17.6728 10.5604 17.6909 10.6306 17.6836 10.7116C17.6784 10.7706 17.6633 10.8188 17.6379 10.856C17.6127 10.8932 17.5789 10.931 17.5368 10.9699C17.5036 11.002 17.4788 11.0289 17.4625 11.0509C17.4461 11.0729 17.4367 11.0991 17.4341 11.1294C17.4304 11.1717 17.441 11.2092 17.466 11.2421C17.491 11.275 17.5279 11.3016 17.5767 11.3219L17.4897 11.4764L17.4899 11.4763Z" fill="black"/>
<path fill-rule="evenodd" clip-rule="evenodd" d="M12.187 13.5859H21.6209V13.8428H12.187V13.5859Z" fill="#F1A40B"/>
<path fill-rule="evenodd" clip-rule="evenodd" d="M12.187 13.1562H21.6209V13.4131H12.187V13.1562Z" fill="#F1A40B"/>
<path fill-rule="evenodd" clip-rule="evenodd" d="M12.187 12.7266H21.6209V12.9834H12.187V12.7266Z" fill="#F1A40B"/>
<path fill-rule="evenodd" clip-rule="evenodd" d="M12.187 12.2969H21.6209V12.5538H12.187V12.2969Z" fill="#F1A40B"/>
<path fill-rule="evenodd" clip-rule="evenodd" d="M12.187 11.8672H21.6209V12.1241H12.187V11.8672Z" fill="#F1A40B"/>
<path d="M5.90356 18.6122H6.28114V15.8174H7.74578V15.4668H5.90356V18.6122Z" fill="black"/>
<path d="M8.53096 15.4668H8.09961L9.18694 17.6551L8.76017 18.6122H9.16453L10.5665 15.4668H10.135L9.36678 17.2642L8.53096 15.4668Z" fill="black"/>
<path d="M10.5774 18.6483H10.6582C11.2558 18.6483 11.5076 18.172 11.5076 16.7565V15.8264H12.8287V18.6122H13.2061V15.4668H11.1481V16.6126C11.1481 17.9832 10.9863 18.2527 10.6134 18.2527H10.5774V18.6481V18.6483Z" fill="black"/>
<path d="M14.0327 18.6122H15.9559V18.2617H14.4103V17.1473H15.8121V16.7969H14.4103V15.8174H15.9559V15.4668H14.0327V18.6122Z" fill="black"/>
<path d="M16.6389 18.6122H17.0163V17.1203H18.6519V18.6122H19.0293V15.4668H18.6519V16.77H17.0163V15.4668H16.6389V18.6122Z" fill="black"/>
<path d="M20.9842 16.9183C21.429 16.9183 21.6897 17.2014 21.6897 17.5969C21.6897 17.9834 21.429 18.262 20.9842 18.262H20.1664V16.9183H20.9842ZM19.7979 18.6123H21.0335C21.6537 18.6123 22.067 18.2035 22.067 17.5923C22.067 16.9811 21.6537 16.5678 21.0335 16.5678H20.1664V15.467H19.798V18.6123H19.7979Z" fill="black"/>
<path d="M24.9641 15.4668H24.5059L23.4634 16.7923H23.0006V15.4668H22.6233V18.6122H23.0006V17.1429H23.4454L24.5059 18.6122H24.9731L23.7645 16.9631L24.9641 15.4668Z" fill="black"/>
<path d="M27.9725 18.6122V15.4668H27.5682L25.8518 18.028V15.4668H25.4744V18.6122H25.8787L27.5953 16.051V18.6122H27.9725Z" fill="black"/>
<path d="M18.8537 20.414V20.9063H18.2072V20.414H18.0084V21.6572H18.2072V21.0903H18.8537V21.6572H19.0525V20.414H18.8537ZM21.1236 20.414C20.8651 20.414 20.6912 20.5805 20.6912 20.8218C20.6912 21.0058 20.7931 21.145 20.9597 21.2022L20.6588 21.6574H20.8901L21.1736 21.2272H21.4645V21.6574H21.6635V20.4141H21.124L21.1236 20.414ZM21.4644 21.0456H21.1437C20.9871 21.0456 20.8901 20.9536 20.8901 20.8218C20.8901 20.69 20.9871 20.5955 21.1437 20.5955H21.4644V21.0456ZM20.4076 20.8591C20.4076 20.5682 20.1963 20.3793 19.8931 20.3793C19.6568 20.3793 19.4678 20.4936 19.3809 20.6876L19.545 20.7697C19.6145 20.6279 19.7364 20.5584 19.8879 20.5584C20.0894 20.5584 20.2138 20.6802 20.2138 20.8815V20.9015L19.9029 20.9138C19.5375 20.9287 19.346 21.0781 19.346 21.3192C19.346 21.5429 19.5127 21.6921 19.7737 21.6921C19.985 21.6921 20.1342 21.5927 20.2138 21.4361V21.6575H20.4076V20.8593V20.8591ZM20.2138 21.1276C20.2138 21.3389 20.0273 21.5131 19.7986 21.5131C19.6419 21.5131 19.545 21.4359 19.545 21.3117C19.545 21.17 19.6718 21.0905 19.9229 21.0781L20.2138 21.0656V21.1278V21.1276ZM17.4315 20.414V20.9063H16.7851V20.414H16.5862V21.6572H16.7851V21.0903H17.4315V21.6572H17.6303V20.414H17.4315ZM15.149 20.414V21.6572H15.3529L16.0094 20.7099V21.6572H16.2083V20.414H16.0044L15.348 21.3613V20.414H15.1491H15.149ZM13.62 21.6721H13.6696C13.9532 21.6721 14.055 21.4806 14.055 20.9262V20.598H14.5722V21.6572H14.7711V20.414H13.871V20.874C13.871 21.3413 13.8187 21.4781 13.6498 21.4781H13.6198V21.6721H13.62ZM12.8392 21.692C13.1973 21.692 13.4458 21.4334 13.4458 21.0679C13.4458 20.7124 13.2096 20.4537 12.8665 20.4537C12.6578 20.4537 12.4886 20.5507 12.3892 20.7347C12.4066 20.337 12.5683 20.1678 12.9487 20.1404L13.3291 20.113L13.3217 19.9265L12.9362 19.9564C12.3966 19.9987 12.2126 20.3095 12.2126 20.8913C12.2126 21.3886 12.4514 21.692 12.8392 21.692ZM12.8392 21.508C12.6004 21.508 12.4265 21.329 12.4265 21.0704C12.4265 20.8118 12.6004 20.6328 12.8392 20.6328C13.0729 20.6328 13.2469 20.8118 13.2469 21.0704C13.2469 21.329 13.0729 21.508 12.8392 21.508Z" fill="black"/>
</svg>
