<svg width="33" height="38" viewBox="0 0 33 38" fill="none" xmlns="http://www.w3.org/2000/svg">
<path d="M5 0C2.79086 0 1 1.79086 1 4V28C1 30.2091 2.79086 32 5 32H10.2238C12.4539 32 14.5 33.2369 15.5365 35.2116L17 38L18.4636 35.2116C19.5 33.2369 21.5461 32 23.7762 32H29C31.2091 32 33 30.2091 33 28V4C33 1.79086 31.2091 0 29 0H5Z" fill="white"/>
<rect x="0.896484" width="32" height="32" rx="4" fill="white"/>
<path d="M12.8406 17.5402C12.3413 17.5402 12.1935 17.165 12.1851 16.7773C12.1872 16.6382 12.2899 16.5675 12.389 16.5702C12.5988 16.5759 12.5535 16.8061 12.5884 16.9494C12.6537 17.2168 13.0775 17.2887 13.0775 16.6954V15.0349C13.0775 14.5879 13.4096 14.2241 13.8179 14.2241C14.2039 14.2241 14.5218 14.5493 14.5553 14.9627C14.557 14.9731 14.5579 14.9837 14.5579 14.9946C14.5617 15.7746 14.5616 16.555 14.5585 17.3351C14.5581 17.4465 14.4676 17.5365 14.3563 17.5365H14.3555C14.2438 17.536 14.1537 17.4452 14.1541 17.3335C14.1567 16.678 14.1567 15.8316 14.1542 15.1596C14.154 15.0894 14.1546 14.9964 14.1395 14.9291C14.101 14.7577 13.9714 14.6312 13.8179 14.6312C13.6341 14.6312 13.4846 14.8124 13.4846 15.0349V16.6954C13.4846 17.1425 13.3083 17.5402 12.8406 17.5402Z" fill="#1ACCF0"/>
<path d="M8.74594 17.5364H8.74515C8.63343 17.5359 8.54333 17.4451 8.54375 17.3334C8.54657 16.6236 8.54636 15.8187 8.54322 15.125C8.54264 15.0133 8.63281 14.9223 8.74448 14.9219H8.74542C8.85662 14.9219 8.9471 15.0118 8.94757 15.1232C8.95076 15.8179 8.95091 16.6241 8.94814 17.335C8.94772 17.4464 8.85724 17.5364 8.74594 17.5364Z" fill="#1ACCF0"/>
<path d="M11.3327 16.8673L12.1688 14.6758L12.2967 14.3449C12.3372 14.24 12.4551 14.1878 12.5599 14.2283C12.6648 14.2689 12.717 14.3867 12.6764 14.4916L11.7179 16.9998L11.7178 17.0001L11.7125 17.0141L11.7122 17.0139C11.5864 17.3172 11.4317 17.5402 11.0963 17.5402C10.5969 17.5402 10.4492 17.165 10.4407 16.7773C10.4428 16.6381 10.5456 16.5674 10.6447 16.5701C10.8544 16.5759 10.8095 16.8059 10.8441 16.9494C10.8744 17.0751 10.9406 17.149 11.0726 17.1298C11.1324 17.1211 11.2573 17.0909 11.3304 16.8673L11.3505 16.8741L11.3327 16.8673Z" fill="#1ACCF0"/>
<path d="M15.2098 17.5314C15.193 17.5314 15.176 17.5292 15.1592 17.5249C15.0699 17.5019 15.0076 17.4213 15.0076 17.3291V14.4327C15.0076 14.321 15.0981 14.2305 15.2098 14.2305C15.3214 14.2305 15.412 14.321 15.412 14.4327L15.4211 16.5225L16.5943 14.3347C16.6391 14.2541 16.7326 14.214 16.8218 14.2369C16.9824 14.2785 16.9994 14.4373 16.9297 14.5639L15.3866 17.4271C15.3504 17.4925 15.282 17.5314 15.2098 17.5314Z" fill="#1ACCF0"/>
<path d="M23.6612 17.5312C23.6444 17.5312 23.6274 17.5291 23.6106 17.5247C23.5213 17.5017 23.459 17.4211 23.459 17.329V14.4244C23.459 14.3127 23.5495 14.2222 23.6612 14.2222C23.7729 14.2222 23.8633 14.3127 23.8633 14.4244V16.547L25.0676 14.3264C25.1123 14.2457 25.206 14.2056 25.2951 14.2286C25.3844 14.2517 25.4467 14.3322 25.4467 14.4244V17.329C25.4467 17.4407 25.3562 17.5312 25.2445 17.5312C25.1328 17.5312 25.0423 17.4407 25.0423 17.329V15.232L23.838 17.427C23.8018 17.4924 23.7334 17.5312 23.6612 17.5312Z" fill="#1ACCF0"/>
<path d="M18.5815 14.6339H17.3602C17.2485 14.6339 17.158 14.5434 17.158 14.4317C17.158 14.32 17.2485 14.2295 17.3602 14.2295H18.5815C18.6932 14.2295 18.7837 14.32 18.7837 14.4317C18.7837 14.5434 18.6932 14.6339 18.5815 14.6339Z" fill="#1ACCF0"/>
<path d="M17.1209 17.4263C16.9493 17.3052 16.8467 17.1036 16.8462 16.887L16.8465 16.794C16.8476 16.52 16.848 16.3981 16.8475 16.0884C16.8475 15.7594 16.8515 15.4894 16.8503 15.1607C16.8499 15.0491 16.94 14.9582 17.0517 14.9578C17.1629 14.9581 17.2542 15.0476 17.2546 15.1592C17.2559 15.4884 17.2519 15.7589 17.2519 16.0881C17.2524 16.3984 17.2519 16.5206 17.251 16.7955L17.2506 16.8874C17.2507 16.9718 17.2895 17.0503 17.3541 17.0959C17.482 17.1863 17.7406 17.1817 17.9094 17.0978C18.2287 16.9389 18.3109 16.1297 17.5946 16.2262C17.4829 16.2262 17.3872 16.1352 17.3872 16.0235C17.3872 15.9119 17.4764 15.8218 17.5881 15.8218C18.8078 15.7811 18.7613 17.1159 18.0848 17.4489C17.7928 17.5927 17.3754 17.6061 17.1209 17.4263Z" fill="#1ACCF0"/>
<path d="M10.0985 14.6339H8.7769C8.66523 14.6339 8.57471 14.5434 8.57471 14.4317C8.57471 14.32 8.66523 14.2295 8.7769 14.2295H10.0985C10.2102 14.2295 10.3007 14.32 10.3007 14.4317C10.3007 14.5434 10.2102 14.6339 10.0985 14.6339Z" fill="#1ACCF0"/>
<path d="M21.3084 17.5402C20.8091 17.5402 20.6613 17.165 20.6528 16.7773C20.655 16.6382 20.7577 16.5675 20.8569 16.5702C21.0666 16.5759 21.0213 16.8061 21.0562 16.9494C21.1215 17.2168 21.5453 17.2887 21.5453 16.6954V15.0349C21.5453 14.5879 21.8774 14.2241 22.2857 14.2241C22.6717 14.2241 22.9896 14.5493 23.0231 14.9627C23.0247 14.9731 23.0256 14.9837 23.0257 14.9946C23.0295 15.7746 23.0294 16.555 23.0263 17.3351C23.0259 17.4465 22.9354 17.5365 22.8241 17.5365H22.8233C22.7116 17.536 22.6215 17.4452 22.6219 17.3335C22.6245 16.678 22.6245 15.8316 22.622 15.1596C22.6218 15.0894 22.6223 14.9964 22.6073 14.9291C22.5688 14.7577 22.4392 14.6312 22.2857 14.6312C22.1019 14.6312 21.9524 14.8124 21.9524 15.0349V16.6954C21.9524 17.1425 21.7761 17.5402 21.3084 17.5402Z" fill="#1ACCF0"/>
<path d="M11.1819 15.8863L10.5268 14.5111C10.4779 14.4107 10.5197 14.2897 10.6201 14.2409C10.7206 14.192 10.8416 14.2338 10.8904 14.3342L11.5456 15.7094C11.5944 15.8098 11.5526 15.9309 11.4522 15.9797C11.3518 16.0286 11.2308 15.9868 11.1819 15.8863Z" fill="#1ACCF0"/>
<path d="M19.843 16.8673L20.679 14.6758L20.8069 14.3449C20.8474 14.24 20.9653 14.1878 21.0702 14.2283C21.1751 14.2689 21.2272 14.3867 21.1867 14.4916L20.2282 16.9998H20.2282L20.2281 17.0001L20.2227 17.0141L20.2224 17.0139C20.0967 17.3172 19.942 17.5402 19.6066 17.5402C19.1072 17.5402 18.9594 17.165 18.9509 16.7773C18.9531 16.6381 19.0558 16.5674 19.155 16.5701C19.3647 16.5759 19.3197 16.8059 19.3543 16.9494C19.3846 17.0751 19.4508 17.149 19.5828 17.1298C19.6426 17.1211 19.7675 17.0909 19.8407 16.8673L19.8607 16.8741L19.843 16.8673Z" fill="#1ACCF0"/>
<path d="M19.692 15.8863L19.0368 14.5111C18.9879 14.4107 19.0297 14.2897 19.1301 14.2409C19.2305 14.192 19.3516 14.2338 19.4004 14.3342L20.0556 15.7094C20.1044 15.8098 20.0627 15.9309 19.9622 15.9797C19.8618 16.0286 19.7408 15.9868 19.692 15.8863Z" fill="#1ACCF0"/>
<path d="M10.4152 19.4283C10.3511 19.4283 10.2924 19.4133 10.2393 19.3832C10.1861 19.3532 10.1442 19.3124 10.1134 19.2609C10.0827 19.2094 10.0674 19.1522 10.0674 19.0895C10.0674 19.0267 10.0827 18.9695 10.1134 18.918C10.1442 18.8665 10.1863 18.8257 10.2398 18.7956C10.2933 18.7656 10.3521 18.7506 10.4162 18.7506C10.4664 18.7506 10.5137 18.7606 10.5583 18.7808C10.6029 18.8009 10.6398 18.8285 10.6689 18.8635C10.6827 18.8794 10.6896 18.8959 10.6896 18.9131C10.6896 18.9295 10.6835 18.9438 10.6713 18.9557C10.6591 18.9676 10.6444 18.9735 10.6272 18.9735C10.608 18.9735 10.5909 18.9649 10.5757 18.9478C10.5334 18.8989 10.4803 18.8744 10.4162 18.8744C10.3759 18.8744 10.3397 18.8837 10.3077 18.9022C10.2757 18.9207 10.2505 18.9463 10.2323 18.9789C10.2142 19.0117 10.2051 19.0488 10.2051 19.0905C10.2051 19.1314 10.2142 19.1682 10.2323 19.2009C10.2505 19.2336 10.2757 19.2591 10.3077 19.2772C10.3397 19.2954 10.3759 19.3045 10.4162 19.3045C10.4789 19.3045 10.5318 19.28 10.5747 19.2311C10.5906 19.214 10.608 19.2054 10.6272 19.2054C10.6444 19.2054 10.6589 19.2113 10.6708 19.2232C10.6827 19.2351 10.6886 19.2493 10.6886 19.2658C10.6886 19.2824 10.6817 19.2988 10.6679 19.3154C10.6388 19.3504 10.602 19.378 10.5573 19.3981C10.5128 19.4182 10.4653 19.4283 10.4152 19.4283ZM11.2555 18.7625C11.2753 18.7625 11.2916 18.7689 11.3045 18.7818C11.3174 18.7946 11.3239 18.811 11.3239 18.8308V19.36C11.3239 19.3791 11.3174 19.3953 11.3045 19.4085C11.2916 19.4217 11.2759 19.4283 11.2574 19.4283C11.2383 19.4283 11.2223 19.4217 11.2094 19.4085C11.1965 19.3953 11.1901 19.3791 11.1901 19.36V18.8833H11.0266C11.0252 19.0306 11.0105 19.1463 10.9825 19.2302C10.9544 19.3141 10.912 19.3715 10.8551 19.4026C10.8313 19.4185 10.8079 19.4264 10.7848 19.4264C10.7669 19.4264 10.7524 19.4209 10.7412 19.41C10.7299 19.3991 10.7243 19.3851 10.7243 19.3679C10.7243 19.3382 10.7389 19.318 10.768 19.3074C10.8142 19.2916 10.8476 19.2505 10.868 19.1841C10.8885 19.1177 10.8987 19.0175 10.8987 18.8833V18.8308C10.8987 18.811 10.9052 18.7946 10.918 18.7818C10.9309 18.7689 10.9473 18.7625 10.9671 18.7625H11.2555ZM11.7826 18.7506C11.8467 18.7506 11.9053 18.7656 11.9585 18.7956C12.0117 18.8257 12.0538 18.8667 12.0848 18.9185C12.1159 18.9704 12.1314 19.0274 12.1314 19.0895C12.1314 19.1515 12.1159 19.2085 12.0848 19.2604C12.0538 19.3122 12.0117 19.3532 11.9585 19.3832C11.9053 19.4133 11.8467 19.4283 11.7826 19.4283C11.7185 19.4283 11.6601 19.4133 11.6072 19.3832C11.5544 19.3532 11.5126 19.3124 11.4819 19.2609C11.4512 19.2094 11.4358 19.1522 11.4358 19.0895C11.4358 19.0267 11.4512 18.9695 11.4819 18.918C11.5126 18.8665 11.5544 18.8257 11.6072 18.7956C11.6601 18.7656 11.7185 18.7506 11.7826 18.7506ZM11.7836 18.8744C11.7433 18.8744 11.7072 18.8835 11.6751 18.9017C11.6431 18.9198 11.6182 18.9452 11.6003 18.978C11.5825 19.0107 11.5735 19.0479 11.5735 19.0895C11.5735 19.1311 11.5825 19.1682 11.6003 19.2009C11.6182 19.2336 11.6431 19.2591 11.6751 19.2772C11.7072 19.2954 11.7433 19.3045 11.7836 19.3045C11.8239 19.3045 11.8599 19.2952 11.8916 19.2768C11.9233 19.2582 11.9482 19.2326 11.9664 19.1999C11.9846 19.1672 11.9937 19.1304 11.9937 19.0895C11.9937 19.0485 11.9846 19.0117 11.9664 18.9789C11.9482 18.9463 11.9233 18.9207 11.8916 18.9022C11.8599 18.8837 11.8239 18.8744 11.7836 18.8744ZM12.3098 19.4164C12.2913 19.4164 12.2756 19.41 12.2627 19.3971C12.2498 19.3842 12.2434 19.3685 12.2434 19.3501V18.8288C12.2434 18.8097 12.2498 18.7939 12.2627 18.7812C12.2756 18.7687 12.2913 18.7625 12.3098 18.7625H12.6298C12.6477 18.7625 12.6624 18.7682 12.6739 18.7798C12.6855 18.7913 12.6913 18.8057 12.6913 18.8229C12.6913 18.8401 12.6853 18.8545 12.6734 18.866C12.6615 18.8776 12.647 18.8833 12.6298 18.8833H12.3771V19.0161H12.5506C12.5671 19.0161 12.581 19.0216 12.5921 19.0325C12.6034 19.0434 12.609 19.0571 12.609 19.0736C12.609 19.0895 12.6034 19.1028 12.5921 19.1137C12.581 19.1246 12.5671 19.1301 12.5506 19.1301H12.3771V19.2955H12.6417C12.6596 19.2955 12.6743 19.3013 12.6858 19.3129C12.6974 19.3245 12.7031 19.3388 12.7031 19.356C12.7031 19.3731 12.6972 19.3875 12.6853 19.3991C12.6734 19.4107 12.6589 19.4164 12.6417 19.4164H12.3098ZM12.3325 18.6862C12.3121 18.6862 12.2936 18.6784 12.2771 18.6629C12.2605 18.6473 12.2523 18.6297 12.2523 18.6099C12.2523 18.5881 12.2604 18.5697 12.2766 18.5549C12.2928 18.54 12.3114 18.5326 12.3325 18.5326C12.3544 18.5326 12.3732 18.54 12.3891 18.5549C12.4049 18.5697 12.4128 18.5881 12.4128 18.6099C12.4128 18.6303 12.4049 18.6482 12.3891 18.6634C12.3732 18.6786 12.3544 18.6862 12.3325 18.6862ZM12.5882 18.6872C12.5677 18.6872 12.5492 18.6794 12.5327 18.6639C12.5162 18.6483 12.508 18.6306 12.508 18.6109C12.508 18.589 12.5161 18.5705 12.5322 18.5553C12.5484 18.5402 12.5671 18.5326 12.5882 18.5326C12.61 18.5326 12.6288 18.5402 12.6447 18.5553C12.6605 18.5705 12.6685 18.589 12.6685 18.6109C12.6685 18.6313 12.6605 18.6492 12.6447 18.6643C12.6288 18.6796 12.61 18.6872 12.5882 18.6872ZM12.8775 19.4283C12.8584 19.4283 12.8423 19.4217 12.8295 19.4085C12.8166 19.3953 12.8102 19.3788 12.8102 19.359V18.8199C12.8102 18.8001 12.8164 18.7836 12.829 18.7704C12.8415 18.7572 12.8577 18.7506 12.8775 18.7506C12.8967 18.7506 12.9126 18.7572 12.9251 18.7704C12.9376 18.7836 12.9439 18.8001 12.9439 18.8199V19.0132H13.2333V18.8189C13.2333 18.7991 13.2396 18.7828 13.2521 18.7699C13.2646 18.757 13.2809 18.7506 13.3006 18.7506C13.3198 18.7506 13.3356 18.757 13.3482 18.7699C13.3608 18.7828 13.367 18.7991 13.367 18.8189V19.359C13.367 19.3788 13.3608 19.3953 13.3482 19.4085C13.3356 19.4217 13.3198 19.4283 13.3006 19.4283C13.2815 19.4283 13.2655 19.4217 13.2526 19.4085C13.2397 19.3953 13.2333 19.3788 13.2333 19.359V19.1341H12.9439V19.359C12.9439 19.3788 12.9376 19.3953 12.9251 19.4085C12.9126 19.4217 12.8967 19.4283 12.8775 19.4283ZM13.583 18.7506C13.6022 18.7506 13.6182 18.7572 13.6311 18.7704C13.644 18.7836 13.6504 18.7998 13.6504 18.8189V18.9874H13.7842C13.8311 18.9874 13.8726 18.9965 13.9085 19.0146C13.9445 19.0328 13.9726 19.0582 13.9928 19.0909C14.0129 19.1236 14.023 19.1605 14.023 19.2014C14.023 19.2431 14.0131 19.2802 13.9933 19.3129C13.9735 19.3456 13.9455 19.371 13.9096 19.3892C13.8735 19.4074 13.8318 19.4164 13.7842 19.4164H13.585C13.5652 19.4164 13.5489 19.41 13.536 19.3971C13.5231 19.3842 13.5166 19.3679 13.5166 19.3481V18.8189C13.5166 18.7998 13.5229 18.7836 13.5355 18.7704C13.548 18.7572 13.5639 18.7506 13.583 18.7506ZM13.6504 19.1043V19.2985H13.7842C13.8166 19.2985 13.8417 19.2898 13.8595 19.2723C13.8773 19.2548 13.8862 19.2315 13.8862 19.2024C13.8862 19.1727 13.8773 19.1489 13.8595 19.1311C13.8417 19.1132 13.8166 19.1043 13.7842 19.1043H13.6504ZM14.2034 19.4283C14.1835 19.4283 14.1673 19.4219 14.1548 19.409C14.1422 19.3961 14.136 19.3798 14.136 19.36V18.8189C14.136 18.7991 14.1422 18.7828 14.1548 18.7699C14.1673 18.757 14.1835 18.7506 14.2034 18.7506C14.2225 18.7506 14.2384 18.7572 14.2509 18.7704C14.2634 18.7836 14.2698 18.7998 14.2698 18.8189V19.36C14.2698 19.3791 14.2634 19.3953 14.2509 19.4085C14.2384 19.4217 14.2225 19.4283 14.2034 19.4283ZM14.9197 18.7506C14.9383 18.7506 14.954 18.757 14.9668 18.7699C14.9797 18.7828 14.9861 18.7988 14.9861 18.8179V19.36C14.9861 19.3791 14.9797 19.3953 14.9668 19.4085C14.954 19.4217 14.9379 19.4283 14.9188 19.4283C14.9003 19.4283 14.8846 19.4217 14.8717 19.4085C14.8588 19.3953 14.8524 19.3791 14.8524 19.36V18.9973L14.5412 19.3996C14.5261 19.4188 14.5075 19.4283 14.4858 19.4283C14.4672 19.4283 14.4516 19.4217 14.4387 19.4085C14.4258 19.3953 14.4194 19.3795 14.4194 19.3609V18.8189C14.4194 18.7998 14.4258 18.7836 14.4387 18.7704C14.4516 18.7572 14.4672 18.7506 14.4858 18.7506C14.5049 18.7506 14.5209 18.7572 14.5338 18.7704C14.5467 18.7836 14.5531 18.7998 14.5531 18.8189V19.1836L14.8554 18.7902C14.8659 18.7763 14.8757 18.7662 14.8846 18.76C14.8935 18.7537 14.9052 18.7506 14.9197 18.7506ZM14.6948 18.6971C14.6664 18.6971 14.6395 18.6908 14.6141 18.6782C14.5887 18.6657 14.568 18.6488 14.5521 18.6277C14.5363 18.6066 14.5284 18.5844 14.5284 18.5613C14.5284 18.5461 14.5333 18.5337 14.5432 18.5242C14.5531 18.5146 14.5654 18.5098 14.5799 18.5098C14.5904 18.5098 14.5997 18.5128 14.6076 18.5187C14.6155 18.5246 14.6228 18.5342 14.6294 18.5474C14.6433 18.5798 14.6651 18.596 14.6948 18.596C14.71 18.596 14.7231 18.5919 14.734 18.5836C14.7449 18.5753 14.7533 18.5633 14.7592 18.5474C14.7718 18.5223 14.7886 18.5098 14.8098 18.5098C14.8243 18.5098 14.8364 18.5146 14.8459 18.5242C14.8555 18.5337 14.8603 18.5461 14.8603 18.5613C14.8603 18.5844 14.8525 18.6066 14.837 18.6277C14.8215 18.6488 14.8008 18.6657 14.7751 18.6782C14.7494 18.6908 14.7226 18.6971 14.6948 18.6971ZM15.7937 18.7506C15.8129 18.7506 15.8289 18.7572 15.8418 18.7704C15.8546 18.7836 15.8611 18.7998 15.8611 18.8189V19.36C15.8611 19.3791 15.8546 19.3953 15.8418 19.4085C15.8289 19.4217 15.8129 19.4283 15.7937 19.4283C15.7752 19.4283 15.7596 19.4217 15.7466 19.4085C15.7338 19.3953 15.7273 19.3791 15.7273 19.36V19.1955C15.6883 19.2061 15.65 19.2113 15.6124 19.2113C15.5562 19.2113 15.5073 19.2006 15.4657 19.1791C15.4241 19.1577 15.3919 19.1271 15.3691 19.0875C15.3463 19.0479 15.335 19.0012 15.335 18.9478V18.8189C15.335 18.7998 15.3414 18.7836 15.3543 18.7704C15.3671 18.7572 15.3832 18.7506 15.4023 18.7506C15.4208 18.7506 15.4365 18.7572 15.4494 18.7704C15.4623 18.7836 15.4687 18.7998 15.4687 18.8189V18.9349C15.4687 18.9831 15.4819 19.0208 15.5083 19.0479C15.5348 19.0749 15.5711 19.0885 15.6173 19.0885C15.6523 19.0885 15.689 19.0815 15.7273 19.0676V18.8189C15.7273 18.7998 15.7336 18.7836 15.7462 18.7704C15.7587 18.7572 15.7746 18.7506 15.7937 18.7506ZM16.5488 19.3282C16.5541 19.3408 16.5567 19.3527 16.5567 19.3639C16.5567 19.3818 16.5504 19.397 16.5379 19.4095C16.5253 19.4221 16.5098 19.4283 16.4913 19.4283C16.4622 19.4283 16.4411 19.4125 16.4279 19.3808L16.4001 19.3134H16.1237L16.0959 19.3808C16.0834 19.4125 16.0626 19.4283 16.0335 19.4283C16.015 19.4283 15.9993 19.4221 15.9865 19.4095C15.9736 19.397 15.9671 19.3818 15.9671 19.3639C15.9671 19.3547 15.9698 19.3428 15.9751 19.3282L16.199 18.7962C16.2109 18.7658 16.232 18.7506 16.2624 18.7506C16.2928 18.7506 16.3139 18.7658 16.3258 18.7962L16.5488 19.3282ZM16.1673 19.2034H16.3556L16.2624 18.9478L16.1673 19.2034ZM17.1661 18.7506C17.1846 18.7506 17.2003 18.757 17.2132 18.7699C17.226 18.7828 17.2325 18.7988 17.2325 18.8179V19.36C17.2325 19.3791 17.226 19.3953 17.2132 19.4085C17.2003 19.4217 17.1843 19.4283 17.1651 19.4283C17.1466 19.4283 17.1309 19.4217 17.1181 19.4085C17.1051 19.3953 17.0987 19.3791 17.0987 19.36V18.9973L16.7876 19.3996C16.7724 19.4188 16.7539 19.4283 16.7321 19.4283C16.7136 19.4283 16.6979 19.4217 16.6851 19.4085C16.6722 19.3953 16.6657 19.3795 16.6657 19.3609V18.8189C16.6657 18.7998 16.6722 18.7836 16.6851 18.7704C16.6979 18.7572 16.7136 18.7506 16.7321 18.7506C16.7513 18.7506 16.7673 18.7572 16.7801 18.7704C16.7931 18.7836 16.7995 18.7998 16.7995 18.8189V19.1836L17.1017 18.7902C17.1123 18.7763 17.122 18.7662 17.1309 18.76C17.1398 18.7537 17.1516 18.7506 17.1661 18.7506ZM16.9412 18.6971C16.9128 18.6971 16.8858 18.6908 16.8604 18.6782C16.835 18.6657 16.8144 18.6488 16.7985 18.6277C16.7826 18.6066 16.7747 18.5844 16.7747 18.5613C16.7747 18.5461 16.7797 18.5337 16.7895 18.5242C16.7995 18.5146 16.8117 18.5098 16.8262 18.5098C16.8368 18.5098 16.8461 18.5128 16.854 18.5187C16.8619 18.5246 16.8691 18.5342 16.8758 18.5474C16.8897 18.5798 16.9114 18.596 16.9412 18.596C16.9564 18.596 16.9694 18.5919 16.9803 18.5836C16.9912 18.5753 16.9997 18.5633 17.0056 18.5474C17.0181 18.5223 17.035 18.5098 17.0561 18.5098C17.0707 18.5098 17.0827 18.5146 17.0923 18.5242C17.1019 18.5337 17.1067 18.5461 17.1067 18.5613C17.1067 18.5844 17.0989 18.6066 17.0834 18.6277C17.0678 18.6488 17.0472 18.6657 17.0214 18.6782C16.9957 18.6908 16.9689 18.6971 16.9412 18.6971ZM17.9687 19.4283C17.9046 19.4283 17.846 19.4133 17.7929 19.3832C17.7396 19.3532 17.6977 19.3124 17.667 19.2609C17.6363 19.2094 17.6209 19.1522 17.6209 19.0895C17.6209 19.0267 17.6363 18.9695 17.667 18.918C17.6977 18.8665 17.7398 18.8257 17.7933 18.7956C17.8469 18.7656 17.9056 18.7506 17.9697 18.7506C18.0199 18.7506 18.0673 18.7606 18.1119 18.7808C18.1565 18.8009 18.1933 18.8285 18.2224 18.8635C18.2362 18.8794 18.2432 18.8959 18.2432 18.9131C18.2432 18.9295 18.2371 18.9438 18.2249 18.9557C18.2126 18.9676 18.1979 18.9735 18.1808 18.9735C18.1616 18.9735 18.1445 18.9649 18.1292 18.9478C18.087 18.8989 18.0338 18.8744 17.9697 18.8744C17.9294 18.8744 17.8933 18.8837 17.8612 18.9022C17.8292 18.9207 17.804 18.9463 17.7859 18.9789C17.7677 19.0117 17.7586 19.0488 17.7586 19.0905C17.7586 19.1314 17.7677 19.1682 17.7859 19.2009C17.804 19.2336 17.8292 19.2591 17.8612 19.2772C17.8933 19.2954 17.9294 19.3045 17.9697 19.3045C18.0325 19.3045 18.0853 19.28 18.1283 19.2311C18.1441 19.214 18.1616 19.2054 18.1808 19.2054C18.1979 19.2054 18.2125 19.2113 18.2244 19.2232C18.2362 19.2351 18.2422 19.2493 18.2422 19.2658C18.2422 19.2824 18.2353 19.2988 18.2214 19.3154C18.1923 19.3504 18.1555 19.378 18.1109 19.3981C18.0663 19.4182 18.0189 19.4283 17.9687 19.4283ZM18.7168 18.7506C18.7353 18.7506 18.751 18.7572 18.7639 18.7704C18.7768 18.7836 18.7832 18.7998 18.7832 18.8189V19.36C18.7832 19.3791 18.7768 19.3953 18.7639 19.4085C18.751 19.4217 18.7353 19.4283 18.7168 19.4283C18.6977 19.4283 18.6817 19.4217 18.6688 19.4085C18.6559 19.3953 18.6495 19.3791 18.6495 19.36V18.8189C18.6495 18.7991 18.6558 18.7828 18.6683 18.7699C18.6808 18.757 18.697 18.7506 18.7168 18.7506ZM19.1756 19.3243C19.1868 19.3375 19.1924 19.3511 19.1924 19.3649C19.1924 19.3821 19.1862 19.397 19.1737 19.4095C19.1611 19.4221 19.1466 19.4283 19.1301 19.4283C19.1096 19.4283 19.0917 19.4191 19.0765 19.4006L18.8278 19.1142C18.8159 19.1004 18.81 19.0855 18.81 19.0696C18.81 19.0551 18.8163 19.0409 18.8288 19.027L19.0647 18.7724C19.0726 18.7645 19.0801 18.7588 19.0874 18.7555C19.0947 18.7522 19.1033 18.7506 19.1132 18.7506C19.1297 18.7506 19.1439 18.7567 19.1558 18.7689C19.1677 18.7811 19.1737 18.7958 19.1737 18.813C19.1737 18.8288 19.167 18.8437 19.1538 18.8576L18.9566 19.0706L19.1756 19.3243ZM19.7543 18.7555C19.7734 18.7555 19.7898 18.7625 19.8034 18.7763C19.8169 18.7902 19.8237 18.8067 19.8237 18.8259C19.8237 18.8365 19.8204 18.8486 19.8137 18.8626L19.6166 19.2837C19.5934 19.3325 19.5637 19.3688 19.5274 19.3927C19.4911 19.4164 19.4464 19.4283 19.3936 19.4283C19.3659 19.4283 19.3431 19.4244 19.3252 19.4164C19.3021 19.4045 19.2906 19.3867 19.2906 19.3629C19.2906 19.3458 19.2965 19.3316 19.3084 19.3203C19.3203 19.3091 19.3355 19.3035 19.354 19.3035L19.3718 19.3045C19.4009 19.3045 19.4242 19.2997 19.4417 19.2901C19.4592 19.2805 19.4736 19.2652 19.4847 19.244L19.2836 18.8626C19.277 18.8493 19.2737 18.8368 19.2737 18.8249C19.2737 18.8057 19.2805 18.7894 19.294 18.7758C19.3076 18.7623 19.3239 18.7555 19.3431 18.7555C19.3708 18.7555 19.3923 18.7697 19.4075 18.7982L19.5581 19.0994L19.6899 18.7982C19.6952 18.7849 19.7036 18.7745 19.7151 18.7669C19.7267 18.7593 19.7398 18.7555 19.7543 18.7555ZM20.3062 18.7625C20.3241 18.7625 20.3389 18.7682 20.3508 18.7798C20.3627 18.7913 20.3686 18.8057 20.3686 18.8229C20.3686 18.8401 20.3627 18.8545 20.3508 18.866C20.3389 18.8776 20.3241 18.8833 20.3062 18.8833H20.0644V19.027H20.222C20.2643 19.027 20.3018 19.0351 20.3345 19.0513C20.3672 19.0675 20.3924 19.0901 20.4103 19.1192C20.4281 19.1482 20.437 19.1816 20.437 19.2192C20.437 19.2575 20.4279 19.2918 20.4098 19.3218C20.3916 19.3518 20.3663 19.3752 20.3339 19.3917C20.3016 19.4082 20.2643 19.4164 20.222 19.4164H19.999C19.9792 19.4164 19.9629 19.41 19.95 19.3971C19.9371 19.3842 19.9307 19.3679 19.9307 19.3481V18.8308C19.9307 18.811 19.9371 18.7946 19.95 18.7818C19.9629 18.7689 19.9792 18.7625 19.999 18.7625H20.3062ZM20.0644 19.137V19.3015H20.2121C20.2412 19.3015 20.2639 19.2944 20.2805 19.2802C20.2969 19.266 20.3052 19.2457 20.3052 19.2192C20.3052 19.1935 20.2969 19.1733 20.2805 19.1588C20.2639 19.1443 20.2412 19.137 20.2121 19.137H20.0644ZM21.0464 18.7506C21.0649 18.7506 21.0806 18.757 21.0935 18.7699C21.1064 18.7828 21.1128 18.7988 21.1128 18.8179V19.36C21.1128 19.3791 21.1064 19.3953 21.0935 19.4085C21.0806 19.4217 21.0646 19.4283 21.0454 19.4283C21.0269 19.4283 21.0112 19.4217 20.9984 19.4085C20.9855 19.3953 20.979 19.3791 20.979 19.36V18.9973L20.6679 19.3996C20.6527 19.4188 20.6342 19.4283 20.6124 19.4283C20.5939 19.4283 20.5782 19.4217 20.5653 19.4085C20.5525 19.3953 20.546 19.3795 20.546 19.3609V18.8189C20.546 18.7998 20.5525 18.7836 20.5653 18.7704C20.5782 18.7572 20.5939 18.7506 20.6124 18.7506C20.6315 18.7506 20.6476 18.7572 20.6605 18.7704C20.6733 18.7836 20.6798 18.7998 20.6798 18.8189V19.1836L20.982 18.7902C20.9925 18.7763 21.0023 18.7662 21.0112 18.76C21.0202 18.7537 21.0319 18.7506 21.0464 18.7506ZM21.3288 18.7506C21.3473 18.7506 21.363 18.7572 21.3759 18.7704C21.3888 18.7836 21.3952 18.7998 21.3952 18.8189V19.36C21.3952 19.3791 21.3888 19.3953 21.3759 19.4085C21.363 19.4217 21.3473 19.4283 21.3288 19.4283C21.3097 19.4283 21.2937 19.4217 21.2808 19.4085C21.2679 19.3953 21.2614 19.3791 21.2614 19.36V18.8189C21.2614 18.7991 21.2677 18.7828 21.2803 18.7699C21.2928 18.757 21.309 18.7506 21.3288 18.7506ZM21.7876 19.3243C21.7988 19.3375 21.8044 19.3511 21.8044 19.3649C21.8044 19.3821 21.7982 19.397 21.7856 19.4095C21.773 19.4221 21.7585 19.4283 21.742 19.4283C21.7215 19.4283 21.7037 19.4191 21.6885 19.4006L21.4398 19.1142C21.4279 19.1004 21.422 19.0855 21.422 19.0696C21.422 19.0551 21.4282 19.0409 21.4408 19.027L21.6766 18.7724C21.6845 18.7645 21.6921 18.7588 21.6994 18.7555C21.7067 18.7522 21.7153 18.7506 21.7252 18.7506C21.7417 18.7506 21.7559 18.7567 21.7677 18.7689C21.7797 18.7811 21.7856 18.7958 21.7856 18.813C21.7856 18.8288 21.779 18.8437 21.7658 18.8576L21.5686 19.0706L21.7876 19.3243ZM22.4565 19.3282C22.4617 19.3408 22.4644 19.3527 22.4644 19.3639C22.4644 19.3818 22.4581 19.397 22.4456 19.4095C22.433 19.4221 22.4175 19.4283 22.3989 19.4283C22.3699 19.4283 22.3488 19.4125 22.3356 19.3808L22.3078 19.3134H22.0313L22.0036 19.3808C21.9911 19.4125 21.9703 19.4283 21.9412 19.4283C21.9227 19.4283 21.907 19.4221 21.8941 19.4095C21.8813 19.397 21.8748 19.3818 21.8748 19.3639C21.8748 19.3547 21.8774 19.3428 21.8827 19.3282L22.1066 18.7962C22.1186 18.7658 22.1397 18.7506 22.1701 18.7506C22.2005 18.7506 22.2216 18.7658 22.2335 18.7962L22.4565 19.3282ZM22.075 19.2034H22.2633L22.1701 18.9478L22.075 19.2034ZM23.1471 18.7506C23.1656 18.7506 23.1811 18.7572 23.1937 18.7704C23.2062 18.7836 23.2125 18.8001 23.2125 18.8199V19.36C23.2125 19.3791 23.2061 19.3953 23.1932 19.4085C23.1803 19.4217 23.1646 19.4283 23.1461 19.4283C23.1269 19.4283 23.1109 19.4217 23.0981 19.4085C23.0852 19.3953 23.0788 19.3791 23.0788 19.36V19.0369L22.9559 19.2302C22.9466 19.2454 22.937 19.2562 22.9271 19.2629C22.9172 19.2695 22.9057 19.2728 22.8925 19.2728C22.8799 19.2728 22.8685 19.2695 22.8582 19.2629C22.848 19.2562 22.8382 19.2454 22.829 19.2302L22.7062 19.0349V19.36C22.7062 19.3791 22.6997 19.3953 22.6869 19.4085C22.6739 19.4217 22.6583 19.4283 22.6398 19.4283C22.6206 19.4283 22.6046 19.4217 22.5917 19.4085C22.5788 19.3953 22.5724 19.3791 22.5724 19.36V18.8199C22.5724 18.8001 22.5786 18.7836 22.5912 18.7704C22.6038 18.7572 22.6193 18.7506 22.6378 18.7506C22.6523 18.7506 22.6649 18.7544 22.6755 18.7619C22.686 18.7696 22.6969 18.7829 22.7082 18.8021L22.8925 19.0944L23.0768 18.8021C23.0886 18.7829 23.0997 18.7696 23.1099 18.7619C23.1202 18.7544 23.1325 18.7506 23.1471 18.7506ZM23.8625 18.7506C23.881 18.7506 23.8967 18.757 23.9096 18.7699C23.9225 18.7828 23.9289 18.7988 23.9289 18.8179V19.36C23.9289 19.3791 23.9225 19.3953 23.9096 19.4085C23.8967 19.4217 23.8807 19.4283 23.8615 19.4283C23.8431 19.4283 23.8274 19.4217 23.8145 19.4085C23.8016 19.3953 23.7951 19.3791 23.7951 19.36V18.9973L23.484 19.3996C23.4688 19.4188 23.4503 19.4283 23.4285 19.4283C23.41 19.4283 23.3943 19.4217 23.3815 19.4085C23.3686 19.3953 23.3621 19.3795 23.3621 19.3609V18.8189C23.3621 18.7998 23.3686 18.7836 23.3815 18.7704C23.3943 18.7572 23.41 18.7506 23.4285 18.7506C23.4477 18.7506 23.4637 18.7572 23.4766 18.7704C23.4895 18.7836 23.4959 18.7998 23.4959 18.8189V19.1836L23.7981 18.7902C23.8087 18.7763 23.8184 18.7662 23.8274 18.76C23.8363 18.7537 23.848 18.7506 23.8625 18.7506Z" fill="#1ACCF0"/>
<path d="M8.85728 13.8864L8.27114 12.6494C8.22232 12.5489 8.26408 12.428 8.3645 12.3791C8.46492 12.3302 8.58595 12.372 8.63483 12.4724L9.22091 13.7095C9.26973 13.8099 9.22798 13.9309 9.12751 13.9798C9.02709 14.0286 8.9061 13.9868 8.85728 13.8864Z" fill="#1ACCF0"/>
<path d="M24.6633 19.2735C24.5606 19.2791 24.4727 19.2004 24.4671 19.0976C24.4615 18.9949 24.5402 18.907 24.6429 18.9014C25.4876 18.8546 26.2553 18.5045 26.8065 17.9534C27.3384 17.4214 27.6679 16.7011 27.6679 15.8859C27.6679 15.057 27.3287 14.3033 26.7821 13.7568C26.2356 13.2103 25.482 12.871 24.6531 12.871H9.36071C9.25757 12.871 9.17395 12.7874 9.17395 12.6843C9.17395 12.5812 9.25757 12.4976 9.36071 12.4976H24.6531C25.5851 12.4976 26.4322 12.8787 27.0462 13.4927C27.6603 14.1067 28.0414 14.9539 28.0414 15.8859C28.0414 16.8057 27.6701 17.6179 27.0705 18.2174C26.4566 18.8314 25.6024 19.2214 24.6633 19.2735ZM7.82779 12.8672C7.91926 12.8205 8.03129 12.8567 8.07802 12.9482C8.12475 13.0396 8.08849 13.1517 7.99707 13.1984C7.50031 13.4524 7.08168 13.8413 6.78979 14.3163C6.50846 14.774 6.34588 15.3119 6.34588 15.8859C6.34588 16.7147 6.68513 17.4684 7.23166 18.0149C7.77818 18.5614 8.53182 18.9007 9.36071 18.9007C9.46385 18.9007 9.54747 18.9843 9.54747 19.0874C9.54747 19.1906 9.46385 19.2742 9.36071 19.2742C8.42873 19.2742 7.58158 18.893 6.96755 18.279C6.35352 17.665 5.97241 16.8178 5.97241 15.8859C5.97241 15.2405 6.15525 14.6357 6.47173 14.1208C6.79837 13.5892 7.2686 13.1532 7.82779 12.8672Z" fill="#1ACCF0"/>
</svg>
