<svg xmlns="http://www.w3.org/2000/svg" width="32" height="38" viewBox="0 0 32 38" fill="none">
    <path d="M4 0C1.79086 0 0 1.79086 0 4V28C0 30.2091 1.79086 32 4 32H9.22376C11.4539 32 13.5 33.2369 14.5365 35.2116L16 38L17.4636 35.2116C18.5 33.2369 20.5461 32 22.7762 32H28C30.2091 32 32 30.2091 32 28V4C32 1.79086 30.2091 0 28 0H4Z" fill="white"/>
    <mask id="path-2-inside-1_135_4649" fill="white">
        <path d="M26.7035 11.116V22.8917C26.522 22.7281 26.3216 22.569 26.1033 22.4153V15.3093H24.7313V21.626C24.5385 21.5344 24.3382 21.4458 24.1311 21.3602V11.116H24.7313V14.7078H26.1033V11.116H26.7035ZM6.77822 11.116V11.7175H5.23476V22.3886C5.017 22.5398 4.81641 22.6961 4.63452 22.857V11.116H6.77822ZM9.89779 11.116L8.97846 20.7417C8.768 20.8006 8.56175 20.8622 8.36052 20.9264L8.89703 15.3093H8.25141H7.65123L7.22249 11.116H7.82273L8.18996 14.7078H8.95451L9.29756 11.116H9.89779ZM12.5651 11.116V20.0605C12.363 20.0831 12.1629 20.1079 11.9649 20.1347V11.7175H11.4828L10.7475 20.3313C10.5411 20.3702 10.3375 20.4112 10.1372 20.4547L10.9359 11.116H12.5651ZM15.4525 11.7175H14.8008C14.5493 11.7175 14.3606 11.7948 14.2349 11.9495C14.1091 12.1042 14.0463 12.3591 14.0463 12.7142V13.6939C14.0463 14.0605 14.1091 14.3211 14.2349 14.4759C14.3606 14.6305 14.5493 14.7078 14.8008 14.7078H15.4525V11.7175ZM15.4525 15.3093H14.9334L14.3508 19.9215C14.1477 19.9307 13.9462 19.942 13.7463 19.9554L14.3413 15.2459C14.1295 15.1816 13.9512 15.0681 13.8062 14.9054C13.5661 14.6362 13.446 14.2323 13.446 13.6939V12.7142C13.446 12.1872 13.5661 11.7891 13.8062 11.5199C14.0463 11.2506 14.3778 11.116 14.8008 11.116H16.0528V19.8951C15.9189 19.8932 15.7846 19.8919 15.6496 19.8919C15.5837 19.8919 15.5182 19.8926 15.4525 19.893V15.3093ZM18.3389 15.3093H17.6542V19.9626C17.4557 19.9485 17.2556 19.9365 17.0539 19.9266V11.116H17.6542V14.7078H17.782L18.0143 13.6767L18.7175 11.116H19.3177L18.2815 14.7078H18.9404L19.3598 20.1383C19.1434 20.1087 18.9247 20.0815 18.7032 20.057L18.3389 15.3093ZM20.8783 11.116V20.3951C20.681 20.3551 20.4809 20.3172 20.2781 20.2815V11.116H20.8783ZM21.1623 20.4548L21.873 11.116H23.1077V20.9816C22.9121 20.9169 22.7122 20.8544 22.5075 20.7948V12.4909L22.5933 11.2019H22.4218L21.708 20.5808C21.5289 20.5369 21.3469 20.4949 21.1623 20.4548Z"/>
    </mask>
    <path d="M26.7035 11.116V22.8917C26.522 22.7281 26.3216 22.569 26.1033 22.4153V15.3093H24.7313V21.626C24.5385 21.5344 24.3382 21.4458 24.1311 21.3602V11.116H24.7313V14.7078H26.1033V11.116H26.7035ZM6.77822 11.116V11.7175H5.23476V22.3886C5.017 22.5398 4.81641 22.6961 4.63452 22.857V11.116H6.77822ZM9.89779 11.116L8.97846 20.7417C8.768 20.8006 8.56175 20.8622 8.36052 20.9264L8.89703 15.3093H8.25141H7.65123L7.22249 11.116H7.82273L8.18996 14.7078H8.95451L9.29756 11.116H9.89779ZM12.5651 11.116V20.0605C12.363 20.0831 12.1629 20.1079 11.9649 20.1347V11.7175H11.4828L10.7475 20.3313C10.5411 20.3702 10.3375 20.4112 10.1372 20.4547L10.9359 11.116H12.5651ZM15.4525 11.7175H14.8008C14.5493 11.7175 14.3606 11.7948 14.2349 11.9495C14.1091 12.1042 14.0463 12.3591 14.0463 12.7142V13.6939C14.0463 14.0605 14.1091 14.3211 14.2349 14.4759C14.3606 14.6305 14.5493 14.7078 14.8008 14.7078H15.4525V11.7175ZM15.4525 15.3093H14.9334L14.3508 19.9215C14.1477 19.9307 13.9462 19.942 13.7463 19.9554L14.3413 15.2459C14.1295 15.1816 13.9512 15.0681 13.8062 14.9054C13.5661 14.6362 13.446 14.2323 13.446 13.6939V12.7142C13.446 12.1872 13.5661 11.7891 13.8062 11.5199C14.0463 11.2506 14.3778 11.116 14.8008 11.116H16.0528V19.8951C15.9189 19.8932 15.7846 19.8919 15.6496 19.8919C15.5837 19.8919 15.5182 19.8926 15.4525 19.893V15.3093ZM18.3389 15.3093H17.6542V19.9626C17.4557 19.9485 17.2556 19.9365 17.0539 19.9266V11.116H17.6542V14.7078H17.782L18.0143 13.6767L18.7175 11.116H19.3177L18.2815 14.7078H18.9404L19.3598 20.1383C19.1434 20.1087 18.9247 20.0815 18.7032 20.057L18.3389 15.3093ZM20.8783 11.116V20.3951C20.681 20.3551 20.4809 20.3172 20.2781 20.2815V11.116H20.8783ZM21.1623 20.4548L21.873 11.116H23.1077V20.9816C22.9121 20.9169 22.7122 20.8544 22.5075 20.7948V12.4909L22.5933 11.2019H22.4218L21.708 20.5808C21.5289 20.5369 21.3469 20.4949 21.1623 20.4548Z" fill="black"/>
    <path d="M26.7035 11.116H29.7035V8.11597H26.7035V11.116ZM26.7035 22.8917L24.6948 25.1199L29.7035 29.6353V22.8917H26.7035ZM26.1033 22.4153H23.1033V23.972L24.3761 24.8682L26.1033 22.4153ZM26.1033 15.3093H29.1033V12.3093H26.1033V15.3093ZM24.7313 15.3093V12.3093H21.7313V15.3093H24.7313ZM24.7313 21.626L23.4429 24.3353L27.7313 26.3747V21.626H24.7313ZM24.1311 21.3602H21.1311V23.3663L22.9851 24.1327L24.1311 21.3602ZM24.1311 11.116V8.11597H21.1311V11.116H24.1311ZM24.7313 11.116H27.7313V8.11597H24.7313V11.116ZM24.7313 14.7078H21.7313V17.7078H24.7313V14.7078ZM26.1033 14.7078V17.7078H29.1033V14.7078H26.1033ZM26.1033 11.116V8.11597H23.1033V11.116H26.1033ZM6.77822 11.116H9.77822V8.11597H6.77822V11.116ZM6.77822 11.7175V14.7175H9.77822V11.7175H6.77822ZM5.23476 11.7175V8.71748H2.23476V11.7175H5.23476ZM5.23476 22.3886L6.94577 24.8529L8.23476 23.9579V22.3886H5.23476ZM4.63452 22.857H1.63452V29.5148L6.6219 25.1043L4.63452 22.857ZM4.63452 11.116V8.11597H1.63452V11.116H4.63452ZM9.89779 11.116L12.8842 11.4012L13.198 8.11597H9.89779V11.116ZM8.97846 20.7417L9.78683 23.6308L11.7692 23.0761L11.9649 21.027L8.97846 20.7417ZM8.36052 20.9264L5.37411 20.6412L4.94189 25.1664L9.27254 23.7844L8.36052 20.9264ZM8.89703 15.3093L11.8834 15.5946L12.1972 12.3093H8.89703V15.3093ZM7.65123 15.3093L4.66679 15.6145L4.94232 18.3093H7.65123V15.3093ZM7.22249 11.116V8.11597H3.90013L4.23805 11.4211L7.22249 11.116ZM7.82273 11.116L10.8072 10.8108L10.5316 8.11597H7.82273V11.116ZM8.18996 14.7078L5.20552 15.013L5.48104 17.7078H8.18996V14.7078ZM8.95451 14.7078V17.7078H11.6816L11.9409 14.9931L8.95451 14.7078ZM9.29756 11.116V8.11597H6.57043L6.31115 10.8307L9.29756 11.116ZM12.5651 11.116H15.5651V8.11597H12.5651V11.116ZM12.5651 20.0605L12.8984 23.0419L15.5651 22.7439V20.0605H12.5651ZM11.9649 20.1347H8.96491V23.5683L12.3674 23.1076L11.9649 20.1347ZM11.9649 11.7175H14.9649V8.71748H11.9649V11.7175ZM11.4828 11.7175V8.71748H8.72803L8.49371 11.4623L11.4828 11.7175ZM10.7475 20.3313L11.3026 23.2795L13.5427 22.8577L13.7366 20.5865L10.7475 20.3313ZM10.1372 20.4547L7.14807 20.1991L6.8017 24.2487L10.7736 23.3865L10.1372 20.4547ZM10.9359 11.116V8.11597H8.18158L7.94685 10.8603L10.9359 11.116ZM15.4525 11.7175H18.4525V8.71748H15.4525V11.7175ZM14.2349 11.9495L11.9073 10.0567L11.907 10.0572L14.2349 11.9495ZM14.2349 14.4759L11.907 16.3682L11.9073 16.3686L14.2349 14.4759ZM15.4525 14.7078V17.7078H18.4525V14.7078H15.4525ZM15.4525 15.3093H18.4525V12.3093H15.4525V15.3093ZM14.9334 15.3093V12.3093H12.2886L11.9571 14.9333L14.9334 15.3093ZM14.3508 19.9215L14.4864 22.9184L17.0105 22.8042L17.3271 20.2975L14.3508 19.9215ZM13.7463 19.9554L10.7699 19.5793L10.3135 23.1922L13.947 22.9487L13.7463 19.9554ZM14.3413 15.2459L17.3176 15.622L17.6347 13.1118L15.2141 12.3757L14.3413 15.2459ZM13.8062 14.9054L16.0455 12.909L16.045 12.9085L13.8062 14.9054ZM13.8062 11.5199L16.045 13.5168L16.0454 13.5163L13.8062 11.5199ZM16.0528 11.116H19.0528V8.11597H16.0528V11.116ZM16.0528 19.8951L16.0108 22.8948L19.0528 22.9373V19.8951H16.0528ZM15.4525 19.893H12.4525V22.9118L15.4713 22.8929L15.4525 19.893ZM18.3389 15.3093L21.3301 15.0798L21.1175 12.3093H18.3389V15.3093ZM17.6542 15.3093V12.3093H14.6542V15.3093H17.6542ZM17.6542 19.9626L17.4424 22.9551L20.6542 23.1824V19.9626H17.6542ZM17.0539 19.9266H14.0539V22.7831L16.9069 22.923L17.0539 19.9266ZM17.0539 11.116V8.11597H14.0539V11.116H17.0539ZM17.6542 11.116H20.6542V8.11597H17.6542V11.116ZM17.6542 14.7078H14.6542V17.7078H17.6542V14.7078ZM17.782 14.7078V17.7078H20.1813L20.7086 15.3671L17.782 14.7078ZM18.0143 13.6767L15.1214 12.8822L15.1029 12.9494L15.0876 13.0174L18.0143 13.6767ZM18.7175 11.116V8.11597H16.4303L15.8246 10.3215L18.7175 11.116ZM19.3177 11.116L22.2001 11.9475L23.3055 8.11597H19.3177V11.116ZM18.2815 14.7078L15.399 13.8763L14.2936 17.7078H18.2815V14.7078ZM18.9404 14.7078L21.9315 14.4768L21.7176 11.7078H18.9404V14.7078ZM19.3598 20.1383L18.9537 23.1107L22.6371 23.6139L22.3509 19.9073L19.3598 20.1383ZM18.7032 20.057L15.712 20.2866L15.9024 22.7665L18.3745 23.039L18.7032 20.057ZM20.8783 11.116H23.8783V8.11597H20.8783V11.116ZM20.8783 20.3951L20.2807 23.335L23.8783 24.0663V20.3951H20.8783ZM20.2781 20.2815H17.2781V22.8002L19.7587 23.2362L20.2781 20.2815ZM20.2781 11.116V8.11597H17.2781V11.116H20.2781ZM21.1623 20.4548L18.1709 20.2272L17.9727 22.8321L20.5256 23.3865L21.1623 20.4548ZM21.873 11.116V8.11597H19.0926L18.8816 10.8883L21.873 11.116ZM23.1077 11.116H26.1077V8.11597H23.1077V11.116ZM23.1077 20.9816L22.1659 23.8299L26.1077 25.1333V20.9816H23.1077ZM22.5075 20.7948H19.5075V23.0453L21.6681 23.675L22.5075 20.7948ZM22.5075 12.4909L19.5141 12.2917L19.5075 12.3912V12.4909H22.5075ZM22.5933 11.2019L25.5866 11.401L25.7995 8.2019H22.5933V11.2019ZM22.4218 11.2019V8.2019H19.6414L19.4304 10.9743L22.4218 11.2019ZM21.708 20.5808L20.994 23.4946L24.4309 24.3368L24.6994 20.8085L21.708 20.5808ZM23.7035 11.116V22.8917H29.7035V11.116H23.7035ZM28.7122 20.6635C28.4338 20.4124 28.1382 20.1791 27.8304 19.9623L24.3761 24.8682C24.5051 24.959 24.6102 25.0437 24.6948 25.1199L28.7122 20.6635ZM29.1033 22.4153V15.3093H23.1033V22.4153H29.1033ZM26.1033 12.3093H24.7313V18.3093H26.1033V12.3093ZM21.7313 15.3093V21.626H27.7313V15.3093H21.7313ZM26.0197 18.9168C25.7761 18.8009 25.528 18.6914 25.277 18.5877L22.9851 24.1327C23.1485 24.2002 23.301 24.2678 23.4429 24.3353L26.0197 18.9168ZM27.1311 21.3602V11.116H21.1311V21.3602H27.1311ZM24.1311 14.116H24.7313V8.11597H24.1311V14.116ZM21.7313 11.116V14.7078H27.7313V11.116H21.7313ZM24.7313 17.7078H26.1033V11.7078H24.7313V17.7078ZM29.1033 14.7078V11.116H23.1033V14.7078H29.1033ZM26.1033 14.116H26.7035V8.11597H26.1033V14.116ZM3.77822 11.116V11.7175H9.77822V11.116H3.77822ZM6.77822 8.71748H5.23476V14.7175H6.77822V8.71748ZM2.23476 11.7175V22.3886H8.23476V11.7175H2.23476ZM3.52374 19.9244C3.22012 20.1352 2.92585 20.3632 2.64714 20.6097L6.6219 25.1043C6.70698 25.029 6.81388 24.9444 6.94577 24.8529L3.52374 19.9244ZM7.63452 22.857V11.116H1.63452V22.857H7.63452ZM4.63452 14.116H6.77822V8.11597H4.63452V14.116ZM6.91138 10.8307L5.99205 20.4565L11.9649 21.027L12.8842 11.4012L6.91138 10.8307ZM8.17009 17.8527C7.92692 17.9207 7.68603 17.9926 7.4485 18.0684L9.27254 23.7844C9.43747 23.7318 9.60908 23.6805 9.78683 23.6308L8.17009 17.8527ZM11.3469 21.2117L11.8834 15.5946L5.91062 15.0241L5.37411 20.6412L11.3469 21.2117ZM8.89703 12.3093H8.25141V18.3093H8.89703V12.3093ZM8.25141 12.3093H7.65123V18.3093H8.25141V12.3093ZM10.6357 15.0042L10.2069 10.8108L4.23805 11.4211L4.66679 15.6145L10.6357 15.0042ZM7.22249 14.116H7.82273V8.11597H7.22249V14.116ZM4.83829 11.4211L5.20552 15.013L11.1744 14.4027L10.8072 10.8108L4.83829 11.4211ZM8.18996 17.7078H8.95451V11.7078H8.18996V17.7078ZM11.9409 14.9931L12.284 11.4012L6.31115 10.8307L5.9681 14.4226L11.9409 14.9931ZM9.29756 14.116H9.89779V8.11597H9.29756V14.116ZM9.56514 11.116V20.0605H15.5651V11.116H9.56514ZM12.2319 17.0791C12.0059 17.1043 11.7827 17.132 11.5624 17.1618L12.3674 23.1076C12.5431 23.0838 12.7201 23.0619 12.8984 23.0419L12.2319 17.0791ZM14.9649 20.1347V11.7175H8.96491V20.1347H14.9649ZM11.9649 8.71748H11.4828V14.7175H11.9649V8.71748ZM8.49371 11.4623L7.75837 20.0761L13.7366 20.5865L14.472 11.9727L8.49371 11.4623ZM10.1924 17.3831C9.96063 17.4267 9.72989 17.4733 9.50075 17.523L10.7736 23.3865C10.9451 23.3492 11.1215 23.3136 11.3026 23.2795L10.1924 17.3831ZM13.1262 20.7104L13.925 11.3716L7.94685 10.8603L7.14807 20.1991L13.1262 20.7104ZM10.9359 14.116H12.5651V8.11597H10.9359V14.116ZM15.4525 8.71748H14.8008V14.7175H15.4525V8.71748ZM14.8008 8.71748C13.9041 8.71748 12.7476 9.0234 11.9073 10.0567L16.5625 13.8422C16.3013 14.1633 15.9673 14.4043 15.6085 14.5513C15.2681 14.6909 14.9769 14.7175 14.8008 14.7175V8.71748ZM11.907 10.0572C11.1178 11.028 11.0463 12.1506 11.0463 12.7142H17.0463C17.0463 12.6998 17.0489 12.8015 17.0062 12.975C16.9638 13.1469 16.8529 13.4849 16.5628 13.8418L11.907 10.0572ZM11.0463 12.7142V13.6939H17.0463V12.7142H11.0463ZM11.0463 13.6939C11.0463 14.2411 11.1081 15.3854 11.907 16.3682L16.5628 12.5835C16.8623 12.9519 16.9707 13.2987 17.0098 13.461C17.05 13.6276 17.0463 13.7203 17.0463 13.6939H11.0463ZM11.9073 16.3686C12.7476 17.4019 13.9041 17.7078 14.8008 17.7078V11.7078C14.9769 11.7078 15.2681 11.7344 15.6085 11.874C15.9673 12.021 16.3013 12.262 16.5625 12.5831L11.9073 16.3686ZM14.8008 17.7078H15.4525V11.7078H14.8008V17.7078ZM18.4525 14.7078V11.7175H12.4525V14.7078H18.4525ZM15.4525 12.3093H14.9334V18.3093H15.4525V12.3093ZM11.9571 14.9333L11.3744 19.5455L17.3271 20.2975L17.9098 15.6853L11.9571 14.9333ZM14.2151 16.9245C13.9907 16.9347 13.7675 16.9472 13.5456 16.9621L13.947 22.9487C14.1249 22.9367 14.3048 22.9266 14.4864 22.9184L14.2151 16.9245ZM16.7226 20.3314L17.3176 15.622L11.3649 14.8699L10.7699 19.5793L16.7226 20.3314ZM15.2141 12.3757C15.5207 12.469 15.8179 12.6537 16.0455 12.909L11.5669 16.9019C12.0845 17.4824 12.7383 17.8941 13.4684 18.1162L15.2141 12.3757ZM16.045 12.9085C16.4882 13.4054 16.446 13.8494 16.446 13.6939H10.446C10.446 14.6153 10.644 15.8671 11.5674 16.9024L16.045 12.9085ZM16.446 13.6939V12.7142H10.446V13.6939H16.446ZM16.446 12.7142C16.446 12.5902 16.4792 13.0301 16.045 13.5168L11.5674 9.52289C10.653 10.5481 10.446 11.7843 10.446 12.7142H16.446ZM16.0454 13.5163C15.8627 13.7213 15.6266 13.8897 15.3636 13.9965C15.1119 14.0987 14.9071 14.116 14.8008 14.116V8.11597C13.6847 8.11597 12.4759 8.5039 11.567 9.52341L16.0454 13.5163ZM14.8008 14.116H16.0528V8.11597H14.8008V14.116ZM13.0528 11.116V19.8951H19.0528V11.116H13.0528ZM16.0947 16.8954C15.9525 16.8934 15.8033 16.8919 15.6496 16.8919V22.8919C15.7659 22.8919 15.8853 22.893 16.0108 22.8948L16.0947 16.8954ZM15.6496 16.8919C15.5713 16.8919 15.4851 16.8927 15.4338 16.893L15.4713 22.8929C15.5513 22.8924 15.5962 22.8919 15.6496 22.8919V16.8919ZM18.4525 19.893V15.3093H12.4525V19.893H18.4525ZM18.3389 12.3093H17.6542V18.3093H18.3389V12.3093ZM14.6542 15.3093V19.9626H20.6542V15.3093H14.6542ZM17.866 16.9701C17.6458 16.9545 17.4241 16.9412 17.2009 16.9302L16.9069 22.923C17.087 22.9319 17.2655 22.9426 17.4424 22.9551L17.866 16.9701ZM20.0539 19.9266V11.116H14.0539V19.9266H20.0539ZM17.0539 14.116H17.6542V8.11597H17.0539V14.116ZM14.6542 11.116V14.7078H20.6542V11.116H14.6542ZM17.6542 17.7078H17.782V11.7078H17.6542V17.7078ZM20.7086 15.3671L20.9409 14.336L15.0876 13.0174L14.8553 14.0485L20.7086 15.3671ZM20.9072 14.4711L21.6104 11.9104L15.8246 10.3215L15.1214 12.8822L20.9072 14.4711ZM18.7175 14.116H19.3177V8.11597H18.7175V14.116ZM16.4352 10.2844L15.399 13.8763L21.1639 15.5394L22.2001 11.9475L16.4352 10.2844ZM18.2815 17.7078H18.9404V11.7078H18.2815V17.7078ZM15.9493 14.9388L16.3687 20.3693L22.3509 19.9073L21.9315 14.4768L15.9493 14.9388ZM19.7659 17.1659C19.5261 17.1331 19.2814 17.1026 19.0319 17.0751L18.3745 23.039C18.5679 23.0603 18.7608 23.0843 18.9537 23.1107L19.7659 17.1659ZM21.6944 19.8275L21.3301 15.0798L15.3477 15.5389L15.712 20.2866L21.6944 19.8275ZM17.8783 11.116V20.3951H23.8783V11.116H17.8783ZM21.4759 17.4553C21.2518 17.4097 21.0255 17.3669 20.7974 17.3268L19.7587 23.2362C19.9362 23.2674 20.1103 23.3004 20.2807 23.335L21.4759 17.4553ZM23.2781 20.2815V11.116H17.2781V20.2815H23.2781ZM20.2781 14.116H20.8783V8.11597H20.2781V14.116ZM24.1536 20.6824L24.8643 11.3436L18.8816 10.8883L18.1709 20.2272L24.1536 20.6824ZM21.873 14.116H23.1077V8.11597H21.873V14.116ZM20.1077 11.116V20.9816H26.1077V11.116H20.1077ZM24.0495 18.1332C23.8219 18.058 23.5878 17.9848 23.3469 17.9146L21.6681 23.675C21.8365 23.724 22.0023 23.7758 22.1659 23.8299L24.0495 18.1332ZM25.5075 20.7948V12.4909H19.5075V20.7948H25.5075ZM25.5009 12.69L25.5866 11.401L19.5999 11.0028L19.5141 12.2917L25.5009 12.69ZM22.5933 8.2019H22.4218V14.2019H22.5933V8.2019ZM19.4304 10.9743L18.7167 20.3532L24.6994 20.8085L25.4131 11.4295L19.4304 10.9743ZM22.4221 17.667C22.2168 17.6167 22.009 17.5687 21.799 17.5231L20.5256 23.3865C20.6849 23.421 20.841 23.4571 20.994 23.4946L22.4221 17.667Z" fill="black" mask="url(#path-2-inside-1_135_4649)"/>
    <mask id="path-4-inside-2_135_4649" fill="white">
        <path d="M10.1452 10.8809H10.4172V10.6695C10.8439 10.6695 11.1627 10.3664 11.1627 9.96466C11.1627 9.56287 10.8439 9.25977 10.4172 9.25977V9.04834H10.1452V9.25977C9.71853 9.25977 9.39966 9.56287 9.39966 9.96466C9.39966 10.3664 9.71853 10.6695 10.1452 10.6695V10.8809ZM10.1452 10.4064C9.88266 10.4064 9.69043 10.2183 9.69043 9.96466C9.69043 9.7109 9.88266 9.52295 10.1452 9.52295V10.4064ZM10.4172 10.4064V9.52295C10.6798 9.52295 10.872 9.7109 10.872 9.96466C10.872 10.2183 10.6798 10.4064 10.4172 10.4064ZM11.779 10.7517H12.0698L12.7497 9.17759H12.459L12.1096 9.98579L11.7744 9.17759H11.4719L11.9549 10.3429L11.779 10.7517ZM13.0119 11.1159H13.2908V10.7517H14.2569V11.1159H14.5358V10.4886H14.3365V9.17759H13.2744V9.84718C13.2744 10.2536 13.1783 10.4886 13.0119 10.4886V11.1159ZM13.4128 10.4886C13.5112 10.3476 13.5534 10.1526 13.5534 9.84483V9.4407H14.0576V10.4886H13.4128ZM14.9153 10.7517H15.2201L15.5529 10.1737L15.8812 10.7517H16.2024L15.7406 9.94821L16.193 9.17759H15.8906L15.5718 9.7438L15.2646 9.17759H14.9434L15.3842 9.96934L14.9153 10.7517ZM17.3508 10.7799C17.801 10.7799 18.1527 10.4205 18.1527 9.96466C18.1527 9.5065 17.801 9.14931 17.3508 9.14931C16.9007 9.14931 16.5466 9.5065 16.5466 9.96466C16.5466 10.4228 16.8984 10.7799 17.3508 10.7799ZM17.3508 10.5073C17.0554 10.5073 16.8397 10.2771 16.8397 9.96466C16.8397 9.65213 17.0554 9.42186 17.3508 9.42186C17.6439 9.42186 17.8596 9.65213 17.8596 9.96466C17.8596 10.2795 17.6439 10.5073 17.3508 10.5073ZM18.6987 10.7682C18.9729 10.7682 19.116 10.592 19.116 10.2419V9.4407H19.6365V10.7517H19.9155V9.17759H18.837V10.2419C18.837 10.4064 18.776 10.4886 18.6611 10.4886C18.6353 10.4886 18.6002 10.4839 18.5791 10.4768V10.7564C18.6095 10.7634 18.6541 10.7682 18.6987 10.7682ZM20.5552 10.7682C20.8294 10.7682 20.9725 10.592 20.9725 10.2419V9.4407H21.493V10.7517H21.7719V9.17759H20.6935V10.2419C20.6935 10.4064 20.6325 10.4886 20.5176 10.4886C20.4918 10.4886 20.4567 10.4839 20.4355 10.4768V10.7564C20.466 10.7634 20.5106 10.7682 20.5552 10.7682Z"/>
    </mask>
    <path d="M10.1452 10.8809H10.4172V10.6695C10.8439 10.6695 11.1627 10.3664 11.1627 9.96466C11.1627 9.56287 10.8439 9.25977 10.4172 9.25977V9.04834H10.1452V9.25977C9.71853 9.25977 9.39966 9.56287 9.39966 9.96466C9.39966 10.3664 9.71853 10.6695 10.1452 10.6695V10.8809ZM10.1452 10.4064C9.88266 10.4064 9.69043 10.2183 9.69043 9.96466C9.69043 9.7109 9.88266 9.52295 10.1452 9.52295V10.4064ZM10.4172 10.4064V9.52295C10.6798 9.52295 10.872 9.7109 10.872 9.96466C10.872 10.2183 10.6798 10.4064 10.4172 10.4064ZM11.779 10.7517H12.0698L12.7497 9.17759H12.459L12.1096 9.98579L11.7744 9.17759H11.4719L11.9549 10.3429L11.779 10.7517ZM13.0119 11.1159H13.2908V10.7517H14.2569V11.1159H14.5358V10.4886H14.3365V9.17759H13.2744V9.84718C13.2744 10.2536 13.1783 10.4886 13.0119 10.4886V11.1159ZM13.4128 10.4886C13.5112 10.3476 13.5534 10.1526 13.5534 9.84483V9.4407H14.0576V10.4886H13.4128ZM14.9153 10.7517H15.2201L15.5529 10.1737L15.8812 10.7517H16.2024L15.7406 9.94821L16.193 9.17759H15.8906L15.5718 9.7438L15.2646 9.17759H14.9434L15.3842 9.96934L14.9153 10.7517ZM17.3508 10.7799C17.801 10.7799 18.1527 10.4205 18.1527 9.96466C18.1527 9.5065 17.801 9.14931 17.3508 9.14931C16.9007 9.14931 16.5466 9.5065 16.5466 9.96466C16.5466 10.4228 16.8984 10.7799 17.3508 10.7799ZM17.3508 10.5073C17.0554 10.5073 16.8397 10.2771 16.8397 9.96466C16.8397 9.65213 17.0554 9.42186 17.3508 9.42186C17.6439 9.42186 17.8596 9.65213 17.8596 9.96466C17.8596 10.2795 17.6439 10.5073 17.3508 10.5073ZM18.6987 10.7682C18.9729 10.7682 19.116 10.592 19.116 10.2419V9.4407H19.6365V10.7517H19.9155V9.17759H18.837V10.2419C18.837 10.4064 18.776 10.4886 18.6611 10.4886C18.6353 10.4886 18.6002 10.4839 18.5791 10.4768V10.7564C18.6095 10.7634 18.6541 10.7682 18.6987 10.7682ZM20.5552 10.7682C20.8294 10.7682 20.9725 10.592 20.9725 10.2419V9.4407H21.493V10.7517H21.7719V9.17759H20.6935V10.2419C20.6935 10.4064 20.6325 10.4886 20.5176 10.4886C20.4918 10.4886 20.4567 10.4839 20.4355 10.4768V10.7564C20.466 10.7634 20.5106 10.7682 20.5552 10.7682Z" fill="black"/>
    <path d="M10.1452 10.8809H7.14522V13.8809H10.1452V10.8809ZM10.4172 10.8809V13.8809H13.4172V10.8809H10.4172ZM10.4172 10.6695V7.66948H7.41718V10.6695H10.4172ZM10.4172 9.25977H7.41718V12.2598H10.4172V9.25977ZM10.4172 9.04834H13.4172V6.04834H10.4172V9.04834ZM10.1452 9.04834V6.04834H7.14522V9.04834H10.1452ZM10.1452 9.25977V12.2598H13.1452V9.25977H10.1452ZM10.1452 10.6695H13.1452V7.66948H10.1452V10.6695ZM10.1452 10.4064V13.4064H13.1452V10.4064H10.1452ZM10.1452 9.52295H13.1452V6.52295H10.1452V9.52295ZM10.4172 10.4064H7.41718V13.4064H10.4172V10.4064ZM10.4172 9.52295V6.52295H7.41718V9.52295H10.4172ZM11.779 10.7517L9.02313 9.5663L7.22277 13.7517H11.779V10.7517ZM12.0698 10.7517V13.7517H14.0419L14.8238 11.9413L12.0698 10.7517ZM12.7497 9.17759L15.5037 10.3671L17.3133 6.17759H12.7497V9.17759ZM12.459 9.17759V6.17759H10.4875L9.70521 7.98724L12.459 9.17759ZM12.1096 9.98579L9.33851 11.1352L12.0525 17.6786L14.8633 11.1761L12.1096 9.98579ZM11.7744 9.17759L14.5455 8.02821L13.7779 6.17759H11.7744V9.17759ZM11.4719 9.17759V6.17759H6.98112L8.70051 10.3262L11.4719 9.17759ZM11.9549 10.3429L14.7107 11.5283L15.2113 10.3645L14.7263 9.19425L11.9549 10.3429ZM13.0119 11.1159H10.0119V14.1159H13.0119V11.1159ZM13.2908 11.1159V14.1159H16.2908V11.1159H13.2908ZM13.2908 10.7517V7.75173H10.2908V10.7517H13.2908ZM14.2569 10.7517H17.2569V7.75173H14.2569V10.7517ZM14.2569 11.1159H11.2569V14.1159H14.2569V11.1159ZM14.5358 11.1159V14.1159H17.5358V11.1159H14.5358ZM14.5358 10.4886H17.5358V7.48861H14.5358V10.4886ZM14.3365 10.4886H11.3365V13.4886H14.3365V10.4886ZM14.3365 9.17759H17.3365V6.17759H14.3365V9.17759ZM13.2744 9.17759V6.17759H10.2744V9.17759H13.2744ZM13.0119 10.4886V7.48861H10.0119V10.4886H13.0119ZM13.4128 10.4886L10.9528 8.77156L7.6604 13.4886H13.4128V10.4886ZM13.5534 9.4407V6.4407H10.5534V9.4407H13.5534ZM14.0576 9.4407H17.0576V6.4407H14.0576V9.4407ZM14.0576 10.4886V13.4886H17.0576V10.4886H14.0576ZM14.9153 10.7517L12.3421 9.20946L9.61963 13.7517H14.9153V10.7517ZM15.2201 10.7517V13.7517H16.9544L17.8199 12.2488L15.2201 10.7517ZM15.5529 10.1737L18.1617 8.69235L15.5711 4.13041L12.9532 8.67668L15.5529 10.1737ZM15.8812 10.7517L13.2724 12.2331L14.1348 13.7517H15.8812V10.7517ZM16.2024 10.7517V13.7517H21.3871L18.8034 9.25671L16.2024 10.7517ZM15.7406 9.94821L13.1535 8.42927L12.2711 9.93221L13.1396 11.4432L15.7406 9.94821ZM16.193 9.17759L18.7801 10.6965L21.4333 6.17759H16.193V9.17759ZM15.8906 9.17759V6.17759H14.1369L13.2764 7.70571L15.8906 9.17759ZM15.5718 9.7438L12.9348 11.1744L15.523 15.945L18.1859 11.2157L15.5718 9.7438ZM15.2646 9.17759L17.9015 7.74699L17.0501 6.17759H15.2646V9.17759ZM14.9434 9.17759V6.17759H9.83975L12.3222 10.6368L14.9434 9.17759ZM15.3842 9.96934L17.9574 11.5116L18.8486 10.0247L18.0054 8.51011L15.3842 9.96934ZM19.116 9.4407V6.4407H16.116V9.4407H19.116ZM19.6365 9.4407H22.6365V6.4407H19.6365V9.4407ZM19.6365 10.7517H16.6365V13.7517H19.6365V10.7517ZM19.9155 10.7517V13.7517H22.9155V10.7517H19.9155ZM19.9155 9.17759H22.9155V6.17759H19.9155V9.17759ZM18.837 9.17759V6.17759H15.837V9.17759H18.837ZM18.5791 10.4768L19.5248 7.62982L15.5791 6.31905V10.4768H18.5791ZM18.5791 10.7564H15.5791V13.1439L17.9056 13.6798L18.5791 10.7564ZM20.9725 9.4407V6.4407H17.9725V9.4407H20.9725ZM21.493 9.4407H24.493V6.4407H21.493V9.4407ZM21.493 10.7517H18.493V13.7517H21.493V10.7517ZM21.7719 10.7517V13.7517H24.7719V10.7517H21.7719ZM21.7719 9.17759H24.7719V6.17759H21.7719V9.17759ZM20.6935 9.17759V6.17759H17.6935V9.17759H20.6935ZM20.4355 10.4768L21.3813 7.62982L17.4355 6.31905V10.4768H20.4355ZM20.4355 10.7564H17.4355V13.1439L19.7621 13.6798L20.4355 10.7564ZM10.1452 13.8809H10.4172V7.88091H10.1452V13.8809ZM13.4172 10.8809V10.6695H7.41718V10.8809H13.4172ZM10.4172 13.6695C12.3447 13.6695 14.1627 12.1752 14.1627 9.96466H8.16275C8.16275 9.34049 8.42272 8.7293 8.88722 8.28943C9.34465 7.85626 9.91028 7.66948 10.4172 7.66948V13.6695ZM14.1627 9.96466C14.1627 7.75424 12.3448 6.25977 10.4172 6.25977V12.2598C9.91028 12.2598 9.34462 12.073 8.88716 11.6398C8.42263 11.1999 8.16275 10.5887 8.16275 9.96466H14.1627ZM13.4172 9.25977V9.04834H7.41718V9.25977H13.4172ZM10.4172 6.04834H10.1452V12.0483H10.4172V6.04834ZM7.14522 9.04834V9.25977H13.1452V9.04834H7.14522ZM10.1452 6.25977C8.2178 6.25977 6.39966 7.75409 6.39966 9.96466H12.3997C12.3997 10.5888 12.1397 11.2 11.6752 11.6398C11.2178 12.0729 10.6522 12.2598 10.1452 12.2598V6.25977ZM6.39966 9.96466C6.39966 12.1753 8.21796 13.6695 10.1452 13.6695V7.66948C10.6522 7.66948 11.2178 7.8563 11.6751 8.28937C12.1396 8.72915 12.3997 9.34033 12.3997 9.96466H6.39966ZM7.14522 10.6695V10.8809H13.1452V10.6695H7.14522ZM10.1452 7.40637C10.7451 7.40637 11.3974 7.63021 11.9118 8.13078C12.4298 8.63499 12.6904 9.30818 12.6904 9.96466H6.69043C6.69043 11.9513 8.30296 13.4064 10.1452 13.4064V7.40637ZM12.6904 9.96466C12.6904 10.621 12.4299 11.2943 11.9117 11.7986C11.3972 12.2993 10.7449 12.5229 10.1452 12.5229V6.52295C8.30323 6.52295 6.69043 7.97768 6.69043 9.96466H12.6904ZM7.14522 9.52295V10.4064H13.1452V9.52295H7.14522ZM13.4172 10.4064V9.52295H7.41718V10.4064H13.4172ZM10.4172 12.5229C9.81774 12.5229 9.16543 12.2994 8.6509 11.7987C8.13257 11.2943 7.87203 10.621 7.87203 9.96466H13.872C13.872 7.97742 12.259 6.52295 10.4172 6.52295V12.5229ZM7.87203 9.96466C7.87203 9.30816 8.13266 8.63493 8.6508 8.13069C9.16519 7.6301 9.81748 7.40637 10.4172 7.40637V13.4064C12.2592 13.4064 13.872 11.9516 13.872 9.96466H7.87203ZM11.779 13.7517H12.0698V7.75173H11.779V13.7517ZM14.8238 11.9413L15.5037 10.3671L9.99558 7.98804L9.31568 9.56217L14.8238 11.9413ZM12.7497 6.17759H12.459V12.1776H12.7497V6.17759ZM9.70521 7.98724L9.35586 8.79544L14.8633 11.1761L15.2127 10.3679L9.70521 7.98724ZM14.8807 8.83641L14.5455 8.02821L9.00328 10.327L9.33851 11.1352L14.8807 8.83641ZM11.7744 6.17759H11.4719V12.1776H11.7744V6.17759ZM8.70051 10.3262L9.18345 11.4915L14.7263 9.19425L14.2433 8.02898L8.70051 10.3262ZM9.199 9.15743L9.02313 9.5663L14.5348 11.9372L14.7107 11.5283L9.199 9.15743ZM13.0119 14.1159H13.2908V8.11588H13.0119V14.1159ZM16.2908 11.1159V10.7517H10.2908V11.1159H16.2908ZM13.2908 13.7517H14.2569V7.75173H13.2908V13.7517ZM11.2569 10.7517V11.1159H17.2569V10.7517H11.2569ZM14.2569 14.1159H14.5358V8.11588H14.2569V14.1159ZM17.5358 11.1159V10.4886H11.5358V11.1159H17.5358ZM14.5358 7.48861H14.3365V13.4886H14.5358V7.48861ZM17.3365 10.4886V9.17759H11.3365V10.4886H17.3365ZM14.3365 6.17759H13.2744V12.1776H14.3365V6.17759ZM10.2744 9.17759V9.84718H16.2744V9.17759H10.2744ZM10.2744 9.84718C10.2744 9.83572 10.2748 9.77752 10.2886 9.68351C10.3011 9.59798 10.3343 9.41556 10.4291 9.18397C10.5187 8.96502 10.7208 8.5615 11.1468 8.18848C11.6239 7.77079 12.2781 7.48861 13.0119 7.48861V13.4886C14.8694 13.4886 15.731 12.0699 15.982 11.4566C16.2402 10.8257 16.2744 10.2175 16.2744 9.84718H10.2744ZM10.0119 10.4886V11.1159H16.0119V10.4886H10.0119ZM15.8728 12.2056C16.5078 11.2959 16.5534 10.3351 16.5534 9.84483H10.5534C10.5534 9.87837 10.5494 9.77113 10.5888 9.59055C10.633 9.38747 10.7331 9.08626 10.9528 8.77156L15.8728 12.2056ZM16.5534 9.84483V9.4407H10.5534V9.84483H16.5534ZM13.5534 12.4407H14.0576V6.4407H13.5534V12.4407ZM11.0576 9.4407V10.4886H17.0576V9.4407H11.0576ZM14.0576 7.48861H13.4128V13.4886H14.0576V7.48861ZM14.9153 13.7517H15.2201V7.75173H14.9153V13.7517ZM17.8199 12.2488L18.1527 11.6708L12.9532 8.67668L12.6203 9.25466L17.8199 12.2488ZM12.9442 11.6551L13.2724 12.2331L18.4899 9.27033L18.1617 8.69235L12.9442 11.6551ZM15.8812 13.7517H16.2024V7.75173H15.8812V13.7517ZM18.8034 9.25671L18.3415 8.45319L13.1396 11.4432L13.6015 12.2467L18.8034 9.25671ZM18.3276 11.4671L18.7801 10.6965L13.606 7.65865L13.1535 8.42927L18.3276 11.4671ZM16.193 6.17759H15.8906V12.1776H16.193V6.17759ZM13.2764 7.70571L12.9576 8.27192L18.1859 11.2157L18.5047 10.6495L13.2764 7.70571ZM18.2087 8.3132L17.9015 7.74699L12.6276 10.6082L12.9348 11.1744L18.2087 8.3132ZM15.2646 6.17759H14.9434V12.1776H15.2646V6.17759ZM12.3222 10.6368L12.763 11.4286L18.0054 8.51011L17.5646 7.71836L12.3222 10.6368ZM12.811 8.42708L12.3421 9.20946L17.4885 12.294L17.9574 11.5116L12.811 8.42708ZM17.3508 13.7799C19.5091 13.7799 21.1527 12.0256 21.1527 9.96466H15.1527C15.1527 8.81533 16.0929 7.77988 17.3508 7.77988V13.7799ZM21.1527 9.96466C21.1527 7.89623 19.5041 6.14931 17.3508 6.14931V12.1493C16.098 12.1493 15.1527 11.1168 15.1527 9.96466H21.1527ZM17.3508 6.14931C15.2092 6.14931 13.5466 7.88442 13.5466 9.96466H19.5466C19.5466 11.1286 18.5921 12.1493 17.3508 12.1493V6.14931ZM13.5466 9.96466C13.5466 12.0397 15.2019 13.7799 17.3508 13.7799V7.77988C18.5949 7.77988 19.5466 8.80586 19.5466 9.96466H13.5466ZM17.3508 7.50734C18.0165 7.50734 18.6842 7.78143 19.1701 8.29811C19.6459 8.80411 19.8397 9.42309 19.8397 9.96466H13.8397C13.8397 11.7573 15.2272 13.5073 17.3508 13.5073V7.50734ZM19.8397 9.96466C19.8397 10.506 19.646 11.1249 19.1703 11.6309C18.6846 12.1476 18.0168 12.4219 17.3508 12.4219V6.42186C15.2266 6.42186 13.8397 8.17262 13.8397 9.96466H19.8397ZM17.3508 12.4219C16.6769 12.4219 16.0088 12.1426 15.5261 11.6275C15.0532 11.1228 14.8596 10.506 14.8596 9.96466H20.8596C20.8596 8.18175 19.4813 6.42186 17.3508 6.42186V12.4219ZM14.8596 9.96466C14.8596 9.42858 15.0507 8.80826 15.5294 8.2991C16.0173 7.7802 16.6865 7.50734 17.3508 7.50734V13.5073C19.4724 13.5073 20.8596 11.7593 20.8596 9.96466H14.8596ZM18.6987 13.7682C19.5225 13.7682 20.5887 13.4684 21.3555 12.507C22.0236 11.6695 22.116 10.7515 22.116 10.2419H16.116C16.116 10.0824 16.1369 9.42756 16.6649 8.76559C17.2916 7.97989 18.1492 7.76818 18.6987 7.76818V13.7682ZM22.116 10.2419V9.4407H16.116V10.2419H22.116ZM19.116 12.4407H19.6365V6.4407H19.116V12.4407ZM16.6365 9.4407V10.7517H22.6365V9.4407H16.6365ZM19.6365 13.7517H19.9155V7.75173H19.6365V13.7517ZM22.9155 10.7517V9.17759H16.9154V10.7517H22.9155ZM19.9155 6.17759H18.837V12.1776H19.9155V6.17759ZM15.837 9.17759V10.2419H21.837V9.17759H15.837ZM15.837 10.2419C15.837 10.0366 15.8606 9.36426 16.3576 8.67399C16.9781 7.81208 17.9118 7.48861 18.6611 7.48861V13.4886C19.5254 13.4886 20.5469 13.124 21.2267 12.1799C21.783 11.4074 21.837 10.6116 21.837 10.2419H15.837ZM18.6611 7.48861C18.8123 7.48861 18.9389 7.5009 19.0368 7.51468C19.0909 7.5223 19.155 7.53303 19.2272 7.54854C19.2947 7.56304 19.3991 7.58805 19.5248 7.62982L17.6333 13.3239C18.033 13.4567 18.4019 13.4886 18.6611 13.4886V7.48861ZM15.5791 10.4768V10.7564H21.5791V10.4768H15.5791ZM17.9056 13.6798C18.205 13.7488 18.4828 13.7682 18.6987 13.7682V7.76818C18.7791 7.76818 18.857 7.77226 18.9337 7.77998C19.0038 7.78703 19.1147 7.80122 19.2525 7.83298L17.9056 13.6798ZM20.5552 13.7682C21.3789 13.7682 22.4451 13.4684 23.2119 12.507C23.88 11.6695 23.9725 10.7515 23.9725 10.2419H17.9725C17.9725 10.0824 17.9933 9.42756 18.5214 8.76559C19.1481 7.97989 20.0056 7.76818 20.5552 7.76818V13.7682ZM23.9725 10.2419V9.4407H17.9725V10.2419H23.9725ZM20.9725 12.4407H21.493V6.4407H20.9725V12.4407ZM18.493 9.4407V10.7517H24.493V9.4407H18.493ZM21.493 13.7517H21.7719V7.75173H21.493V13.7517ZM24.7719 10.7517V9.17759H18.7719V10.7517H24.7719ZM21.7719 6.17759H20.6935V12.1776H21.7719V6.17759ZM17.6935 9.17759V10.2419H23.6935V9.17759H17.6935ZM17.6935 10.2419C17.6935 10.0366 17.717 9.36426 18.214 8.67399C18.8346 7.81208 19.7683 7.48861 20.5176 7.48861V13.4886C21.3818 13.4886 22.4034 13.124 23.0832 12.1799C23.6394 11.4074 23.6935 10.6116 23.6935 10.2419H17.6935ZM20.5176 7.48861C20.6688 7.48861 20.7954 7.5009 20.8933 7.51468C20.9474 7.5223 21.0115 7.53303 21.0836 7.54854C21.1512 7.56304 21.2556 7.58805 21.3813 7.62982L19.4898 13.3239C19.8895 13.4567 20.2584 13.4886 20.5176 13.4886V7.48861ZM17.4355 10.4768V10.7564H23.4355V10.4768H17.4355ZM19.7621 13.6798C20.0615 13.7488 20.3392 13.7682 20.5552 13.7682V7.76818C20.6355 7.76818 20.7135 7.77226 20.7902 7.77998C20.8603 7.78703 20.9712 7.80122 21.109 7.83298L19.7621 13.6798Z" fill="black" mask="url(#path-4-inside-2_135_4649)"/>
</svg>