<svg width="32" height="38" viewBox="0 0 32 38" fill="none" xmlns="http://www.w3.org/2000/svg">
<path d="M4 0C1.79086 0 0 1.79086 0 4V28C0 30.2091 1.79086 32 4 32H9.22376C11.4539 32 13.5 33.2369 14.5365 35.2116L16 38L17.4636 35.2116C18.5 33.2369 20.5461 32 22.7762 32H28C30.2091 32 32 30.2091 32 28V4C32 1.79086 30.2091 0 28 0H4Z" fill="white"/>
<path d="M7.25513 16.2128L9.56465 16.3884L9.59451 15.9958L7.65781 15.8485L7.72981 14.9017L7.35699 14.8733L7.25513 16.2128ZM9.6325 15.0166L9.78075 14.4946L7.86183 12.7733L7.75427 13.152L8.62454 13.9392L7.46233 14.1801L7.3484 14.5812L8.95314 14.2355L9.36141 14.6025L9.27283 14.9145L9.6325 15.0166ZM8.85164 10.9685L8.248 12.0184L9.52859 13.0105C9.70022 13.1436 9.77005 13.2676 9.67438 13.434L9.61339 13.5401L9.93753 13.7265L10.0117 13.5974C10.2278 13.2217 10.0755 12.9356 9.73928 12.6774L8.74365 11.9064L8.97952 11.4963L10.6632 12.4644L10.8595 12.1231L8.85164 10.9685ZM11.0824 11.8675L12.0939 10.8066L11.8233 10.5486L11.0835 11.3245L10.6381 10.8998L11.2249 10.2844L10.9543 10.0264L10.3675 10.6418L9.94841 10.2422L10.6882 9.46636L10.4176 9.20832L9.40612 10.2692L11.0824 11.8675ZM13.3926 10.0406L13.7339 9.84423L12.5794 7.83638L12.238 8.03264L12.7131 8.85875L12.082 9.22166L11.7963 8.28666L11.455 8.48293L11.7407 9.41792L11.4711 9.57291L11.6575 9.89705L11.8525 9.78492L12.1506 10.7547L12.492 10.5584L12.1938 9.58865L12.8994 9.1829L13.3926 10.0406ZM13.5535 7.4763L14.0743 9.73312L14.8126 9.56275C15.3124 9.44743 15.533 9.05009 15.4415 8.65353C15.3418 8.22152 14.9775 7.99659 14.4778 8.11191L14.1231 8.19376L13.9371 7.38772L13.5535 7.4763ZM14.3739 9.28025L14.2072 8.55805L14.565 8.47547C14.8004 8.42115 14.9877 8.49681 15.045 8.74505C15.0941 8.95785 14.9671 9.14336 14.7317 9.19768L14.3739 9.28025ZM15.8024 9.37748L16.196 9.3874L16.2116 8.77216L16.5589 8.78093L16.7153 9.40056L17.3339 9.41618L17.3433 9.0424L17.0125 9.03405L16.8561 8.41448L16.6609 8.40949L17.6207 7.10654L17.1642 7.095L16.2211 8.39507L16.2546 7.07199L15.861 7.06201L15.8024 9.37748ZM17.6533 9.45939L18.1108 9.61419L19.4449 8.45877L18.9571 9.90054L19.3301 10.0267L20.0725 7.83277L19.7088 7.70976L18.2309 8.98068L18.7686 7.39156L18.3956 7.26537L17.6533 9.45939Z" fill="#1C140D"/>
<path d="M12.5695 21.7701L11.2832 20.6783L9.84668 22.3707L10.1344 22.6149L11.3391 21.1957L12.0499 21.7991L10.8453 23.2182L11.1329 23.4624L12.5695 21.7701ZM11.77 23.8597L13.0331 24.4748L13.19 24.1526L12.2662 23.7028L12.5245 23.1725L13.2572 23.5293L13.4141 23.2071L12.6814 22.8503L12.9244 22.3513L13.8481 22.8012L14.005 22.479L12.742 21.8639L11.77 23.8597ZM15.8059 22.9174L14.675 22.6564L14.1221 24.1073C14.048 24.3017 13.9536 24.4004 13.7743 24.359L13.66 24.3326L13.5795 24.6818L13.7185 24.7139C14.1233 24.8073 14.3432 24.5879 14.4863 24.2076L14.9158 23.0797L15.3576 23.1817L14.9391 24.9955L15.3068 25.0804L15.8059 22.9174ZM15.9902 22.8979L16.0744 25.1162L16.8001 25.0887C17.2913 25.07 17.5706 24.7357 17.5558 24.3459C17.5397 23.9213 17.2372 23.644 16.746 23.6626L16.3974 23.6759L16.3673 22.8836L15.9902 22.8979ZM16.4379 24.7438L16.411 24.034L16.7627 24.0206C16.9941 24.0118 17.1567 24.1167 17.166 24.3607C17.174 24.5699 17.021 24.7217 16.7897 24.7304L16.4379 24.7438ZM18.0847 24.9684L18.4664 24.8501L18.3621 23.3353L19.1419 24.6407L19.5629 24.5102L19.4314 23.0038L20.2263 24.3046L20.608 24.1863L19.3965 22.2378L19.0179 22.3551L19.178 24.0286L18.3424 22.5645L17.9516 22.6856L18.0847 24.9684ZM21.085 23.7298L22.2277 22.9124L22.0191 22.6209L21.1835 23.2187L20.8403 22.739L21.5032 22.2648L21.2947 21.9733L20.6318 22.4475L20.3089 21.9962L21.1446 21.3984L20.9361 21.1069L19.7935 21.9243L21.085 23.7298ZM23.5378 21.4945L23.782 21.2068L22.0896 19.7703L21.8454 20.058L22.5417 20.6491L22.0902 21.1809L21.5294 20.4303L21.2852 20.7181L21.846 21.4686L21.6531 21.6959L21.9263 21.9278L22.0659 21.7634L22.6492 22.5414L22.8934 22.2537L22.3101 21.4757L22.8149 20.881L23.5378 21.4945ZM24.6853 19.4171L24.8409 19.0733L22.8186 18.1578L22.6629 18.5017L23.495 18.8783L23.2073 19.5138L22.4616 18.9465L22.306 19.2903L23.0517 19.8577L22.9287 20.1293L23.2552 20.277L23.3441 20.0805L24.119 20.6681L24.2746 20.3242L23.4997 19.7367L23.8215 19.0261L24.6853 19.4171ZM25.0122 18.4782L25.0851 18.0982L24.8161 17.9691L24.9786 17.122L25.2775 17.0954L25.3516 16.7091L23.0383 16.9855L22.9552 17.4184L25.0122 18.4782ZM24.4821 17.8081L23.3676 17.2714L24.607 17.1573L24.4821 17.8081ZM25.236 14.7439L23.0225 14.9128L23.085 15.7317C23.118 16.1649 23.4285 16.3575 23.7194 16.3354C24.0103 16.3131 24.2914 16.0786 24.2591 15.6549L24.2243 15.1996L24.3192 15.1923L24.3612 15.7425L24.9619 15.8621L24.9838 16.1498L25.3411 16.1226L25.2979 15.5565L25.2853 15.5575L24.6975 15.4401L24.6765 15.1651L25.2647 15.1202L25.236 14.7439ZM23.6897 15.9464C23.5759 15.9551 23.4556 15.8784 23.4425 15.7076L23.4085 15.2618L23.867 15.2268L23.901 15.6727C23.9141 15.8434 23.8067 15.9375 23.6897 15.9464Z" fill="#1C140D"/>
<path d="M16.0122 14.3085L8.9991 18.5576C9.6549 18.8145 10.7887 19.0997 12.0534 19.2643C13.1675 19.4094 14.3791 19.4596 15.4481 19.3123C16.0698 19.2266 16.6011 19.0572 17.0446 18.8208C17.508 18.5737 17.8762 18.2526 18.1518 17.8769C18.5765 17.2979 18.8128 16.4917 18.9225 15.6338C19.0659 14.5119 18.9923 13.3051 18.8399 12.394C18.7691 11.971 18.6361 11.6818 18.4678 11.4964C18.2834 11.2933 18.0525 11.2154 17.8161 11.2221C17.6014 11.2282 17.3817 11.2976 17.188 11.4435L17.1797 11.4494C17.0086 11.5805 16.8571 11.7735 16.746 12.0381C16.6172 12.3445 16.5278 12.7018 16.4371 13.0643C16.3375 13.4625 16.2363 13.8668 16.0761 14.236C16.0625 14.2676 16.0397 14.2923 16.0122 14.3085ZM8.58085 18.4474L15.8098 14.0675C15.9472 13.7371 16.0415 13.3601 16.1344 12.9886C16.2283 12.6135 16.3209 12.2436 16.458 11.9173C16.5912 11.6002 16.7778 11.3651 16.9914 11.2016L17 11.1946C17.2481 11.0077 17.5306 10.9188 17.8076 10.9109C18.1303 10.9018 18.446 11.0083 18.6985 11.2865C18.9049 11.5139 19.0659 11.8556 19.1475 12.3428C19.3038 13.2772 19.379 14.5169 19.2312 15.6729C19.1154 16.5789 18.862 17.4357 18.4032 18.0612C18.1008 18.4734 17.6977 18.8252 17.1911 19.0954C16.7154 19.349 16.149 19.5301 15.4895 19.621C14.3917 19.7722 13.1516 19.7213 12.0132 19.5731C10.5198 19.3787 9.19428 19.0147 8.59305 18.7201C8.56715 18.7074 8.54437 18.6875 8.52833 18.6609C8.48392 18.5875 8.50736 18.4918 8.58085 18.4474Z" fill="#1C140D"/>
<path d="M15.91 14.3848C15.8245 14.3929 15.7484 14.3301 15.7404 14.2445C15.7323 14.1589 15.7951 14.0829 15.8807 14.0749C16.273 14.0368 16.6024 14.0819 16.8721 14.1892C17.1591 14.3033 17.3774 14.4867 17.531 14.7151C17.6823 14.94 17.7696 15.2076 17.7975 15.494C17.8331 15.861 17.7704 16.2605 17.6194 16.6404C17.5674 16.7711 17.505 16.894 17.4334 17.0092C16.8792 17.9001 15.7405 18.4124 14.4734 18.5926C13.2234 18.7705 11.8411 18.6261 10.7786 18.2036C10.5245 18.1025 10.2891 17.9862 10.0787 17.8554C10.0056 17.8098 9.98318 17.7137 10.0287 17.6405C10.0742 17.5674 10.1704 17.545 10.2435 17.5905C10.4404 17.713 10.6589 17.8212 10.8933 17.9144C11.9069 18.3174 13.2299 18.4546 14.4295 18.2839C15.6123 18.1157 16.668 17.6491 17.1685 16.8445C17.232 16.7424 17.2862 16.6361 17.3301 16.5257C17.463 16.1914 17.5185 15.842 17.4875 15.5233C17.4646 15.2876 17.3941 15.0694 17.2723 14.8884C17.1528 14.7108 16.9824 14.5678 16.7574 14.4783C16.5321 14.3888 16.2511 14.3517 15.91 14.3848Z" fill="#1C140D"/>
<path fill-rule="evenodd" clip-rule="evenodd" d="M17.9609 11.8216C17.8162 11.8281 17.7042 11.9506 17.7107 12.0953C17.7172 12.2399 17.8398 12.3519 17.9844 12.3454C18.1291 12.3389 18.2411 12.2164 18.2346 12.0717C18.2281 11.927 18.1055 11.8151 17.9609 11.8216Z" fill="#1C140D"/>
<path d="M17.9607 11.847C17.8959 11.8502 17.8383 11.8792 17.7977 11.9238C17.7567 11.9685 17.7329 12.0289 17.7358 12.0943L17.7359 12.0953C17.7391 12.1602 17.7682 12.2178 17.8127 12.2585C17.8573 12.2994 17.9178 12.3233 17.9832 12.3203C18.0486 12.3174 18.1066 12.2882 18.1475 12.2435C18.1884 12.1988 18.2122 12.1383 18.2093 12.0729C18.2064 12.0076 18.1772 11.9496 18.1324 11.9086C18.0877 11.8678 18.0272 11.844 17.9619 11.8469L17.9607 11.847ZM17.9607 11.7964C18.0395 11.7932 18.1124 11.8221 18.1664 11.8715C18.2207 11.9211 18.2561 11.9915 18.2597 12.0707C18.2632 12.1499 18.2343 12.2232 18.1847 12.2775C18.135 12.3318 18.0647 12.3672 17.9854 12.3708C17.9063 12.3743 17.833 12.3454 17.7787 12.2958C17.7244 12.2462 17.689 12.1758 17.6854 12.0965L17.6853 12.0954C17.6821 12.0166 17.711 11.9438 17.7604 11.8898C17.8099 11.8354 17.8803 11.8 17.9596 11.7965L17.9607 11.7964Z" fill="#1C140D"/>
<path d="M16.031 19.3225C16.0294 19.2366 16.0976 19.1655 16.1836 19.1638C16.2694 19.1622 16.3405 19.2305 16.3422 19.3164L16.3691 20.6429C16.3707 20.7287 16.3024 20.7998 16.2165 20.8015C16.1306 20.8031 16.0596 20.7349 16.0579 20.649L16.031 19.3225Z" fill="#1C140D"/>
<path d="M15.1554 21.0135C15.0711 21.0307 14.9889 20.9763 14.9717 20.8921C14.9545 20.8079 15.0089 20.7256 15.0931 20.7084L17.3925 20.2378C17.4767 20.2206 17.559 20.275 17.5761 20.3592C17.5933 20.4435 17.5389 20.5257 17.4547 20.5429L15.1554 21.0135Z" fill="#1C140D"/>
<path d="M16.1793 20.7758C16.1002 20.7421 16.0633 20.6506 16.0969 20.5714C16.1306 20.4922 16.2222 20.4553 16.3014 20.4891L17.4309 20.9731C17.51 21.0068 17.5469 21.0983 17.5133 21.1775C17.4796 21.2567 17.388 21.2936 17.3088 21.2599L16.1793 20.7758Z" fill="#1C140D"/>
<path d="M11.1107 18.226C11.0369 18.2702 10.9412 18.2461 10.8971 18.1723C10.853 18.0985 10.877 18.0029 10.9508 17.9588L15.7475 15.0931C15.8213 15.049 15.9169 15.0731 15.9611 15.1468C16.0052 15.2206 15.9811 15.3163 15.9073 15.3604L11.1107 18.226Z" fill="#1C140D"/>
<path d="M12.1592 18.4855C12.0854 18.5297 11.9898 18.5057 11.9457 18.4319C11.9015 18.3581 11.9256 18.2625 11.9994 18.2183L15.5853 16.0758C15.6591 16.0317 15.7547 16.0557 15.7989 16.1295C15.843 16.2033 15.819 16.2989 15.7452 16.343L12.1592 18.4855Z" fill="#1C140D"/>
<path d="M13.6017 18.6107C13.5276 18.6545 13.432 18.63 13.3882 18.5559C13.3444 18.4817 13.3689 18.3861 13.443 18.3423L15.4551 17.1479C15.5292 17.1041 15.6249 17.1287 15.6686 17.2029C15.7124 17.277 15.6878 17.3726 15.6137 17.4164L13.6017 18.6107Z" fill="#1C140D"/>
<path d="M21.3861 13.8409C20.7984 14.1469 20.286 14.0581 19.9196 13.7684C19.7089 13.6019 19.5494 13.3685 19.4543 13.1063L19.7153 12.9022C19.7181 12.9122 19.7211 12.9222 19.7241 12.9321C19.7962 13.1694 19.9304 13.3805 20.1124 13.5244C20.3951 13.7478 20.8021 13.8076 21.2802 13.5444C21.3142 13.5229 21.3565 13.5146 21.3989 13.5244C21.9127 13.6442 22.2755 13.4826 22.4788 13.1999C22.61 13.0174 22.6787 12.7843 22.682 12.5421C22.6853 12.2968 22.6218 12.0437 22.4884 11.8249C22.2393 11.4162 21.7403 11.127 20.9689 11.2317C20.2266 11.3324 19.8375 11.7303 19.7119 12.1795C19.7027 12.2125 19.6949 12.2457 19.6884 12.2792L19.3948 12.1629C19.3999 12.1406 19.4056 12.1185 19.4118 12.0965C19.5681 11.5372 20.0387 11.0435 20.9273 10.923C21.8441 10.7986 22.4467 11.1577 22.7544 11.6625C22.9189 11.9324 22.9973 12.2441 22.9931 12.5457C22.9889 12.8504 22.9005 13.1465 22.7314 13.3817C22.4666 13.75 22.0129 13.9683 21.3861 13.8409Z" fill="#1C140D"/>
<path d="M21.537 13.5701C21.5821 13.6431 21.5594 13.739 21.4863 13.7842C21.4132 13.8294 21.3173 13.8066 21.2721 13.7335C21.2714 13.7322 20.9827 13.2787 21.2468 12.9354C21.3128 12.8496 21.3783 12.782 21.4383 12.7203C21.5414 12.614 21.6231 12.5297 21.6188 12.4148C21.6158 12.3289 21.6829 12.2568 21.7689 12.2538C21.8547 12.2507 21.9269 12.3179 21.9299 12.4038C21.9392 12.6513 21.8165 12.7778 21.6616 12.9375C21.6075 12.9933 21.5482 13.0544 21.4933 13.1258C21.3629 13.2952 21.5365 13.5693 21.537 13.5701Z" fill="#1C140D"/>
<path d="M20.4255 13.0839C20.4043 13.0006 20.4545 12.916 20.5378 12.8947C20.621 12.8735 20.7057 12.9238 20.7269 13.007C20.727 13.0074 20.7618 13.1639 21.2295 13.1561C21.3154 13.1548 21.3862 13.2233 21.3876 13.3093C21.3889 13.3951 21.3203 13.4659 21.2344 13.4673C20.5189 13.4792 20.4258 13.0849 20.4255 13.0839Z" fill="#1C140D"/>
<path d="M20.2514 12.1919C20.2116 12.2684 20.1174 12.2982 20.0409 12.2584C19.9644 12.2187 19.9347 12.1244 19.9744 12.0479C20.084 11.837 20.26 11.6476 20.5032 11.5174C20.7124 11.4056 20.9706 11.3386 21.2776 11.3419C21.6702 11.3462 21.9715 11.4914 22.1747 11.7061C22.3158 11.8552 22.4085 12.0371 22.451 12.2285C22.4935 12.4202 22.4861 12.6215 22.4269 12.8089C22.3417 13.079 22.1499 13.3213 21.8464 13.4668C21.7688 13.5038 21.6759 13.471 21.6389 13.3935C21.6018 13.3161 21.6346 13.2231 21.7121 13.1861C21.9305 13.0814 22.0682 12.9079 22.1292 12.7149C22.1721 12.5789 22.1776 12.4335 22.1471 12.2956C22.1164 12.1573 22.0498 12.0263 21.949 11.9197C21.8003 11.7626 21.5747 11.6564 21.2752 11.6531C21.0236 11.6504 20.8154 11.7034 20.6496 11.792C20.4667 11.8899 20.3341 12.0327 20.2514 12.1919Z" fill="#1C140D"/>
<path d="M19.0366 12.021L19.9821 12.3956C20.0624 12.4274 20.1017 12.518 20.07 12.5982C20.0578 12.6293 20.0367 12.6542 20.0108 12.6712L19.2535 13.2634C19.1858 13.3163 19.088 13.3043 19.0351 13.2366C19.019 13.216 19.009 13.1928 19.0046 13.1688L18.8261 12.1943C18.8106 12.1097 18.8666 12.0285 18.9511 12.0131C18.9809 12.0076 19.0102 12.011 19.0364 12.0214L19.0366 12.021ZM19.6146 12.5859L19.1831 12.4149L19.2645 12.8597L19.6146 12.5859Z" fill="#1C140D"/>
</svg>
