<svg width="33" height="38" viewBox="0 0 33 38" fill="none" xmlns="http://www.w3.org/2000/svg">
<path d="M4.10352 0C1.89438 0 0.103516 1.79086 0.103516 4V28C0.103516 30.2091 1.89438 32 4.10352 32H9.32728C11.5574 32 13.6035 33.2369 14.64 35.2116L16.1035 38L17.5671 35.2116C18.6035 33.2369 20.6496 32 22.8797 32H28.1035C30.3127 32 32.1035 30.2091 32.1035 28V4C32.1035 1.79086 30.3127 0 28.1035 0H4.10352Z" fill="white"/>
<rect width="32" height="32" rx="4" fill="white"/>
<path fill-rule="evenodd" clip-rule="evenodd" d="M22.5061 15.7797L27 16.0226L24.7985 17.9124L27 19.5246L15.5501 20.4214V17.8695L7.76072 18.282V15.8043L5 16.0179V11L16.5913 11.6191L14.3927 13.5064L24.6986 13.8831L22.497 15.773L22.5061 15.7797Z" fill="#FB634D"/>
<path fill-rule="evenodd" clip-rule="evenodd" d="M10.918 14.4513V12.5962H12.3055C12.5696 12.5962 12.7723 12.649 12.9137 12.7546C13.0551 12.8603 13.1257 13.0076 13.1257 13.1967C13.1257 13.3875 13.0551 13.5357 12.9137 13.6413C12.7723 13.7469 12.5696 13.7998 12.3055 13.7998H11.6361V14.4513H10.918ZM12.0296 12.9948H11.6361V13.396H12.0296C12.142 13.396 12.222 13.3819 12.2698 13.3539C12.3175 13.3257 12.3413 13.2725 12.3413 13.1941C12.3413 13.1174 12.3175 13.0651 12.2698 13.037C12.222 13.0088 12.142 12.9948 12.0296 12.9948Z" fill="white"/>
<path fill-rule="evenodd" clip-rule="evenodd" d="M8.49907 14.2558C8.28957 14.0897 8.18481 13.8457 8.18481 13.5237C8.18481 13.2018 8.28957 12.9586 8.49907 12.7942C8.70856 12.6298 9.01952 12.5476 9.43175 12.5476C9.84403 12.5476 10.1549 12.6298 10.3644 12.7942C10.574 12.9586 10.6787 13.2018 10.6787 13.5237C10.6787 13.8457 10.574 14.0897 10.3644 14.2558C10.1549 14.4219 9.84403 14.5049 9.43175 14.5049C9.01952 14.5049 8.70856 14.4219 8.49907 14.2558ZM9.07786 13.152C8.99689 13.238 8.95647 13.3619 8.95647 13.5237C8.95647 13.6856 8.99689 13.809 9.07786 13.8942C9.15877 13.9794 9.27676 14.022 9.43175 14.022C9.5868 14.022 9.70471 13.9794 9.78562 13.8942C9.86659 13.809 9.90701 13.6856 9.90701 13.5237C9.90701 13.3619 9.86659 13.238 9.78562 13.152C9.70471 13.0659 9.5868 13.0229 9.43175 13.0229C9.27676 13.0229 9.15877 13.0659 9.07786 13.152Z" fill="white"/>
<path fill-rule="evenodd" clip-rule="evenodd" d="M6.27417 12.5962H8.12672V13.0587H6.99473V14.4513H6.27417V12.5962Z" fill="white"/>
<path fill-rule="evenodd" clip-rule="evenodd" d="M19.8684 16.7277V15.3427H19.199V14.8726H21.2611V15.3427H20.5891V16.7277H19.8684Z" fill="white"/>
<path fill-rule="evenodd" clip-rule="evenodd" d="M16.855 16.7277V14.8726H18.2425C18.5066 14.8726 18.7093 14.9253 18.8507 15.031C18.992 15.1366 19.0628 15.2839 19.0628 15.473C19.0628 15.6638 18.992 15.812 18.8507 15.9176C18.7093 16.0233 18.5066 16.0761 18.2425 16.0761H17.573V16.7277H16.855ZM17.9666 15.2712H17.573V15.6723H17.9666C18.079 15.6723 18.159 15.6583 18.2067 15.6302C18.2545 15.6021 18.2783 15.5488 18.2783 15.4704C18.2783 15.3939 18.2545 15.3414 18.2067 15.3133C18.159 15.2852 18.079 15.2712 17.9666 15.2712Z" fill="white"/>
<path fill-rule="evenodd" clip-rule="evenodd" d="M14.4358 16.5324C14.2263 16.3663 14.1216 16.1222 14.1216 15.8003C14.1216 15.4783 14.2263 15.2352 14.4358 15.0708C14.6454 14.9064 14.9563 14.8242 15.3685 14.8242C15.7808 14.8242 16.0917 14.9064 16.3012 15.0708C16.5107 15.2352 16.6155 15.4783 16.6155 15.8003C16.6155 16.1222 16.5107 16.3663 16.3012 16.5324C16.0917 16.6985 15.7808 16.7816 15.3685 16.7816C14.9563 16.7816 14.6454 16.6985 14.4358 16.5324ZM15.0146 15.4285C14.9337 15.5145 14.8933 15.6385 14.8933 15.8003C14.8933 15.9621 14.9337 16.0857 15.0146 16.1708C15.0955 16.256 15.2135 16.2986 15.3685 16.2986C15.5236 16.2986 15.6415 16.256 15.7224 16.1708C15.8034 16.0857 15.8438 15.9621 15.8438 15.8003C15.8438 15.6385 15.8034 15.5145 15.7224 15.4285C15.6415 15.3425 15.5236 15.2994 15.3685 15.2994C15.2135 15.2994 15.0955 15.3425 15.0146 15.4285Z" fill="white"/>
<path fill-rule="evenodd" clip-rule="evenodd" d="M11.6257 16.7277V14.8726H13.8821V16.7277H13.164V15.3351H12.3438V16.7277H11.6257Z" fill="white"/>
<path fill-rule="evenodd" clip-rule="evenodd" d="M10.5918 15.6521C10.5798 15.5379 10.5394 15.4506 10.4704 15.3902C10.4014 15.3297 10.3064 15.2994 10.1855 15.2994C10.0304 15.2994 9.91248 15.3425 9.83157 15.4285C9.75067 15.5145 9.71018 15.6385 9.71018 15.8003C9.71018 15.9621 9.75067 16.0857 9.83157 16.1708C9.91248 16.256 10.0304 16.2986 10.1855 16.2986C10.412 16.2986 10.5466 16.1981 10.5892 15.9971H11.4171C11.3796 16.2526 11.257 16.4464 11.0491 16.5784C10.8413 16.7104 10.5534 16.7765 10.1855 16.7765C9.77323 16.7765 9.46233 16.6943 9.25278 16.5299C9.04322 16.3654 8.93848 16.1222 8.93848 15.8003C8.93848 15.4783 9.04322 15.2352 9.25278 15.0708C9.46233 14.9064 9.77323 14.8242 10.1855 14.8242C10.5722 14.8242 10.8699 14.8957 11.0785 15.0388C11.2872 15.1819 11.3984 15.3864 11.412 15.6521H10.5918Z" fill="white"/>
<path fill-rule="evenodd" clip-rule="evenodd" d="M21.5286 18.9828V17.1277H22.9161C23.1802 17.1277 23.3829 17.1805 23.5243 17.2861C23.6657 17.3917 23.7363 17.5391 23.7363 17.7281C23.7363 17.919 23.6657 18.0671 23.5243 18.1727C23.3829 18.2784 23.1802 18.3312 22.9161 18.3312H22.2467V18.9828H21.5286ZM22.6401 17.5263H22.2467V17.9274H22.6401C22.7526 17.9274 22.8326 17.9134 22.8804 17.8853C22.928 17.8571 22.9519 17.804 22.9519 17.7256C22.9519 17.6489 22.928 17.5966 22.8804 17.5684C22.8326 17.5403 22.7526 17.5263 22.6401 17.5263Z" fill="white"/>
<path fill-rule="evenodd" clip-rule="evenodd" d="M18.9946 18.9828L19.7969 17.1277H20.7093L21.4579 18.9828H20.6811L20.6198 18.7988H19.8302L19.7638 18.9828H18.9946ZM20.0014 18.344H20.4588L20.2365 17.6898L20.0014 18.344Z" fill="white"/>
<path fill-rule="evenodd" clip-rule="evenodd" d="M16.8823 17.1277H18.855V17.5263H17.6004V17.8176H18.3082C18.5637 17.8176 18.7579 17.8674 18.8908 17.9671C19.0236 18.0667 19.0901 18.2094 19.0901 18.3951C19.0901 18.579 19.0211 18.723 18.8832 18.8269C18.7452 18.9308 18.5484 18.9828 18.2928 18.9828H16.8823V17.1277ZM18.0194 18.5842C18.1233 18.5842 18.1975 18.5714 18.2417 18.5458C18.2861 18.5203 18.3082 18.4717 18.3082 18.4002C18.3082 18.327 18.2861 18.2775 18.2417 18.252C18.1975 18.2264 18.1233 18.2136 18.0194 18.2136H17.6004V18.5842H18.0194Z" fill="white"/>
</svg>
