<svg width="33" height="38" viewBox="0 0 33 38" fill="none" xmlns="http://www.w3.org/2000/svg">
<path d="M5 0C2.79086 0 1 1.79086 1 4V28C1 30.2091 2.79086 32 5 32H10.2238C12.4539 32 14.5 33.2369 15.5365 35.2116L17 38L18.4636 35.2116C19.5 33.2369 21.5461 32 23.7762 32H29C31.2091 32 33 30.2091 33 28V4C33 1.79086 31.2091 0 29 0H5Z" fill="white"/>
<rect x="0.655029" width="32" height="32" rx="4" fill="white"/>
<path d="M11.9481 18.4549C11.9809 18.4645 12.0075 18.4805 12.0269 18.5026C12.048 18.525 12.0581 18.5443 12.0581 18.5615C12.053 18.6354 12.032 18.717 11.9941 18.8064C11.9564 18.8958 11.9075 18.9963 11.8482 19.1073C11.8432 19.1206 11.8403 19.1323 11.8403 19.1422V19.1478C11.8403 19.1513 11.8315 19.1661 11.8126 19.1935C11.8082 19.1984 11.8009 19.2011 11.7925 19.2011C11.7783 19.2011 11.7621 19.1923 11.7438 19.1745C11.7249 19.1568 11.7098 19.1396 11.6976 19.124C11.6944 19.1107 11.6926 19.1006 11.6926 19.0945C11.6926 19.0718 11.7054 19.0347 11.731 18.9835C11.7377 18.9701 11.7555 18.9357 11.7843 18.8813C11.8132 18.827 11.8365 18.7798 11.8531 18.7392C11.8703 18.6992 11.8814 18.666 11.8865 18.6381L11.8692 18.6176C11.8554 18.6265 11.7616 18.6332 11.5878 18.6381C11.5711 18.6381 11.5572 18.6387 11.5461 18.6404C11.5367 18.6409 11.5295 18.6415 11.526 18.6415C11.5178 18.6343 11.5088 18.6304 11.5006 18.6304C11.4884 18.6304 11.4762 18.6326 11.4645 18.636L11.3035 18.6415H11.2723C11.2612 18.6415 11.2519 18.6421 11.2446 18.6432C11.2108 18.6504 11.1813 18.6543 11.1575 18.6543C11.1302 18.6543 11.1058 18.656 11.0836 18.6593L10.9304 18.6743C10.8672 18.6794 10.8104 18.6843 10.7605 18.6893C10.7116 18.6948 10.6805 18.6987 10.6667 18.6998C10.6327 18.6998 10.6022 18.7065 10.5751 18.7204C10.5489 18.7336 10.5307 18.7415 10.5206 18.7438C10.4952 18.8353 10.4635 18.9569 10.4262 19.109L10.4113 19.1678C10.4073 19.1934 10.3851 19.2124 10.344 19.2246C10.3135 19.1917 10.2936 19.1678 10.2841 19.1529C10.2753 19.1373 10.273 19.119 10.278 19.0985C10.278 19.1058 10.2852 19.0819 10.3002 19.0274C10.3158 18.9724 10.3275 18.9235 10.3341 18.8813L10.3768 18.6893C10.3707 18.6793 10.3707 18.6681 10.3768 18.6549C10.3841 18.6421 10.3962 18.6255 10.4134 18.6049L10.585 18.5772C10.6222 18.5688 10.6683 18.5376 10.7221 18.4843C10.7772 18.4322 10.8227 18.3806 10.8587 18.3311C10.9493 18.2117 11.0181 18.0951 11.0664 17.9813C11.1158 17.867 11.1753 17.7037 11.2446 17.4923C11.263 17.4428 11.284 17.3828 11.3063 17.3108C11.3201 17.299 11.3306 17.2762 11.3385 17.2424C11.3457 17.2091 11.349 17.1808 11.349 17.1575C11.3379 17.1524 11.3245 17.1508 11.3096 17.1518C11.2957 17.1535 11.2841 17.1535 11.2758 17.1518C11.2551 17.1419 11.2386 17.1269 11.2263 17.1064C11.2147 17.0859 11.2086 17.0641 11.2086 17.0425C11.2086 17.0303 11.2097 17.0215 11.2118 17.0164C11.2179 17.0148 11.2274 17.0148 11.2402 17.0175C11.253 17.0204 11.2674 17.0219 11.2829 17.0219C11.3018 17.0219 11.318 17.0204 11.3323 17.0164C11.3407 17.0148 11.3795 17.0087 11.4495 16.9986C11.5189 16.9887 11.5583 16.9809 11.5667 16.9753C11.686 16.9637 11.7815 16.9559 11.8526 16.9514C11.9237 16.9476 12.0002 16.9453 12.0835 16.9453C12.1114 16.9453 12.1379 16.9537 12.1635 16.9709C12.189 16.9881 12.2046 17.0058 12.2096 17.0242C12.2107 17.072 12.1752 17.2113 12.1019 17.4422C12.0286 17.6737 11.9597 17.8642 11.8947 18.0147C11.8831 18.052 11.8615 18.1102 11.831 18.1884L11.7925 18.2906L11.7382 18.4677C11.7404 18.4727 11.7427 18.4788 11.746 18.4866C11.7493 18.4939 11.7538 18.4971 11.7587 18.4971L11.7971 18.4933C11.8126 18.4894 11.8292 18.4861 11.847 18.4822C11.8648 18.4788 11.877 18.475 11.8842 18.4705C11.8915 18.4666 11.8992 18.46 11.9075 18.4517C11.9075 18.4517 11.9087 18.4511 11.9108 18.4505C11.9137 18.4499 11.917 18.4494 11.9203 18.4494C11.9253 18.4494 11.9347 18.4511 11.9481 18.4549ZM11.6794 18.1391C11.6844 18.1379 11.7104 18.0747 11.7576 17.9504C11.8042 17.826 11.8398 17.7299 11.8642 17.6615L11.8865 17.5977C11.9398 17.4456 11.9775 17.334 11.9992 17.263C12.0214 17.1924 12.0358 17.1341 12.043 17.088C12.0153 17.0831 11.9775 17.0808 11.9303 17.0808C11.8581 17.0808 11.7837 17.0859 11.706 17.0959C11.6289 17.1064 11.5723 17.1191 11.5367 17.1341L11.4878 17.2546C11.4861 17.2613 11.459 17.3512 11.4057 17.5228C11.353 17.6949 11.2746 17.8903 11.1703 18.1091C11.0664 18.3273 10.9676 18.475 10.8738 18.5516C10.9266 18.5516 11.0509 18.5433 11.2469 18.526C11.4428 18.5088 11.5484 18.4988 11.5622 18.495C11.5738 18.4322 11.5878 18.3778 11.6038 18.3334C11.6205 18.2879 11.6455 18.223 11.6794 18.1391ZM12.7393 18.6232C12.6965 18.661 12.6454 18.6797 12.5856 18.6797C12.5433 18.6797 12.5027 18.6692 12.4644 18.6488C12.4256 18.6282 12.3939 18.5999 12.3684 18.5644C12.3456 18.5366 12.329 18.5061 12.319 18.4717C12.3095 18.4377 12.3045 18.3961 12.3045 18.3473C12.3045 18.3301 12.3057 18.2956 12.3084 18.2445C12.3145 18.1813 12.3351 18.1158 12.3718 18.0474C12.4083 17.9792 12.4545 17.9181 12.5088 17.8642C12.5633 17.8109 12.6165 17.7737 12.6698 17.7532C12.6971 17.736 12.7215 17.7276 12.7438 17.7276C12.7554 17.7276 12.7676 17.7282 12.7798 17.7299C12.792 17.7321 12.8048 17.7337 12.818 17.7355C12.8559 17.7399 12.8842 17.7476 12.9037 17.7576C12.9231 17.7666 12.9403 17.7803 12.9535 17.7992C12.9963 17.842 13.0175 17.8909 13.0175 17.9475C13.0114 17.9886 12.9847 18.0352 12.9386 18.0879C12.8925 18.1412 12.837 18.184 12.772 18.2157C12.7415 18.2268 12.7065 18.2318 12.6665 18.2318C12.6144 18.2318 12.5716 18.2206 12.5388 18.1991C12.5238 18.1929 12.5122 18.1901 12.5038 18.1901C12.4878 18.1901 12.4761 18.2006 12.4683 18.2212C12.4612 18.2417 12.4545 18.2795 12.4472 18.3345C12.4456 18.3461 12.445 18.3633 12.445 18.3856C12.445 18.4723 12.4738 18.5198 12.5317 18.5282C12.5705 18.5366 12.5988 18.541 12.6154 18.541C12.636 18.541 12.6593 18.5344 12.6849 18.521L12.7338 18.4933C12.7438 18.4872 12.7531 18.4805 12.7615 18.4717C12.7703 18.4633 12.7782 18.4555 12.7854 18.4494C12.7887 18.4461 12.7936 18.44 12.7998 18.4322C12.807 18.4245 12.8137 18.4194 12.8192 18.4172C12.8253 18.4144 12.8314 18.4133 12.8364 18.4133C12.8425 18.4133 12.8503 18.4172 12.8586 18.4249C12.867 18.4327 12.8742 18.4383 12.8798 18.4417C12.8947 18.4417 12.8981 18.4528 12.8897 18.4738C12.8809 18.495 12.8631 18.5198 12.8353 18.5477C12.807 18.576 12.7748 18.6011 12.7393 18.6232ZM12.7359 18.0808C12.7654 18.0686 12.7947 18.0468 12.8247 18.0164C12.8542 17.9859 12.8693 17.9602 12.8693 17.9397C12.8693 17.9192 12.8614 17.902 12.8459 17.8886C12.8309 17.8753 12.8098 17.8686 12.782 17.8686C12.7621 17.8686 12.7464 17.8703 12.7359 17.8737C12.7126 17.8802 12.6843 17.898 12.652 17.928C12.6194 17.958 12.5911 17.9886 12.5678 18.0197C12.5433 18.0503 12.5338 18.068 12.5388 18.073C12.5471 18.0885 12.581 18.0963 12.6388 18.0963C12.6783 18.0963 12.7103 18.0914 12.7359 18.0808ZM14.2944 18.4901C14.3011 18.495 14.3044 18.5026 14.3044 18.5133C14.3044 18.5256 14.3006 18.5366 14.2933 18.5477C14.2855 18.5588 14.2784 18.5644 14.2711 18.5644C14.2389 18.5644 14.2083 18.5554 14.1784 18.5376C14.1485 18.5194 14.1334 18.4905 14.1334 18.4517V18.2929C14.1334 18.2129 14.1273 18.1679 14.1156 18.1574C14.0901 18.1441 14.0457 18.1718 13.9834 18.2417C13.9213 18.3118 13.8613 18.3945 13.803 18.4901C13.7847 18.5204 13.7693 18.5443 13.7575 18.5615C13.7454 18.5782 13.7358 18.5871 13.7287 18.5871C13.7236 18.5871 13.7148 18.5827 13.7031 18.5743C13.6504 18.5594 13.6243 18.5294 13.6243 18.4843C13.6243 18.4794 13.626 18.4683 13.6292 18.4517C13.6464 18.3955 13.6636 18.3328 13.6804 18.264C13.6976 18.1951 13.7108 18.1363 13.7209 18.0879C13.7159 18.0779 13.7076 18.073 13.6953 18.073C13.6781 18.073 13.6587 18.0818 13.6371 18.0986C13.5943 18.128 13.5393 18.1968 13.4727 18.3057C13.3895 18.4333 13.3318 18.5111 13.2989 18.5388C13.2867 18.5594 13.2762 18.5749 13.2668 18.586C13.2579 18.5971 13.2489 18.6026 13.2401 18.6026C13.2334 18.6026 13.2206 18.5976 13.2017 18.5871C13.1523 18.5582 13.1274 18.5177 13.1274 18.4645C13.1274 18.4388 13.1351 18.3878 13.1507 18.3107C13.1661 18.234 13.1835 18.1624 13.2017 18.0963C13.2173 18.0674 13.2317 18.0369 13.2445 18.0046C13.2573 17.9736 13.2639 17.9542 13.2639 17.9475C13.2701 17.912 13.2784 17.8731 13.2895 17.8321C13.2995 17.7914 13.3067 17.7687 13.3117 17.7638C13.3239 17.752 13.3379 17.746 13.3534 17.746C13.3789 17.746 13.3971 17.7593 13.4089 17.7864C13.4277 17.8054 13.4378 17.8293 13.4378 17.8575C13.4378 17.8903 13.4277 17.9326 13.4089 17.9836C13.3805 18.0468 13.349 18.1391 13.315 18.2594C13.3505 18.2206 13.3761 18.1901 13.3916 18.1679C13.4322 18.1096 13.485 18.0447 13.5493 17.9731C13.6027 17.9154 13.6627 17.8863 13.7287 17.8863C13.8075 17.8998 13.853 17.9658 13.8648 18.0835C13.8648 18.1035 13.863 18.1286 13.8596 18.1586C13.8558 18.1884 13.8536 18.2073 13.852 18.2157C13.8586 18.2062 13.8759 18.184 13.9047 18.1496C13.9319 18.1158 13.9668 18.0808 14.0079 18.0453C14.0457 18.0164 14.0801 18.0019 14.1123 18.0019C14.1401 18.0019 14.1639 18.0124 14.1845 18.0347C14.2201 18.0552 14.2461 18.0835 14.2617 18.1202C14.2767 18.1569 14.2839 18.2035 14.2839 18.2594C14.2839 18.2889 14.2834 18.3118 14.2816 18.329C14.2784 18.3628 14.2767 18.3844 14.2767 18.3928C14.2767 18.4255 14.2822 18.4578 14.2944 18.4901ZM14.7008 18.6849C14.6775 18.6876 14.6597 18.6893 14.6475 18.6893C14.5842 18.6893 14.5321 18.6698 14.4916 18.6304C14.4505 18.5915 14.4299 18.5372 14.4299 18.4677C14.4226 18.3922 14.4394 18.299 14.4799 18.1884C14.5199 18.0774 14.5708 17.9841 14.6326 17.9087C14.6753 17.8598 14.7119 17.8199 14.7424 17.7893C14.773 17.7581 14.8007 17.7377 14.8263 17.7276C14.8619 17.7121 14.9023 17.7043 14.9468 17.7043C14.9774 17.7116 15.0079 17.7243 15.0374 17.7427C15.0672 17.762 15.0822 17.7803 15.0822 17.7992L15.0951 17.812C15.1051 17.812 15.1145 17.8242 15.1228 17.8493C15.1312 17.8743 15.1356 17.9009 15.1356 17.9303C15.1356 17.9536 15.1312 17.9742 15.1228 17.9908C15.1167 18.0235 15.1051 18.052 15.0889 18.0752C15.0723 18.0996 15.0567 18.1112 15.0418 18.1112C15.0229 18.1112 15.0129 18.1163 15.0129 18.1263C15.0129 18.1335 15.0101 18.1368 15.0034 18.1368C14.9951 18.1368 14.9845 18.1319 14.9724 18.1219C14.9606 18.1112 14.9518 18.0996 14.9468 18.0858C14.9468 18.0808 14.9501 18.0663 14.9567 18.0419C14.9634 18.0185 14.9707 17.9925 14.9779 17.963C14.9829 17.9425 14.985 17.9248 14.985 17.9087C14.985 17.8747 14.9724 17.8575 14.9468 17.8575C14.9335 17.8575 14.9195 17.8615 14.9052 17.8686C14.8374 17.9058 14.7768 17.9658 14.7241 18.0474C14.6714 18.129 14.627 18.2417 14.5909 18.3856C14.5826 18.4234 14.5781 18.4528 14.5781 18.475C14.5781 18.4921 14.5799 18.5055 14.5826 18.5154C14.5842 18.5259 14.5875 18.5321 14.5909 18.5338C14.5991 18.5372 14.6175 18.5388 14.6454 18.5388C14.7081 18.5388 14.752 18.5311 14.7774 18.5154C14.8324 18.4861 14.893 18.4473 14.9596 18.3983C14.9663 18.3934 14.9763 18.3844 14.9906 18.3718C15.004 18.3589 15.0168 18.3495 15.029 18.3439C15.0406 18.3256 15.0512 18.3139 15.0622 18.3095C15.0723 18.3057 15.0879 18.3034 15.11 18.3034C15.1328 18.3107 15.1511 18.3195 15.1644 18.3301C15.1778 18.3412 15.1778 18.35 15.1644 18.3567C15.1595 18.3567 15.156 18.3584 15.1539 18.3617C15.1522 18.3657 15.1516 18.3678 15.1516 18.3695C15.1551 18.3778 15.1411 18.3995 15.11 18.4333C15.0794 18.4677 15.0456 18.4994 15.0079 18.5294C14.9707 18.5594 14.9451 18.5743 14.9308 18.5743C14.9247 18.5743 14.919 18.5749 14.914 18.5772C14.9084 18.5788 14.9052 18.5833 14.9052 18.59C14.9052 18.5966 14.8796 18.6121 14.8275 18.6371C14.7758 18.662 14.7336 18.6776 14.7008 18.6849ZM15.6908 17.7332C15.6948 17.7343 15.6997 17.7365 15.7068 17.7393C15.7135 17.7415 15.7186 17.7453 15.7219 17.7509C15.7391 17.7681 15.7475 17.7876 15.7475 17.8098C15.7475 17.822 15.7435 17.8365 15.7347 17.8537C15.7224 17.8753 15.7097 17.897 15.6963 17.9175C15.6741 17.9542 15.6558 17.9886 15.6409 18.0197C15.6269 18.0503 15.6103 18.0935 15.592 18.1496C15.6358 18.1397 15.6648 18.1307 15.678 18.123C15.6919 18.1152 15.7146 18.0935 15.7475 18.0579C15.7779 18.0269 15.8073 17.9997 15.8352 17.9758C15.9389 17.8753 15.994 17.8204 16.0012 17.812C16.0145 17.7914 16.0267 17.7754 16.0367 17.7648C16.0472 17.7537 16.0612 17.7454 16.0778 17.7404C16.1017 17.7442 16.1177 17.7482 16.1271 17.7532C16.1372 17.7582 16.1577 17.7737 16.1899 17.7992C16.1972 17.8065 16.2005 17.8182 16.2005 17.8354C16.2005 17.8676 16.1911 17.8903 16.1716 17.9047C16.1666 17.9076 16.1338 17.9336 16.0728 17.9836C15.9485 18.0875 15.8424 18.1691 15.7552 18.2285C15.7924 18.2885 15.829 18.355 15.8646 18.4289C15.8684 18.4694 15.8829 18.4977 15.9083 18.5133C15.9339 18.5282 15.9701 18.5355 16.0161 18.5355C16.0295 18.5428 16.0384 18.5516 16.0428 18.5615C16.0472 18.5722 16.0495 18.5833 16.0501 18.5955C16.0516 18.6065 16.0533 18.616 16.0545 18.6232C16.0388 18.6332 16.0233 18.6453 16.0089 18.6604C15.9928 18.6748 15.98 18.6815 15.9701 18.6815C15.9584 18.6815 15.9395 18.6771 15.9139 18.6671C15.8896 18.6581 15.8678 18.6459 15.8479 18.6293C15.8274 18.6132 15.8058 18.5921 15.7836 18.5666C15.7629 18.5433 15.7231 18.4828 15.6636 18.3856C15.6036 18.2879 15.5704 18.2335 15.5631 18.2212C15.5581 18.2346 15.5521 18.2496 15.5437 18.2661C15.5358 18.2824 15.5308 18.2967 15.5282 18.3095C15.5242 18.3223 15.5226 18.3395 15.5226 18.36C15.5054 18.3834 15.4926 18.4133 15.4831 18.4505C15.4732 18.4872 15.4659 18.5133 15.4609 18.5282C15.4509 18.5661 15.4287 18.597 15.3948 18.6209C15.3642 18.6188 15.3343 18.5999 15.3049 18.5644C15.2966 18.5489 15.2922 18.5316 15.2922 18.5133C15.2922 18.4945 15.2966 18.4733 15.3049 18.4517C15.3089 18.4367 15.3205 18.4006 15.3404 18.3439C15.361 18.2879 15.377 18.2423 15.3893 18.2085C15.3977 18.1863 15.412 18.1485 15.4321 18.0946C15.4509 18.0413 15.4621 18.0092 15.4637 17.9985C15.4687 17.9764 15.4843 17.9454 15.5098 17.9047C15.5437 17.8447 15.5653 17.7954 15.5737 17.7555C15.5775 17.7442 15.5864 17.7326 15.6002 17.7215C15.6147 17.7099 15.6297 17.7043 15.6453 17.7043C15.6636 17.7043 15.6791 17.7138 15.6908 17.7332ZM16.453 18.6743C16.4331 18.6743 16.4175 18.671 16.4054 18.6637C16.3932 18.6571 16.3759 18.6442 16.3542 18.6255C16.2982 18.5655 16.2698 18.5111 16.2698 18.4622C16.2698 18.4499 16.2704 18.4417 16.2721 18.4367C16.277 18.4245 16.2793 18.4123 16.2782 18.4006C16.2776 18.3884 16.277 18.3806 16.277 18.3778C16.2704 18.3706 16.2665 18.3661 16.2665 18.3628C16.2665 18.3611 16.2682 18.3584 16.2721 18.3556C16.2754 18.3534 16.2782 18.3506 16.2793 18.3473C16.2898 18.3473 16.2937 18.3372 16.2898 18.3183C16.2866 18.3045 16.2931 18.2745 16.3105 18.2279C16.3277 18.1807 16.3487 18.1379 16.3743 18.0986C16.3926 18.068 16.4203 18.0296 16.4576 17.9836C16.4942 17.9376 16.527 17.9026 16.5558 17.8793C16.5969 17.8426 16.6336 17.8159 16.6663 17.7992C16.6985 17.782 16.734 17.7692 16.7728 17.761C16.8074 17.752 16.8301 17.7482 16.8423 17.7482C16.8545 17.7482 16.865 17.7509 16.8745 17.7576C16.8834 17.7631 16.8962 17.7737 16.9117 17.7893C16.9577 17.8092 16.99 17.8354 17.0078 17.8676C17.0255 17.8986 17.0344 17.9475 17.0344 18.0147C17.0344 18.1252 16.9889 18.2457 16.8989 18.3751C16.8596 18.431 16.8229 18.4738 16.789 18.5038C16.7551 18.5338 16.7096 18.5655 16.6536 18.5999C16.6175 18.6255 16.5841 18.6438 16.5547 18.6549C16.5246 18.6665 16.4909 18.6727 16.453 18.6743ZM16.6996 18.4034C16.7401 18.3573 16.7728 18.3133 16.7973 18.2722C16.8223 18.2318 16.8456 18.1802 16.8678 18.1169C16.8761 18.0875 16.8806 18.0524 16.8806 18.0113C16.8806 17.9602 16.8739 17.9314 16.8607 17.9248C16.8435 17.9164 16.8261 17.9119 16.8095 17.9119C16.7718 17.9119 16.7323 17.9292 16.6918 17.963C16.6425 18.0057 16.598 18.0579 16.5586 18.1202C16.5197 18.1823 16.4797 18.2601 16.4381 18.3523C16.4215 18.3878 16.4125 18.4228 16.4125 18.4566C16.4125 18.4822 16.4192 18.5033 16.432 18.5189C16.4448 18.5338 16.462 18.541 16.4842 18.541C16.5403 18.541 16.6119 18.495 16.6996 18.4034ZM17.6302 18.6232C17.5874 18.661 17.5364 18.6797 17.4764 18.6797C17.4342 18.6797 17.3937 18.6692 17.3553 18.6488C17.3165 18.6282 17.2848 18.5999 17.2592 18.5644C17.237 18.5366 17.221 18.5061 17.211 18.4717C17.2004 18.4377 17.1954 18.3961 17.1954 18.3473C17.1954 18.3301 17.1971 18.2956 17.2004 18.2445C17.2053 18.1813 17.2265 18.1158 17.2632 18.0474C17.3003 17.9792 17.3459 17.9181 17.3998 17.8642C17.4547 17.8109 17.5085 17.7737 17.5618 17.7532C17.5891 17.736 17.6136 17.7276 17.6358 17.7276C17.6474 17.7276 17.6596 17.7282 17.6718 17.7299C17.684 17.7321 17.6967 17.7337 17.7101 17.7355C17.7478 17.7399 17.7761 17.7476 17.7957 17.7576C17.8151 17.7666 17.8317 17.7803 17.8455 17.7992C17.8883 17.842 17.9095 17.8909 17.9095 17.9475C17.9022 17.9886 17.8761 18.0352 17.8306 18.0879C17.7845 18.1412 17.729 18.184 17.664 18.2157C17.6329 18.2268 17.5979 18.2318 17.5585 18.2318C17.5064 18.2318 17.4636 18.2206 17.4308 18.1991C17.4158 18.1929 17.4042 18.1901 17.3958 18.1901C17.3797 18.1901 17.3681 18.2006 17.3603 18.2212C17.3526 18.2417 17.3454 18.2795 17.3392 18.3345C17.337 18.3461 17.3358 18.3633 17.3358 18.3856C17.3358 18.4723 17.3648 18.5198 17.4231 18.5282C17.4625 18.5366 17.4902 18.541 17.5074 18.541C17.528 18.541 17.5513 18.5344 17.5769 18.521L17.6256 18.4933C17.6358 18.4872 17.6451 18.4805 17.6535 18.4717C17.6623 18.4633 17.6702 18.4555 17.6768 18.4494C17.6801 18.4461 17.6846 18.44 17.6917 18.4322C17.699 18.4245 17.7057 18.4194 17.7112 18.4172C17.7167 18.4144 17.7223 18.4133 17.7284 18.4133C17.7345 18.4133 17.7423 18.4172 17.7506 18.4249C17.7589 18.4327 17.7656 18.4383 17.7706 18.4417C17.7866 18.4417 17.7901 18.4528 17.7817 18.4738C17.7729 18.495 17.7546 18.5198 17.7262 18.5477C17.6985 18.576 17.6663 18.6011 17.6302 18.6232ZM17.6279 18.0808C17.6573 18.0686 17.6867 18.0468 17.7162 18.0164C17.7462 17.9859 17.7613 17.9602 17.7613 17.9397C17.7613 17.9192 17.7534 17.902 17.7379 17.8886C17.7229 17.8753 17.7018 17.8686 17.674 17.8686C17.6535 17.8686 17.6379 17.8703 17.6279 17.8737C17.604 17.8802 17.5757 17.898 17.5435 17.928C17.5113 17.958 17.4831 17.9886 17.4598 18.0197C17.4353 18.0503 17.4258 18.068 17.4308 18.073C17.4391 18.0885 17.4724 18.0963 17.5308 18.0963C17.5702 18.0963 17.6023 18.0914 17.6279 18.0808ZM18.9916 17.7332C18.9949 17.7343 19.0004 17.7365 19.0076 17.7393C19.0137 17.7415 19.0187 17.7453 19.0221 17.7509C19.0393 17.7681 19.0481 17.7876 19.0481 17.8098C19.0481 17.822 19.0437 17.8365 19.0349 17.8537C19.0233 17.8753 19.0105 17.897 18.9965 17.9175C18.9749 17.9542 18.956 17.9886 18.9415 18.0197C18.9271 18.0503 18.9106 18.0935 18.8922 18.1496C18.9365 18.1397 18.9648 18.1307 18.9787 18.123C18.9921 18.1152 19.0154 18.0935 19.0481 18.0579C19.0787 18.0269 19.1075 17.9997 19.1354 17.9758C19.2391 17.8753 19.2947 17.8204 19.3014 17.812C19.3152 17.7914 19.3268 17.7754 19.3369 17.7648C19.3475 17.7537 19.3612 17.7454 19.3786 17.7404C19.4019 17.7442 19.418 17.7482 19.4273 17.7532C19.4374 17.7582 19.4584 17.7737 19.4902 17.7992C19.4972 17.8065 19.5013 17.8182 19.5013 17.8354C19.5013 17.8676 19.4912 17.8903 19.4724 17.9047C19.4673 17.9076 19.434 17.9336 19.3729 17.9836C19.2486 18.0875 19.1425 18.1691 19.0553 18.2285C19.0932 18.2885 19.1299 18.355 19.1654 18.4289C19.1687 18.4694 19.183 18.4977 19.2086 18.5133C19.2347 18.5282 19.2703 18.5355 19.3163 18.5355C19.3302 18.5428 19.3391 18.5516 19.343 18.5615C19.3474 18.5722 19.3501 18.5833 19.3507 18.5955C19.3518 18.6065 19.3536 18.616 19.3547 18.6232C19.3391 18.6332 19.3241 18.6453 19.309 18.6604C19.2936 18.6748 19.2808 18.6815 19.2708 18.6815C19.2586 18.6815 19.2397 18.6771 19.2142 18.6671C19.1903 18.6581 19.1681 18.6459 19.148 18.6293C19.1276 18.6132 19.106 18.5921 19.0842 18.5666C19.0637 18.5433 19.0233 18.4828 18.9638 18.3856C18.9039 18.2879 18.8704 18.2335 18.8632 18.2212C18.8582 18.2346 18.8522 18.2496 18.8444 18.2661C18.8366 18.2824 18.8311 18.2967 18.8283 18.3095C18.825 18.3223 18.8227 18.3395 18.8227 18.36C18.8061 18.3834 18.7927 18.4133 18.7833 18.4505C18.7733 18.4872 18.7661 18.5133 18.7612 18.5282C18.7511 18.5661 18.7289 18.597 18.695 18.6209C18.6645 18.6188 18.6345 18.5999 18.6057 18.5644C18.5969 18.5489 18.5928 18.5316 18.5928 18.5133C18.5928 18.4945 18.5969 18.4733 18.6057 18.4517C18.609 18.4367 18.6206 18.4006 18.6406 18.3439C18.6613 18.2879 18.6779 18.2423 18.6895 18.2085C18.6984 18.1863 18.7122 18.1485 18.7323 18.0946C18.7516 18.0413 18.7623 18.0092 18.7644 17.9985C18.7694 17.9764 18.7844 17.9454 18.81 17.9047C18.8444 17.8447 18.8655 17.7954 18.8744 17.7555C18.8777 17.7442 18.8867 17.7326 18.901 17.7215C18.915 17.7099 18.9298 17.7043 18.9455 17.7043C18.9638 17.7043 18.9793 17.7138 18.9916 17.7332ZM19.5956 18.6209C19.5901 18.6104 19.5817 18.5998 19.5712 18.5888C19.5601 18.5777 19.5546 18.5705 19.5546 18.5666C19.5546 18.5483 19.5502 18.5338 19.5412 18.5227C19.5379 18.5198 19.5362 18.5127 19.5362 18.5006C19.5362 18.4727 19.5495 18.426 19.5767 18.3611C19.6029 18.2956 19.6373 18.2245 19.6801 18.1479C19.69 18.1368 19.7033 18.1191 19.7194 18.0935C19.736 18.068 19.7466 18.053 19.7515 18.0497C19.7515 18.043 19.7538 18.0369 19.7588 18.0302C19.7638 18.0247 19.7699 18.022 19.7771 18.022V18.0069C19.7771 17.9914 19.805 17.9542 19.861 17.8953C19.9176 17.8359 19.9637 17.7954 19.9999 17.7737C20.0425 17.7442 20.0859 17.7299 20.1298 17.7299C20.1603 17.7299 20.1869 17.7381 20.2096 17.7555C20.2186 17.766 20.2574 17.8032 20.3273 17.8665L20.4217 17.9504L20.3762 18.0786C20.3607 18.1246 20.3529 18.1662 20.3529 18.2029C20.3529 18.2684 20.3718 18.3311 20.4091 18.3905C20.4179 18.4094 20.4345 18.4272 20.4606 18.4438C20.4861 18.461 20.5117 18.4717 20.5373 18.475C20.5749 18.4816 20.5939 18.4999 20.5939 18.5316C20.5939 18.5655 20.5777 18.586 20.5466 18.5921C20.5405 18.5944 20.5306 18.5955 20.5166 18.5955C20.4162 18.5955 20.3291 18.5244 20.2557 18.3823C20.2486 18.3722 20.2397 18.3539 20.2292 18.3267C20.2174 18.299 20.2114 18.2801 20.2096 18.2701C20.1991 18.2839 20.1863 18.2996 20.1714 18.3183C20.1558 18.3372 20.1414 18.3539 20.1275 18.3672C19.9414 18.5533 19.7949 18.6465 19.6877 18.6465C19.6533 18.6465 19.6228 18.6381 19.5956 18.6209ZM19.6877 18.4772C19.6877 18.4855 19.6967 18.4883 19.7145 18.4843C19.7322 18.4816 19.7544 18.4733 19.7811 18.4589C19.8077 18.4455 19.8344 18.4278 19.861 18.4056C20.0081 18.2789 20.1142 18.1691 20.1791 18.0752L20.2352 17.9836C20.2186 17.9481 20.2003 17.9219 20.1808 17.9058C20.1625 17.8893 20.1453 17.8814 20.1298 17.8814C20.0942 17.8814 20.0381 17.9259 19.9615 18.0153C19.8849 18.1051 19.815 18.2101 19.7515 18.3311C19.736 18.36 19.7221 18.3894 19.7111 18.4194C19.6988 18.4494 19.6911 18.4683 19.6877 18.4772ZM21.9537 18.0036C21.968 18.0313 21.9752 18.0631 21.9752 18.0986C21.9752 18.1485 21.963 18.1951 21.9391 18.2396C21.9147 18.2833 21.8765 18.3456 21.8237 18.426L21.6682 18.5594C21.6743 18.5577 21.6455 18.5638 21.5806 18.5772C21.5311 18.5909 21.4927 18.5976 21.4656 18.5976C21.4329 18.5976 21.4029 18.5871 21.3762 18.5655C21.349 18.5443 21.3167 18.5055 21.2791 18.4494L21.2557 18.4566C21.2468 18.4755 21.2363 18.5049 21.2224 18.5466L21.1018 18.9119C21.0837 18.9619 21.0703 19.0057 21.0613 19.043C21.0531 19.0802 21.0408 19.1413 21.0252 19.2267C21.0242 19.2456 21.0214 19.2628 21.0181 19.2777C21.0142 19.2934 21.008 19.3062 20.9998 19.3161C20.9948 19.3161 20.9875 19.3167 20.9786 19.3184C20.9692 19.319 20.9587 19.3184 20.9464 19.3161C20.9226 19.3144 20.9037 19.3056 20.8898 19.2884C20.8765 19.2712 20.8698 19.2506 20.8698 19.2267C20.8698 19.2011 20.8765 19.1806 20.8898 19.1656C20.8886 19.1524 20.8876 19.1368 20.8876 19.1201C20.8876 19.1041 20.8886 19.0924 20.8898 19.0834C20.902 19.0595 20.9104 19.0402 20.9153 19.0252L20.9464 18.9375C21.0231 18.7315 21.0674 18.5882 21.0797 18.5082L20.9814 18.5871C20.9765 18.5926 20.9636 18.6049 20.9431 18.6232C20.9232 18.6415 20.9075 18.6543 20.8953 18.6616C20.8848 18.6631 20.8621 18.6715 20.8282 18.687C20.811 18.6992 20.7915 18.7082 20.7694 18.7148C20.7526 18.712 20.7349 18.7048 20.7161 18.6937C20.6972 18.682 20.6827 18.6687 20.6727 18.6543C20.6605 18.6282 20.6544 18.5944 20.6544 18.5516C20.6544 18.5021 20.6611 18.4539 20.6744 18.4077C20.706 18.3139 20.7288 18.2473 20.7438 18.2085C20.7593 18.1697 20.7826 18.1263 20.8132 18.0786C20.8204 18.068 20.8326 18.0485 20.8504 18.0208C20.8682 17.9925 20.8876 17.9681 20.9081 17.9475C20.9253 17.9326 20.9409 17.9186 20.9559 17.9058C20.9715 17.893 20.9853 17.8802 20.9975 17.8686C21.0636 17.8465 21.1091 17.8354 21.133 17.8354C21.1553 17.8354 21.1752 17.8403 21.1929 17.8505C21.2113 17.861 21.2335 17.8793 21.259 17.9047C21.2601 17.9108 21.2607 17.9392 21.2607 17.9886L21.2628 18.073C21.2735 18.0768 21.2806 18.0652 21.2846 18.0392C21.2873 18.0119 21.2896 17.9952 21.2917 17.9886C21.3173 17.907 21.3362 17.8548 21.3484 17.8321C21.3756 17.7748 21.404 17.7021 21.4344 17.6149C21.4396 17.5927 21.4522 17.5711 21.4734 17.5505C21.5177 17.5627 21.55 17.5843 21.5699 17.6149C21.5699 17.6661 21.5655 17.7043 21.5561 17.7299C21.5471 17.7555 21.5339 17.782 21.5165 17.8098C21.4984 17.8371 21.4861 17.8642 21.4806 17.8919C21.4806 17.897 21.4694 17.923 21.4472 17.9708C21.4256 18.0185 21.4128 18.0463 21.409 18.0552L21.5933 17.9431C21.6022 17.9397 21.6172 17.9309 21.6394 17.9175C21.6649 17.9032 21.6866 17.893 21.7032 17.8863C21.7204 17.8793 21.7393 17.8758 21.7597 17.8758C21.7754 17.8758 21.7876 17.877 21.7958 17.8793C21.8197 17.882 21.848 17.8959 21.8826 17.9219C21.9164 17.9475 21.9403 17.9748 21.9537 18.0036ZM21.1457 18.1773C21.153 18.154 21.1562 18.1112 21.1562 18.0497C21.1562 17.9936 21.1524 17.9602 21.1435 17.9504C21.1041 17.9708 21.0797 17.9847 21.0714 17.992C21.0625 17.9997 21.0347 18.0291 20.987 18.0808C20.9614 18.1112 20.9404 18.1446 20.9232 18.1807C20.9092 18.2152 20.8836 18.2684 20.8465 18.3417C20.8326 18.369 20.8216 18.3928 20.812 18.4133C20.8026 18.4339 20.7982 18.4505 20.7982 18.4645C20.7982 18.4767 20.8032 18.4872 20.8132 18.4971C20.8338 18.4994 20.8604 18.4894 20.892 18.4677C20.9247 18.445 20.9709 18.4094 21.0307 18.3617L21.1018 18.3057C21.118 18.294 21.128 18.2812 21.133 18.2673C21.1379 18.2534 21.1402 18.2373 21.1402 18.2178C21.1402 18.1979 21.1425 18.1846 21.1457 18.1773ZM21.7981 18.1752C21.7999 18.1685 21.8042 18.1513 21.8121 18.124C21.8197 18.0975 21.8237 18.0736 21.8237 18.0529C21.8237 18.0285 21.8153 18.0164 21.7981 18.0164C21.7554 18.0285 21.721 18.0413 21.6938 18.0552C21.6659 18.0686 21.6333 18.0896 21.5955 18.1191L21.4472 18.2285C21.4117 18.2652 21.3778 18.2795 21.345 18.2722C21.3318 18.2795 21.3223 18.2879 21.3162 18.2967C21.31 18.3063 21.3045 18.3195 21.2995 18.3362C21.3091 18.3433 21.3162 18.3473 21.3207 18.3473C21.3251 18.3473 21.329 18.3473 21.3323 18.3473C21.3495 18.3844 21.3667 18.4111 21.3845 18.426C21.4029 18.4417 21.4306 18.4494 21.4678 18.4494C21.5139 18.4494 21.5567 18.4371 21.5955 18.4133C21.6354 18.3894 21.6654 18.3661 21.6854 18.3417C21.7059 18.3284 21.7293 18.3001 21.7554 18.2574C21.7826 18.2152 21.7971 18.1874 21.7981 18.1752ZM22.535 18.6232C22.4922 18.661 22.441 18.6797 22.381 18.6797C22.339 18.6797 22.2983 18.6692 22.2595 18.6488C22.2213 18.6282 22.1896 18.5999 22.164 18.5644C22.1418 18.5366 22.1257 18.5061 22.1157 18.4717C22.1052 18.4377 22.0996 18.3961 22.0996 18.3473C22.0996 18.3301 22.1019 18.2956 22.1052 18.2445C22.1101 18.1813 22.1313 18.1158 22.1679 18.0474C22.2045 17.9792 22.2501 17.9181 22.3045 17.8642C22.3594 17.8109 22.4127 17.7737 22.4655 17.7532C22.4933 17.736 22.5182 17.7276 22.5399 17.7276C22.5522 17.7276 22.5644 17.7282 22.5766 17.7299C22.5877 17.7321 22.6003 17.7337 22.6148 17.7355C22.6516 17.7399 22.6804 17.7476 22.6998 17.7576C22.7197 17.7666 22.7364 17.7803 22.7503 17.7992C22.7925 17.842 22.8141 17.8909 22.8141 17.9475C22.807 17.9886 22.7803 18.0352 22.7343 18.0879C22.6888 18.1412 22.6332 18.184 22.5677 18.2157C22.5371 18.2268 22.5027 18.2318 22.4633 18.2318C22.4106 18.2318 22.3684 18.2206 22.3355 18.1991C22.3201 18.1929 22.3078 18.1901 22.2994 18.1901C22.2845 18.1901 22.2729 18.2006 22.2651 18.2212C22.2572 18.2417 22.2501 18.2795 22.244 18.3345C22.2418 18.3461 22.2406 18.3633 22.2406 18.3856C22.2406 18.4723 22.2695 18.5198 22.3279 18.5282C22.3673 18.5366 22.395 18.541 22.4122 18.541C22.4328 18.541 22.4561 18.5344 22.4817 18.521L22.5293 18.4933C22.5399 18.4872 22.5499 18.4805 22.5583 18.4717C22.5665 18.4633 22.5743 18.4555 22.5805 18.4494C22.5843 18.4461 22.5893 18.44 22.5965 18.4322C22.6032 18.4245 22.6093 18.4194 22.616 18.4172C22.6215 18.4144 22.6271 18.4133 22.6321 18.4133C22.6388 18.4133 22.6465 18.4172 22.6554 18.4249C22.6637 18.4327 22.6704 18.4383 22.6754 18.4417C22.6909 18.4417 22.6949 18.4528 22.6859 18.4738C22.6775 18.495 22.6593 18.5198 22.6309 18.5477C22.6032 18.576 22.5709 18.6011 22.535 18.6232ZM22.5327 18.0808C22.5616 18.0686 22.5915 18.0468 22.621 18.0164C22.651 17.9859 22.6659 17.9602 22.6659 17.9397C22.6659 17.9192 22.6582 17.902 22.6425 17.8886C22.6271 17.8753 22.6055 17.8686 22.5787 17.8686C22.5577 17.8686 22.5426 17.8703 22.5327 17.8737C22.5083 17.8802 22.4806 17.898 22.4483 17.928C22.4156 17.958 22.3872 17.9886 22.3634 18.0197C22.3396 18.0503 22.3306 18.068 22.3355 18.073C22.3439 18.0885 22.3772 18.0963 22.4355 18.0963C22.475 18.0963 22.5071 18.0914 22.5327 18.0808Z" fill="black"/>
<path d="M5.5218 12.6881C5.51431 12.7566 5.51025 13.13 5.51025 13.8088C5.51025 14.3618 5.51226 14.8746 5.51632 15.3475C5.52009 15.82 5.5238 16.1405 5.52757 16.3085C5.52757 16.3123 5.53518 16.3302 5.55015 16.3626C5.56581 16.395 5.58312 16.4152 5.60193 16.423C5.63228 16.4303 5.69509 16.434 5.79082 16.434C5.92382 16.434 6.08813 16.4294 6.28274 16.4196C6.47706 16.4103 6.62378 16.4019 6.72294 16.3941C6.90229 16.3753 7.0434 16.318 7.14611 16.2226C7.24521 16.1313 7.32162 16.0263 7.37478 15.9083C7.42833 15.7897 7.4549 15.6658 7.4549 15.5363C7.45896 15.2656 7.44942 14.9778 7.42661 14.6727C7.42255 14.5584 7.38901 14.439 7.32591 14.3152C7.2635 14.1911 7.19955 14.1044 7.13445 14.0546C7.08129 14.0165 7.05466 13.9899 7.05466 13.9749C7.05466 13.9673 7.0622 13.9569 7.07723 13.9436C7.09284 13.93 7.10244 13.9175 7.10621 13.9063C7.14811 13.8186 7.17297 13.7556 7.18046 13.7177C7.19206 13.6639 7.19783 13.5875 7.19783 13.4889C7.19783 13.2026 7.12153 12.9872 6.96904 12.8425C6.90017 12.7661 6.82102 12.7127 6.73129 12.682C6.64167 12.6516 6.53788 12.6363 6.41986 12.6363L5.86512 12.6308C5.73932 12.6308 5.64588 12.6329 5.58461 12.6363C5.56958 12.6401 5.55535 12.6476 5.54209 12.6592C5.52849 12.6707 5.5218 12.6803 5.5218 12.6881ZM6.25383 13.1855C6.27663 13.1893 6.30732 13.1911 6.3455 13.1911C6.38368 13.1911 6.41694 13.196 6.44529 13.2055C6.47415 13.2153 6.49827 13.2352 6.51696 13.2656C6.57429 13.3455 6.6032 13.4293 6.6032 13.5173C6.6032 13.6622 6.5173 13.7556 6.3455 13.7975C6.31892 13.8051 6.28252 13.8088 6.23645 13.8088C6.19107 13.8088 6.15495 13.8088 6.12825 13.8088H6.11123C6.06905 13.8088 6.04796 13.786 6.04796 13.7403C6.04418 13.6755 6.04207 13.5803 6.04207 13.4545C6.03869 13.4126 6.03658 13.3495 6.03658 13.2656C6.03658 13.254 6.04236 13.2416 6.05402 13.2284C6.06528 13.2151 6.07682 13.2067 6.08836 13.2029C6.0994 13.1988 6.15466 13.1931 6.25383 13.1855ZM6.74026 14.5865C6.82793 14.7126 6.87183 14.8861 6.87183 15.1074C6.87183 15.2673 6.8528 15.4238 6.81462 15.5762C6.79553 15.6488 6.7574 15.7116 6.70037 15.7651C6.64287 15.8183 6.57805 15.8489 6.50541 15.8565H6.33367C6.31486 15.8565 6.29114 15.8556 6.26279 15.8538C6.23382 15.8518 6.20033 15.853 6.16215 15.8565H6.14569C6.11849 15.8565 6.10025 15.8509 6.09105 15.8394C6.08145 15.8278 6.07653 15.807 6.07653 15.7767C6.0803 15.5745 6.0823 15.2693 6.0823 14.8615L6.06493 14.4723C6.06493 14.4191 6.08985 14.3921 6.13929 14.3921C6.16621 14.3921 6.21187 14.3895 6.27663 14.3841C6.34172 14.378 6.39905 14.3768 6.4482 14.3806C6.57023 14.3921 6.66773 14.4607 6.74026 14.5865ZM7.9698 13.5343C7.96226 13.5803 7.95843 13.6966 7.95843 13.8831C7.95843 13.9974 7.9642 14.3809 7.97586 15.0331L7.98135 15.3645C7.98135 15.6201 8.03856 15.8735 8.15281 16.1254C8.26734 16.3771 8.53602 16.5029 8.95919 16.5029C9.18071 16.5029 9.36549 16.4418 9.51386 16.3198C9.66286 16.198 9.77362 16.0569 9.84587 15.8967C9.91822 15.7362 9.95435 15.6028 9.95435 15.4961C9.95435 15.2407 9.95349 14.911 9.95143 14.5067C9.94972 14.1023 9.94686 13.7727 9.94309 13.5173C9.94309 13.4105 9.91851 13.2859 9.86873 13.1427C9.81929 12.9996 9.72876 12.8697 9.59719 12.7537C9.46557 12.6375 9.28508 12.5793 9.05629 12.5793C8.78213 12.5793 8.56957 12.6337 8.41891 12.7425C8.26826 12.8509 8.16612 12.9663 8.11291 13.0884C8.05965 13.2101 8.01198 13.3587 7.9698 13.5343ZM9.32497 13.6659C9.32937 13.6775 9.33137 13.7784 9.33137 13.969C9.33137 14.2475 9.32817 14.5535 9.3224 14.887C9.31691 15.2205 9.30828 15.4313 9.29696 15.5189C9.28919 15.5953 9.24895 15.6612 9.17688 15.7168C9.10436 15.7717 9.028 15.7995 8.94816 15.7995C8.92095 15.7995 8.90186 15.7975 8.89089 15.794C8.78012 15.7709 8.70091 15.7306 8.65319 15.6734C8.60546 15.6164 8.58174 15.5305 8.58174 15.4162V14.4324C8.58174 13.9595 8.58552 13.6983 8.59329 13.6489C8.60489 13.5459 8.63724 13.4467 8.69051 13.351C8.71703 13.2978 8.75435 13.257 8.80213 13.2284C8.8498 13.2 8.90215 13.1855 8.95919 13.1855C9.05052 13.1855 9.13065 13.2257 9.1998 13.3055C9.24141 13.3553 9.27096 13.4085 9.28799 13.4655C9.30537 13.5228 9.31783 13.5895 9.32497 13.6659ZM12.4709 14.0608V13.8547C12.4709 13.6945 12.4671 13.5858 12.4598 13.5288C12.437 13.3114 12.3415 13.1294 12.1738 12.9825C12.006 12.8359 11.8117 12.7546 11.5901 12.7393C11.392 12.7239 11.1899 12.7164 10.984 12.7164C10.7859 12.7164 10.6522 12.7259 10.5834 12.7453C10.5568 12.7491 10.5386 12.7575 10.529 12.7708C10.5198 12.7841 10.5151 12.8041 10.5151 12.8306C10.5189 12.8995 10.5207 13.4449 10.5207 14.4668L10.5261 16.1997C10.5261 16.2912 10.5776 16.341 10.6806 16.3487L10.8755 16.3423C10.9174 16.3423 10.9478 16.3446 10.9666 16.3487L11.0126 16.3542C11.1006 16.3542 11.1442 16.3044 11.1442 16.2053C11.1402 16.1101 11.1393 16.0274 11.1415 15.9565C11.1434 15.8862 11.1442 15.8281 11.1442 15.7821C11.1479 15.7211 11.15 15.6277 11.15 15.5019C11.15 15.3914 11.1479 15.3076 11.1442 15.2502C11.1442 15.2158 11.1488 15.1927 11.1581 15.1814C11.1679 15.1702 11.1899 15.1627 11.2244 15.1586C11.2587 15.1548 11.3406 15.1482 11.4701 15.1386C11.5997 15.1291 11.6989 15.1108 11.7675 15.0843C11.985 14.9963 12.1567 14.8573 12.282 14.6666C12.4081 14.476 12.4709 14.2739 12.4709 14.0608ZM11.1442 14.444C11.1442 13.9442 11.1405 13.6067 11.1326 13.4317C11.1326 13.3706 11.1613 13.3399 11.2188 13.3399C11.2301 13.3399 11.2703 13.3399 11.3386 13.3399C11.4071 13.3399 11.4701 13.3437 11.5274 13.351C11.6226 13.3666 11.7093 13.4221 11.7874 13.5173C11.8658 13.6127 11.9068 13.7044 11.9106 13.792C11.9106 13.9022 11.904 13.9985 11.8907 14.0807C11.8773 14.1626 11.8476 14.2398 11.8018 14.3123C11.718 14.4498 11.5694 14.5182 11.3559 14.5182C11.287 14.5182 11.2298 14.5124 11.1845 14.5012C11.1766 14.4971 11.1679 14.4894 11.1581 14.4783C11.1488 14.4668 11.1442 14.4555 11.1442 14.444ZM12.854 13.5343C12.8465 13.5803 12.8431 13.6966 12.8431 13.8831C12.8431 13.9974 12.8488 14.3809 12.8601 15.0331L12.8656 15.3645C12.8656 15.6201 12.9229 15.8735 13.0374 16.1254C13.1517 16.3771 13.4204 16.5029 13.8438 16.5029C14.065 16.5029 14.2498 16.4418 14.3985 16.3198C14.5471 16.198 14.6579 16.0569 14.7305 15.8967C14.8031 15.7362 14.8392 15.6028 14.8392 15.4961C14.8392 15.2407 14.8381 14.911 14.8361 14.5067C14.8341 14.1023 14.8314 13.7727 14.8277 13.5173C14.8277 13.4105 14.8028 13.2859 14.7531 13.1427C14.7036 12.9996 14.613 12.8697 14.4818 12.7537C14.3499 12.6375 14.1697 12.5793 13.9409 12.5793C13.6665 12.5793 13.4539 12.6337 13.3032 12.7425C13.1525 12.8509 13.0508 12.9663 12.9972 13.0884C12.944 13.2101 12.8963 13.3587 12.854 13.5343ZM14.2096 13.6659C14.2137 13.6775 14.2157 13.7784 14.2157 13.969C14.2157 14.2475 14.2128 14.5535 14.2067 14.887C14.2013 15.2205 14.1928 15.4313 14.1813 15.5189C14.1735 15.5953 14.1336 15.6612 14.0612 15.7168C13.9886 15.7717 13.9126 15.7995 13.8324 15.7995C13.8059 15.7995 13.7868 15.7975 13.7752 15.794C13.6648 15.7709 13.5854 15.7306 13.5378 15.6734C13.4903 15.6164 13.4666 15.5305 13.4666 15.4162V14.4324C13.4666 13.9595 13.4704 13.6983 13.4776 13.6489C13.4891 13.5459 13.5215 13.4467 13.5748 13.351C13.6014 13.2978 13.6387 13.257 13.6865 13.2284C13.7341 13.2 13.7865 13.1855 13.8438 13.1855C13.9354 13.1855 14.0156 13.2257 14.0841 13.3055C14.126 13.3553 14.1555 13.4085 14.1728 13.4655C14.1899 13.5228 14.2021 13.5895 14.2096 13.6659ZM16.9549 12.6881L15.96 12.682C15.6892 12.682 15.5235 12.684 15.4622 12.6881C15.451 12.6918 15.4385 12.6985 15.4252 12.7081C15.4119 12.7173 15.4032 12.7277 15.3994 12.7393C15.3959 12.7658 15.3939 12.9967 15.3939 13.4317C15.3939 14.5182 15.3977 15.3969 15.4052 16.0682V16.2741C15.4052 16.3505 15.4298 16.3886 15.4795 16.3886L16.4062 16.3997C16.6199 16.3997 16.7972 16.3455 16.9383 16.2371C17.0792 16.1281 17.1814 15.9956 17.2443 15.8394C17.3071 15.6832 17.3386 15.5305 17.3386 15.3818V15.1586C17.3386 15.0252 17.3329 14.8957 17.3213 14.7699C17.3138 14.6059 17.2108 14.4191 17.0126 14.2091C16.8447 14.0413 16.5757 13.9574 16.2057 13.9574C16.1372 13.9574 16.089 13.9583 16.0603 13.9603C16.0314 13.9624 16.0134 13.9635 16.0059 13.9635C15.9521 13.9635 15.9255 13.9407 15.9255 13.8947C15.9217 13.83 15.9197 13.7136 15.9197 13.5459C15.9163 13.4886 15.9142 13.4123 15.9142 13.3171C15.9142 13.3058 15.9209 13.2934 15.9342 13.2801C15.9475 13.2668 15.96 13.2582 15.9715 13.2538C15.9831 13.2503 16.0495 13.2483 16.1713 13.2483L16.7723 13.2538C16.8218 13.2538 16.8675 13.1911 16.9095 13.0652C16.9511 12.9397 16.9722 12.833 16.9722 12.7453C16.9722 12.7071 16.9664 12.6881 16.9549 12.6881ZM16.2974 14.5357C16.427 14.5357 16.5271 14.5764 16.598 14.6583C16.6682 14.7401 16.7157 14.8306 16.7406 14.9298C16.7654 15.029 16.7778 15.1091 16.7778 15.1702C16.7778 15.2502 16.7637 15.3445 16.735 15.4535C16.7064 15.562 16.6607 15.6572 16.598 15.7394C16.5349 15.8211 16.4539 15.8623 16.3547 15.8623L16.0398 15.8565C16.036 15.8565 16.0277 15.8536 16.0143 15.8477C16.001 15.8423 15.9886 15.8336 15.977 15.8221C15.9655 15.8108 15.96 15.7954 15.96 15.7767C15.96 15.582 15.9579 15.3723 15.9542 15.1475C15.9507 14.9222 15.9467 14.747 15.9426 14.6209C15.9426 14.5677 15.9675 14.5411 16.0169 14.5411C16.0858 14.5373 16.1795 14.5357 16.2974 14.5357ZM18.608 13.8892C18.5929 13.8892 18.4119 13.5898 18.0648 12.9911L17.939 12.768C17.9043 12.7147 17.8702 12.6881 17.8361 12.6881C17.8248 12.6881 17.8037 12.6956 17.7727 12.7109L17.5101 12.8825C17.4757 12.9053 17.4488 12.9253 17.4297 12.9423C17.4109 12.9594 17.4014 12.9758 17.4014 12.9911C17.4014 13.0137 17.4185 13.0539 17.4532 13.1113L17.6417 13.4256C18.0154 14.0586 18.2401 14.4361 18.3165 14.5584L17.7791 16.1026C17.7748 16.1141 17.7727 16.1313 17.7727 16.1537C17.7727 16.2264 17.7959 16.2683 17.8419 16.2799C17.8876 16.2912 17.9773 16.3103 18.1105 16.3368L18.2592 16.3658C18.2936 16.3658 18.3168 16.3563 18.3281 16.3368C18.3663 16.2836 18.3928 16.2284 18.4082 16.1709C18.473 15.988 18.6922 15.4134 19.0655 14.4468C19.4396 13.4803 19.6416 12.9623 19.672 12.8935C19.6799 12.8784 19.6837 12.8671 19.6837 12.8596C19.6837 12.8367 19.6666 12.8234 19.6321 12.8197L19.2145 12.7281C19.2029 12.7239 19.1879 12.7219 19.1688 12.7219C19.1153 12.7219 19.073 12.7526 19.0427 12.8136C19.0011 12.9128 18.9479 13.0502 18.883 13.2257C18.86 13.2827 18.8113 13.4076 18.737 13.6006C18.6624 13.7929 18.6196 13.8892 18.608 13.8892ZM22.806 12.7393C22.7909 12.7202 22.7225 12.7109 22.6007 12.7109C22.5165 12.7109 22.4173 12.7144 22.303 12.7219C22.2915 12.7219 22.2791 12.7306 22.2658 12.7479C22.2524 12.765 22.2458 12.7812 22.2458 12.7963C22.242 12.8272 22.2403 13.1743 22.2403 13.8374C22.2403 14.9052 22.242 15.4923 22.2458 15.5991C22.2458 15.6485 22.225 15.6714 22.183 15.6679C22.1258 15.6641 22.0769 15.6632 22.037 15.665C21.9971 15.6667 21.9637 15.6679 21.9372 15.6679C21.8912 15.6679 21.8568 15.6658 21.8337 15.6621C21.8223 15.6581 21.8099 15.6494 21.7967 15.6361C21.7833 15.6227 21.7767 15.6103 21.7767 15.5991C21.7614 15.4047 21.7538 14.867 21.7538 13.9864C21.7501 13.8296 21.7483 13.6449 21.7483 13.4317C21.7446 13.382 21.7359 13.3495 21.7226 13.3345C21.709 13.3189 21.6832 13.3111 21.6457 13.3111H21.2564C21.226 13.3111 21.2049 13.3169 21.1936 13.3284C21.182 13.3397 21.1763 13.3587 21.1763 13.3854V13.923C21.1763 14.7927 21.182 15.3454 21.1936 15.5817V15.5991C21.1936 15.6219 21.1887 15.6381 21.1791 15.6479C21.1693 15.6575 21.1514 15.6621 21.1247 15.6621L20.7017 15.6679C20.6635 15.6679 20.6444 15.6468 20.6444 15.6051C20.6444 15.3226 20.6424 14.8248 20.6389 14.1119C20.6345 13.399 20.629 12.9623 20.6215 12.8024C20.6099 12.7488 20.5776 12.7239 20.5244 12.7281C20.4861 12.7355 20.4301 12.7381 20.3555 12.7364C20.2811 12.7347 20.2363 12.7335 20.2212 12.7335C20.1105 12.7335 20.0512 12.768 20.0434 12.8365C20.0399 13.1988 20.037 13.7394 20.0353 14.4584C20.0333 15.1768 20.0324 15.7518 20.0324 16.1827C20.0324 16.2359 20.0373 16.275 20.0469 16.2999C20.0561 16.3244 20.0744 16.3368 20.1012 16.3368L22.7207 16.3542C22.7586 16.3542 22.7834 16.3435 22.795 16.3224C22.8065 16.3018 22.8158 16.2549 22.8234 16.1827C22.8234 16.1596 22.8242 16.0566 22.826 15.8738C22.8282 15.6904 22.8294 15.3607 22.8294 14.8844C22.8294 13.4698 22.8216 12.7546 22.806 12.7393ZM24.0361 13.3284C24.0627 13.3246 24.2133 13.3189 24.488 13.3111C24.7623 13.3038 24.9566 13.2981 25.0711 13.294C25.1094 13.294 25.1426 13.2795 25.1712 13.2512C25.1998 13.2226 25.2122 13.1893 25.2082 13.1512C25.2082 13.0673 25.2122 13.0042 25.2201 12.9623L25.2256 12.9108C25.2256 12.8576 25.2094 12.8156 25.1773 12.7853C25.1446 12.7546 25.0978 12.7393 25.0367 12.7393L23.5213 12.7508C23.4602 12.7508 23.4295 12.7849 23.4295 12.8535C23.4295 12.8917 23.4307 13.0013 23.4324 13.1829C23.4342 13.364 23.4353 13.666 23.4353 14.0891C23.4353 15.2864 23.4391 15.9918 23.4469 16.2053C23.4507 16.2434 23.4648 16.2759 23.4897 16.3024C23.5146 16.329 23.5459 16.3423 23.584 16.3423H25.1683C25.2027 16.3388 25.2305 16.3244 25.2516 16.2999C25.2725 16.275 25.2829 16.2475 25.2829 16.2171L25.2889 15.9594C25.2889 15.8755 25.2849 15.8186 25.277 15.7877C25.2693 15.7497 25.256 15.7269 25.2371 15.7194C25.2181 15.7116 25.1969 15.7078 25.1744 15.7078C25.1515 15.7078 25.1342 15.7078 25.1228 15.7078H24.0988C24.0872 15.7078 24.0751 15.702 24.0614 15.6904C24.0482 15.6792 24.0398 15.6676 24.0361 15.6561C24.0323 15.6335 24.0305 15.508 24.0305 15.2792C24.0305 15.0044 24.0285 14.8155 24.0244 14.7126C24.0244 14.6669 24.0291 14.6371 24.0389 14.6238C24.0485 14.6106 24.076 14.6021 24.1216 14.5984C24.1561 14.5946 24.2095 14.5929 24.2822 14.5929H24.4308C24.4649 14.5929 24.5057 14.5937 24.5537 14.5954C24.6014 14.5975 24.6558 14.5964 24.7168 14.5929C24.827 14.5851 24.8881 14.5428 24.8997 14.4668C24.9037 14.4132 24.9045 14.3656 24.9022 14.3234C24.9005 14.2817 24.8997 14.2455 24.8997 14.2152C24.8959 14.1579 24.8806 14.1165 24.854 14.092C24.8273 14.0671 24.7816 14.0546 24.7168 14.0546L24.0589 14.0662C24.0514 14.0662 24.0409 14.0608 24.0271 14.0491C24.0138 14.0376 24.0071 14.0283 24.0071 14.0208L23.9906 13.5742L23.9845 13.3854C23.9845 13.3782 23.9901 13.3677 24.0016 13.3545C24.0131 13.3411 24.0244 13.3325 24.0361 13.3284ZM26.4213 13.8776C26.4134 13.7328 26.4093 13.3724 26.4093 12.7963V12.7792C26.4093 12.7526 26.4038 12.7347 26.3929 12.7254C26.3813 12.7156 26.3602 12.7109 26.3295 12.7109C26.154 12.7182 26.0091 12.7219 25.8945 12.7219C25.8607 12.7219 25.8387 12.7297 25.8291 12.7453C25.8197 12.7604 25.8147 12.787 25.8147 12.8252V16.2915C25.8147 16.3218 25.8205 16.341 25.8318 16.3487C25.8549 16.3599 25.9159 16.3658 26.0151 16.3658C26.1485 16.3658 26.2494 16.3621 26.3182 16.3542C26.3752 16.3464 26.4038 16.3178 26.4038 16.268L26.4213 14.5929C26.4213 14.4894 26.4612 14.4378 26.5409 14.4378C26.5754 14.4378 26.6193 14.4457 26.6725 14.4613C26.7529 14.4801 26.8235 14.5209 26.8842 14.5839C26.9453 14.6466 26.9814 14.7239 26.993 14.8152C27.0008 14.9222 27.0045 15.2216 27.0045 15.7133C27.0083 15.8319 27.0103 15.9692 27.0103 16.1254C27.0138 16.2284 27.0187 16.2912 27.0248 16.3143C27.0303 16.3371 27.0396 16.3496 27.0529 16.3513C27.0664 16.3534 27.1549 16.3542 27.319 16.3542C27.4369 16.3542 27.5095 16.3522 27.5367 16.3487C27.544 16.3487 27.5518 16.342 27.5596 16.3285C27.5668 16.3152 27.5706 16.303 27.5706 16.2915C27.5746 16.2608 27.5766 16.0509 27.5766 15.6621V14.9472C27.5882 14.7716 27.5613 14.6229 27.4962 14.5012C27.4198 14.3676 27.3285 14.2683 27.2218 14.2036C27.1989 14.1882 27.1873 14.175 27.1873 14.1634C27.1873 14.1483 27.1989 14.1351 27.2218 14.1235C27.3172 14.0703 27.3898 13.9893 27.439 13.8802C27.4884 13.7717 27.5173 13.6737 27.5249 13.5862C27.5287 13.5326 27.5307 13.3669 27.5307 13.0884V12.888C27.5269 12.8153 27.5182 12.7725 27.5049 12.7593C27.4916 12.7459 27.4488 12.7393 27.3762 12.7393H27.1246C27.0216 12.7393 26.9684 12.7413 26.9646 12.7453C26.9606 12.7491 26.9594 12.7983 26.9614 12.8935C26.9635 12.9891 26.9646 13.071 26.9646 13.1396C26.9684 13.2121 26.9702 13.296 26.9702 13.3918C26.9702 13.5097 26.9435 13.6078 26.8903 13.6858C26.8365 13.764 26.7729 13.8204 26.6989 13.8547C26.6243 13.8892 26.5566 13.9063 26.4955 13.9063C26.4458 13.9063 26.4213 13.8967 26.4213 13.8776Z" fill="#DD5854"/>
</svg>
