<svg width="31" height="46" viewBox="0 0 31 46" fill="none" xmlns="http://www.w3.org/2000/svg">
<path fill-rule="evenodd" clip-rule="evenodd" d="M3.375 11.5002C3.37522 9.28703 4.04177 7.12094 5.29468 5.26183C6.54759 3.40273 8.33364 1.92957 10.4385 1.01914C12.5434 0.108708 14.8777 -0.200331 17.1613 0.129107C19.4448 0.458545 21.5808 1.41247 23.3127 2.8764C25.0446 4.34034 26.299 6.25212 26.9253 8.38232C27.5516 10.5125 27.5232 12.7707 26.8435 14.8858C26.1639 17.001 24.8619 18.8832 23.0937 20.3068C21.3255 21.7303 19.1662 22.6347 16.875 22.9113V38.8133C16.875 39.1946 16.717 39.5602 16.4357 39.8298C16.1544 40.0994 15.7728 40.2508 15.375 40.2508C14.9772 40.2508 14.5956 40.0994 14.3143 39.8298C14.033 39.5602 13.875 39.1946 13.875 38.8133V22.9142C10.9739 22.5639 8.30606 21.2105 6.37264 19.1083C4.43922 17.006 3.37327 14.3024 3.375 11.5002ZM10.854 36.151C10.9191 36.5269 10.8257 36.9122 10.5945 37.2222C10.3633 37.5321 10.0132 37.7415 9.621 37.8042C7.485 38.1434 5.781 38.6523 4.656 39.2216C4.24273 39.412 3.86714 39.6698 3.546 39.9835C3.4734 40.0593 3.41549 40.1469 3.375 40.2422V40.2508L3.381 40.2738C3.3928 40.3073 3.40893 40.3391 3.429 40.3687C3.54741 40.5351 3.69451 40.6809 3.864 40.8C4.359 41.1737 5.169 41.5762 6.303 41.9356C8.556 42.6544 11.763 43.1259 15.375 43.1259C18.987 43.1259 22.194 42.6573 24.447 41.9356C25.581 41.5734 26.391 41.1737 26.886 40.8C27.0565 40.6811 27.2046 40.5353 27.324 40.3687C27.343 40.339 27.3581 40.3071 27.369 40.2738L27.375 40.2508V40.2393C27.3345 40.144 27.2766 40.0564 27.204 39.9806C26.8827 39.6679 26.5071 39.4111 26.094 39.2216C24.966 38.6523 23.265 38.1434 21.129 37.8042C20.93 37.7783 20.7385 37.7145 20.5658 37.6164C20.393 37.5183 20.2426 37.388 20.1234 37.2331C20.0042 37.0783 19.9186 36.9021 19.8718 36.7149C19.825 36.5278 19.8178 36.3336 19.8507 36.1438C19.8837 35.954 19.9561 35.7724 20.0636 35.6099C20.1711 35.4474 20.3116 35.3072 20.4766 35.1977C20.6417 35.0882 20.8281 35.0115 21.0247 34.9723C21.2212 34.9331 21.424 34.9321 21.621 34.9693C23.931 35.3345 25.977 35.9124 27.492 36.6771C28.875 37.3758 30.375 38.5258 30.375 40.2508C30.375 41.4756 29.595 42.4129 28.743 43.0598C27.873 43.7153 26.703 44.2472 25.395 44.6641C22.761 45.5065 19.218 46.001 15.375 46.001C11.532 46.001 7.989 45.5065 5.355 44.6641C4.047 44.2472 2.877 43.7153 2.007 43.0598C1.155 42.4129 0.375 41.4756 0.375 40.2508C0.375 38.5287 1.875 37.3758 3.258 36.6771C4.773 35.9124 6.819 35.3345 9.129 34.9693C9.52123 34.907 9.92324 34.9964 10.2467 35.218C10.5702 35.4396 10.7886 35.7752 10.854 36.151Z" fill="#FB634D"/>
</svg>
